<svg xmlns="http://www.w3.org/2000/svg" viewBox="0 0 161.62 168.97"><defs><style>.cls-1{fill:#fff;stroke:#333;stroke-miterlimit:10;stroke-width:5px;}.cls-2{fill:#333;}</style></defs><g id="图层_2" data-name="图层 2"><g id="正面"><g id="犄角"><path class="cls-1" d="M157,62.79H133.32c-1.56,0-2.46-3.25-2-7l5.69-51c.14-1.26.93-2.25,1.77-2.25h12.81c.84,0,1.64,1,1.78,2.25l5.68,51C159.44,59.54,158.54,62.79,157,62.79Z"/><path class="cls-1" d="M28.3,62.79H4.64c-1.56,0-2.46-3.25-2-7l5.69-51c.14-1.26.93-2.25,1.78-2.25h12.8c.85,0,1.64,1,1.78,2.25l5.69,51C30.76,59.54,29.86,62.79,28.3,62.79Z"/></g><rect id="头部" class="cls-1" x="2.5" y="44.41" width="156.62" height="122.06" rx="14.71"/><g id="眼睛-正常"><rect class="cls-2" x="33.38" y="74.19" width="14.34" height="52.21" rx="6.62"/><rect class="cls-2" x="112.24" y="74.19" width="14.34" height="52.21" rx="6.62"/></g></g></g></svg>