<svg width="50.000000" height="50.000000" viewBox="0 0 50 50" fill="none" xmlns="http://www.w3.org/2000/svg" xmlns:xlink="http://www.w3.org/1999/xlink">
	<desc>
			Created with Pixso.
	</desc>
	<defs>
		<clipPath id="clip11_59">
			<rect id="github" width="50.000000" height="50.000000" fill="white" fill-opacity="0"/>
		</clipPath>
	</defs>
	<g clip-path="url(#clip11_59)">
		<path id="path" d="M0 25.63C0 31.03 1.55 35.89 4.66 40.2C7.77 44.52 11.79 47.54 16.74 49.26C16.94 49.29 17.1 49.31 17.23 49.31C17.36 49.31 17.47 49.29 17.55 49.24C17.63 49.19 17.69 49.14 17.74 49.09C17.79 49.04 17.83 48.96 17.84 48.85C17.86 48.73 17.87 48.65 17.87 48.6L17.87 43.7C16.66 43.83 15.59 43.82 14.64 43.67C13.7 43.52 12.96 43.3 12.42 42.99C11.89 42.68 11.41 42.29 11.01 41.84C10.6 41.38 10.32 40.97 10.18 40.59C10.03 40.22 9.88 39.83 9.74 39.42C9.59 39.02 9.5 38.78 9.47 38.71C9.18 38.23 8.74 37.78 8.15 37.37C7.56 36.97 7.12 36.64 6.83 36.4C6.54 36.15 6.51 35.91 6.73 35.69C8.36 34.84 10.2 35.91 12.25 38.91C13.36 40.57 15.29 41.06 18.06 40.38C18.39 39.04 19.04 37.9 20.01 36.96C16.24 36.27 13.44 34.87 11.62 32.76C9.79 30.64 8.88 28.07 8.88 25.04C8.88 22.21 9.78 19.75 11.57 17.67C10.85 15.55 10.95 13.32 11.86 10.98C12.8 10.91 13.86 11.1 15.03 11.54C16.21 11.98 17.03 12.35 17.5 12.66C17.97 12.97 18.39 13.26 18.75 13.52C20.6 13 22.69 12.74 25.02 12.74C27.35 12.74 29.46 13 31.34 13.52C31.77 13.23 32.24 12.92 32.76 12.59C33.28 12.26 34.08 11.91 35.15 11.54C36.23 11.17 37.22 11.01 38.13 11.08C39.01 13.39 39.12 15.59 38.47 17.67C40.29 19.75 41.21 22.21 41.21 25.04C41.21 28.07 40.28 30.65 38.42 32.78C36.57 34.91 33.77 36.3 30.02 36.96C31.42 38.36 32.12 40.05 32.12 42.03L32.12 48.33C32.12 48.36 32.14 48.41 32.17 48.48C32.17 48.68 32.18 48.82 32.2 48.92C32.21 49.02 32.29 49.11 32.42 49.21C32.55 49.31 32.74 49.36 33 49.36C37.98 47.67 42.06 44.65 45.24 40.3C48.41 35.96 50 31.06 50 25.63C50 22.24 49.34 19 48.02 15.91C46.7 12.82 44.93 10.16 42.7 7.93C40.47 5.7 37.81 3.92 34.71 2.61C31.62 1.29 28.38 0.63 25 0.63C21.61 0.63 18.37 1.29 15.28 2.61C12.19 3.92 9.53 5.7 7.3 7.93C5.07 10.16 3.29 12.82 1.97 15.91C0.66 19 0 22.24 0 25.63Z" fill="#444444" fill-opacity="1.000000" fill-rule="nonzero"/>
	</g>
</svg>
