<svg width="40.000000" height="40.000000" viewBox="0 0 40 40" fill="none" xmlns="http://www.w3.org/2000/svg" xmlns:xlink="http://www.w3.org/1999/xlink">
	<desc>
			Created with Pixso.
	</desc>
	<defs>
		<clipPath id="clip15_4">
			<rect id="分享,共享,转发" width="40.000000" height="40.000000" fill="white" fill-opacity="0"/>
		</clipPath>
		<linearGradient x1="20.000334" y1="1.250000" x2="20.000334" y2="37.500000" id="paint_linear_15_5_0" gradientUnits="userSpaceOnUse">
			<stop stop-color="#FFFA00"/>
			<stop offset="1.000000" stop-color="#32EED5"/>
		</linearGradient>
	</defs>
	<g clip-path="url(#clip15_4)">
		<path id="path" d="M40 29.9C40.05 34.08 36.67 37.5 32.5 37.5C28.36 37.5 25 34.13 25 30C25 29.51 25.04 29.03 25.13 28.57C25.19 28.29 25.04 28.01 24.79 27.89L14.96 23.21C14.66 23.06 14.3 23.18 14.14 23.48C12.88 25.87 10.38 27.5 7.5 27.5C3.35 27.5 -0.01 24.13 1.52e-5 19.98C0 15.85 3.38 12.49 7.51 12.5C10.01 12.5 12.23 13.73 13.59 15.62C13.76 15.87 14.09 15.95 14.37 15.82L24.79 10.85C25.05 10.73 25.19 10.45 25.13 10.17C25.04 9.71 25 9.23 25 8.75C25 4.61 28.36 1.25 32.5 1.25C36.67 1.25 40.05 4.66 40 8.84C39.94 12.94 36.56 16.26 32.46 16.25C30.06 16.23 27.92 15.09 26.56 13.33C26.38 13.09 26.06 13.01 25.8 13.14L15.25 18.16C15 18.28 14.86 18.55 14.91 18.82C14.96 19.21 14.99 19.6 15 20L15 20.06C15 20.3 15.13 20.52 15.35 20.63L25.79 25.6C26.06 25.73 26.38 25.65 26.56 25.41C27.92 23.65 30.06 22.51 32.46 22.5C36.56 22.48 39.94 25.8 40 29.9Z" fill="url(#paint_linear_15_5_0)" fill-opacity="1.000000" fill-rule="nonzero"/>
	</g>
</svg>
