<svg width="72.064209" height="73.548828" viewBox="0 0 72.0642 73.5488" fill="none" xmlns="http://www.w3.org/2000/svg" xmlns:xlink="http://www.w3.org/1999/xlink">
	<desc>
			Created with Pixso.
	</desc>
	<defs/>
	<path id="回到顶部箭头" d="M38.06 0.97C36.94 -0.33 35.11 -0.33 34 0.97L0.59 39.95C-0.52 41.25 -0.03 42.32 1.69 42.32L14.17 42.32C15.89 42.32 17.3 43.72 17.3 45.44L17.3 70.42C17.3 72.14 18.7 73.54 20.42 73.54L51.64 73.54C53.36 73.54 54.76 72.14 54.76 70.42L54.76 45.44C54.76 43.72 56.16 42.32 57.88 42.32L70.37 42.32C72.09 42.32 72.58 41.25 71.46 39.95L38.06 0.97Z" fill="#444444" fill-opacity="1.000000" fill-rule="nonzero"/>
</svg>
