<svg width="72.527161" height="67.867035" viewBox="0 0 72.5272 67.867" fill="none" xmlns="http://www.w3.org/2000/svg" xmlns:xlink="http://www.w3.org/1999/xlink">
	<desc>
			Created with Pixso.
	</desc>
	<defs/>
	<path id="path" d="M69 19.89C74 25.34 73.63 33.82 68.17 38.85C62.7 43.88 54.21 43.54 49.21 38.1C48.6 37.45 48.07 36.74 47.61 35.98C47.15 35.22 46.77 34.43 46.47 33.59C46.17 32.76 45.95 31.9 45.82 31.02C45.69 30.14 45.65 29.26 45.7 28.38L34.21 26.27C33.32 27.94 32.14 29.49 30.69 30.86L37.3 45.62C38.2 45.49 39.1 45.46 40.01 45.55C40.91 45.64 41.79 45.83 42.65 46.13C43.51 46.44 44.32 46.84 45.08 47.34C45.84 47.84 46.53 48.42 47.14 49.09C51.32 53.63 51.01 60.71 46.45 64.9C41.9 69.08 34.82 68.8 30.65 64.27C26.5 59.75 26.78 52.73 31.27 48.53L31.25 48.55L24.97 34.52C23.68 35.03 22.35 35.38 20.98 35.58C19.61 35.78 18.23 35.83 16.85 35.71L14.73 47.06C14.97 47.26 15.2 47.48 15.41 47.71C15.63 47.94 15.84 48.18 16.03 48.43C16.23 48.68 16.4 48.94 16.57 49.21C16.73 49.48 16.89 49.76 17.02 50.04C17.16 50.33 17.28 50.62 17.38 50.92C17.49 51.22 17.58 51.52 17.65 51.83C17.72 52.14 17.78 52.45 17.82 52.76C17.86 53.08 17.88 53.39 17.89 53.71C17.89 54.03 17.88 54.34 17.85 54.66C17.83 54.97 17.78 55.29 17.72 55.6C17.66 55.91 17.58 56.21 17.49 56.52C17.4 56.82 17.29 57.12 17.16 57.41C17.04 57.7 16.9 57.98 16.75 58.26C16.59 58.53 16.42 58.8 16.24 59.06C16.06 59.32 15.86 59.56 15.65 59.8C15.44 60.04 15.22 60.26 14.99 60.48C14.77 60.68 14.55 60.86 14.31 61.04C14.08 61.22 13.84 61.38 13.59 61.54C13.34 61.69 13.08 61.83 12.82 61.96C12.55 62.09 12.28 62.2 12.01 62.3C11.74 62.4 11.46 62.49 11.17 62.56C10.89 62.64 10.6 62.7 10.31 62.74C10.02 62.79 9.73 62.82 9.44 62.84C9.15 62.85 8.86 62.86 8.56 62.85C8.27 62.83 7.98 62.81 7.69 62.77C7.4 62.73 7.11 62.67 6.83 62.61C6.54 62.54 6.26 62.45 5.98 62.36C5.71 62.26 5.44 62.15 5.17 62.03C4.9 61.91 4.64 61.77 4.39 61.62C4.14 61.48 3.89 61.32 3.66 61.14C3.42 60.97 3.19 60.79 2.97 60.59C2.75 60.4 2.54 60.19 2.35 59.98C2.15 59.76 1.96 59.54 1.79 59.3C1.61 59.07 1.45 58.83 1.29 58.58C1.14 58.32 1 58.07 0.88 57.8C0.75 57.54 0.63 57.27 0.53 56.99C0.43 56.72 0.35 56.44 0.28 56.16C0.2 55.87 0.14 55.58 0.1 55.3C0.05 55.01 0.02 54.71 0.01 54.42C-0.01 54.13 -0.01 53.84 0 53.54C0.02 53.25 0.04 52.96 0.08 52.67C0.13 52.38 0.18 52.09 0.25 51.81C0.32 51.52 0.4 51.24 0.5 50.97C0.6 50.69 0.71 50.42 0.83 50.15C0.96 49.89 1.09 49.63 1.24 49.38C1.39 49.12 1.55 48.88 1.73 48.64C1.9 48.41 2.08 48.18 2.28 47.96C2.48 47.74 2.68 47.54 2.9 47.34C4.44 45.92 6.35 45.14 8.29 44.99L10.37 33.89C8.42 32.92 6.71 31.63 5.24 30.02C-1.44 22.76 -0.95 11.45 6.34 4.74C13.63 -1.96 24.95 -1.51 31.62 5.75C35.26 9.7 36.77 14.85 36.21 19.81L47.72 21.93C48.37 20.89 49.14 19.96 50.03 19.14C55.5 14.11 63.99 14.45 69 19.89ZM10.59 52.39C10.49 52.28 10.38 52.19 10.26 52.1C10.14 52.01 10.02 51.94 9.88 51.88C9.75 51.82 9.61 51.77 9.47 51.73C9.33 51.7 9.18 51.68 9.04 51.67C8.89 51.67 8.74 51.68 8.6 51.7C8.45 51.72 8.31 51.76 8.17 51.81C8.04 51.86 7.91 51.92 7.78 52C7.66 52.08 7.54 52.17 7.43 52.27C6.52 53.1 6.46 54.52 7.29 55.43C7.39 55.53 7.5 55.63 7.62 55.72C7.74 55.8 7.87 55.88 8 55.94C8.13 56 8.27 56.05 8.41 56.08C8.56 56.12 8.7 56.14 8.85 56.14C8.99 56.15 9.14 56.14 9.28 56.12C9.43 56.09 9.57 56.06 9.71 56.01C9.85 55.96 9.98 55.89 10.1 55.82C10.23 55.74 10.34 55.65 10.45 55.55C10.56 55.45 10.66 55.34 10.74 55.23C10.83 55.11 10.91 54.98 10.97 54.85C11.03 54.72 11.08 54.58 11.11 54.43C11.15 54.29 11.17 54.15 11.18 54C11.18 53.85 11.17 53.71 11.15 53.56C11.13 53.42 11.09 53.28 11.04 53.14C10.99 53 10.93 52.87 10.85 52.74C10.78 52.62 10.69 52.5 10.59 52.39ZM42.19 53.65C42 53.43 41.78 53.24 41.54 53.06C41.3 52.89 41.05 52.74 40.78 52.62C40.52 52.5 40.24 52.4 39.95 52.33C39.67 52.26 39.38 52.22 39.09 52.21C38.79 52.2 38.5 52.22 38.21 52.26C37.92 52.31 37.64 52.38 37.36 52.48C37.09 52.59 36.82 52.71 36.57 52.87C36.32 53.02 36.09 53.2 35.87 53.4C34.05 55.07 33.93 57.9 35.6 59.71C35.8 59.93 36.02 60.12 36.25 60.3C36.49 60.47 36.74 60.62 37.01 60.74C37.28 60.86 37.55 60.96 37.84 61.03C38.12 61.1 38.41 61.14 38.71 61.15C39 61.16 39.29 61.14 39.58 61.1C39.87 61.05 40.15 60.98 40.43 60.88C40.71 60.78 40.97 60.65 41.22 60.49C41.47 60.34 41.7 60.17 41.92 59.97C43.74 58.29 43.86 55.46 42.19 53.65ZM26.68 10.3C22.5 5.76 15.42 5.48 10.87 9.67C6.32 13.86 6.01 20.94 10.18 25.47C14.36 30.01 21.43 30.29 25.99 26.1C30.54 21.91 30.85 14.83 26.68 10.3ZM64.05 24.44C63.9 24.28 63.74 24.13 63.58 23.98C63.41 23.84 63.24 23.7 63.06 23.57C62.89 23.44 62.7 23.32 62.51 23.21C62.32 23.1 62.13 23 61.93 22.9C61.73 22.81 61.53 22.73 61.32 22.66C61.11 22.59 60.9 22.52 60.69 22.47C60.47 22.42 60.26 22.38 60.04 22.35C59.82 22.32 59.6 22.3 59.38 22.29C59.17 22.28 58.95 22.28 58.73 22.3C58.51 22.31 58.29 22.33 58.07 22.37C57.85 22.4 57.64 22.45 57.43 22.5C57.21 22.56 57.01 22.62 56.8 22.7C56.59 22.78 56.39 22.86 56.19 22.96C56 23.05 55.8 23.16 55.62 23.27C55.43 23.39 55.25 23.51 55.07 23.64C54.9 23.78 54.73 23.92 54.57 24.07C51.83 26.58 51.65 30.83 54.15 33.55C54.3 33.71 54.46 33.86 54.62 34.01C54.79 34.15 54.96 34.29 55.14 34.42C55.31 34.55 55.5 34.67 55.69 34.78C55.88 34.89 56.07 35 56.27 35.09C56.47 35.18 56.67 35.26 56.88 35.33C57.09 35.41 57.3 35.47 57.51 35.52C57.73 35.57 57.94 35.61 58.16 35.64C58.38 35.67 58.6 35.69 58.82 35.7C59.04 35.71 59.25 35.71 59.47 35.69C59.69 35.68 59.91 35.66 60.13 35.62C60.35 35.59 60.56 35.54 60.77 35.49C60.99 35.43 61.2 35.37 61.4 35.29C61.61 35.22 61.81 35.13 62.01 35.03C62.21 34.94 62.4 34.83 62.59 34.72C62.77 34.6 62.95 34.48 63.13 34.35C63.31 34.21 63.47 34.07 63.64 33.92C66.37 31.41 66.55 27.17 64.05 24.44Z" fill="#7A7979" fill-opacity="1.000000" fill-rule="nonzero"/>
</svg>
