<svg width="97.077148" height="96.245514" viewBox="0 0 97.0771 96.2455" fill="none" xmlns="http://www.w3.org/2000/svg" xmlns:xlink="http://www.w3.org/1999/xlink">
	<desc>
			Created with Pixso.
	</desc>
	<defs/>
	<path id="path" d="M69.33 95.89L9.41 81.26C9.02 81.16 8.63 81.05 8.25 80.91C7.87 80.78 7.49 80.63 7.13 80.46C6.76 80.29 6.4 80.1 6.05 79.89C5.71 79.69 5.37 79.46 5.04 79.23C4.72 78.99 4.4 78.73 4.1 78.46C3.8 78.19 3.51 77.91 3.24 77.61C2.97 77.31 2.71 77 2.47 76.68C2.22 76.36 2 76.02 1.79 75.68C1.58 75.33 1.39 74.98 1.21 74.61C1.04 74.25 0.88 73.88 0.74 73.5C0.6 73.12 0.48 72.73 0.38 72.34C0.28 71.95 0.2 71.55 0.14 71.15C0.08 70.75 0.04 70.35 0.01 69.95C-0.01 69.55 -0.01 69.14 0.01 68.74C0.02 68.33 0.06 67.93 0.12 67.53C0.17 67.13 0.25 66.74 0.35 66.34L12.82 15.25C12.92 14.86 13.03 14.47 13.17 14.09C13.3 13.71 13.45 13.34 13.62 12.97C13.79 12.6 13.98 12.25 14.19 11.9C14.39 11.55 14.61 11.21 14.85 10.89C15.09 10.56 15.35 10.25 15.62 9.95C15.89 9.65 16.17 9.36 16.47 9.09C16.77 8.81 17.08 8.55 17.4 8.31C17.72 8.07 18.06 7.84 18.4 7.63C18.75 7.42 19.1 7.23 19.47 7.06C19.83 6.88 20.2 6.72 20.58 6.59C20.96 6.45 21.35 6.33 21.74 6.23C22.13 6.13 22.53 6.04 22.93 5.98C23.33 5.92 23.73 5.88 24.13 5.86C24.53 5.84 24.94 5.83 25.34 5.85C25.75 5.87 26.15 5.9 26.55 5.96C26.95 6.02 27.34 6.09 27.74 6.19L87.66 20.82C88.05 20.92 88.44 21.03 88.82 21.17C89.2 21.3 89.57 21.45 89.94 21.62C90.31 21.79 90.66 21.98 91.01 22.19C91.36 22.39 91.7 22.61 92.02 22.85C92.35 23.09 92.66 23.35 92.96 23.62C93.27 23.89 93.55 24.17 93.83 24.47C94.1 24.77 94.36 25.08 94.6 25.4C94.84 25.72 95.07 26.06 95.28 26.4C95.49 26.75 95.68 27.1 95.86 27.47C96.03 27.83 96.19 28.2 96.33 28.58C96.46 28.96 96.58 29.35 96.68 29.74C96.78 30.13 96.87 30.53 96.93 30.93C96.99 31.33 97.03 31.73 97.05 32.13C97.08 32.53 97.08 32.94 97.06 33.34C97.04 33.75 97.01 34.15 96.95 34.55C96.89 34.95 96.82 35.34 96.72 35.74L84.25 86.83C84.15 87.22 84.04 87.61 83.9 87.99C83.77 88.37 83.62 88.74 83.45 89.11C83.27 89.48 83.09 89.83 82.88 90.18C82.67 90.53 82.45 90.87 82.21 91.19C81.97 91.52 81.72 91.83 81.45 92.13C81.18 92.43 80.9 92.72 80.6 92.99C80.3 93.27 79.99 93.53 79.67 93.77C79.35 94.01 79.01 94.24 78.67 94.45C78.32 94.66 77.97 94.85 77.6 95.02C77.24 95.2 76.86 95.36 76.48 95.49C76.1 95.63 75.72 95.75 75.33 95.85C74.94 95.95 74.54 96.03 74.14 96.1C73.74 96.16 73.34 96.2 72.94 96.22C72.53 96.24 72.13 96.25 71.73 96.23C71.32 96.21 70.92 96.17 70.52 96.12C70.12 96.06 69.72 95.98 69.33 95.89ZM26.12 12.81C25.77 12.73 25.41 12.68 25.05 12.66C24.69 12.65 24.32 12.67 23.97 12.72C23.61 12.78 23.26 12.87 22.92 12.99C22.58 13.12 22.25 13.27 21.94 13.46C21.63 13.65 21.34 13.86 21.08 14.11C20.81 14.35 20.57 14.62 20.35 14.92C20.14 15.21 19.96 15.52 19.8 15.85C19.65 16.18 19.53 16.52 19.44 16.87L6.97 67.96C6.88 68.31 6.83 68.67 6.82 69.03C6.8 69.39 6.82 69.75 6.88 70.11C6.93 70.47 7.02 70.82 7.15 71.16C7.27 71.5 7.43 71.83 7.62 72.14C7.8 72.45 8.02 72.74 8.27 73C8.51 73.27 8.78 73.51 9.07 73.73C9.37 73.94 9.68 74.12 10 74.28C10.33 74.43 10.67 74.55 11.03 74.64L70.95 89.26C71.3 89.35 71.66 89.4 72.02 89.42C72.38 89.43 72.74 89.41 73.1 89.36C73.46 89.3 73.81 89.21 74.15 89.09C74.49 88.96 74.82 88.81 75.13 88.62C75.44 88.43 75.72 88.21 75.99 87.97C76.26 87.72 76.5 87.46 76.71 87.16C76.93 86.87 77.11 86.56 77.26 86.23C77.42 85.9 77.54 85.56 77.62 85.21L90.1 34.12C90.18 33.77 90.23 33.41 90.25 33.05C90.26 32.69 90.24 32.32 90.19 31.97C90.13 31.61 90.04 31.26 89.92 30.92C89.8 30.58 89.64 30.25 89.45 29.94C89.26 29.63 89.05 29.34 88.8 29.08C88.56 28.81 88.29 28.57 87.99 28.35C87.7 28.14 87.39 27.96 87.06 27.8C86.73 27.65 86.39 27.53 86.04 27.44L26.12 12.81ZM35.7 22.17C35.48 22.12 35.27 22.04 35.07 21.95C34.86 21.86 34.67 21.74 34.49 21.61C34.31 21.48 34.14 21.33 33.99 21.16C33.84 21 33.71 20.82 33.59 20.63C33.47 20.44 33.38 20.24 33.3 20.03C33.23 19.82 33.17 19.6 33.14 19.38C33.1 19.16 33.09 18.94 33.1 18.71C33.11 18.49 33.14 18.27 33.19 18.05L36.97 2.6C37.02 2.38 37.09 2.17 37.19 1.96C37.28 1.76 37.4 1.57 37.53 1.39C37.66 1.21 37.81 1.04 37.97 0.89C38.14 0.74 38.32 0.61 38.51 0.49C38.7 0.37 38.9 0.28 39.11 0.2C39.32 0.12 39.54 0.07 39.76 0.03C39.98 0 40.2 -0.01 40.43 0C40.65 0.01 40.87 0.04 41.09 0.09C41.3 0.15 41.51 0.22 41.72 0.31C41.92 0.41 42.11 0.52 42.29 0.65C42.47 0.79 42.64 0.93 42.79 1.1C42.94 1.26 43.08 1.44 43.19 1.63C43.31 1.83 43.4 2.03 43.48 2.24C43.56 2.45 43.61 2.66 43.65 2.88C43.68 3.1 43.69 3.33 43.68 3.55C43.67 3.77 43.64 4 43.59 4.21L39.82 19.67C39.76 19.89 39.69 20.1 39.6 20.3C39.5 20.5 39.39 20.69 39.25 20.87C39.12 21.05 38.97 21.22 38.81 21.37C38.64 21.52 38.47 21.66 38.27 21.77C38.08 21.89 37.88 21.99 37.67 22.06C37.46 22.14 37.25 22.19 37.03 22.23C36.8 22.26 36.58 22.27 36.36 22.27C36.13 22.26 35.91 22.22 35.7 22.17ZM73.23 31.33C73.01 31.28 72.8 31.21 72.6 31.11C72.4 31.02 72.2 30.91 72.02 30.77C71.84 30.64 71.68 30.49 71.53 30.33C71.37 30.16 71.24 29.98 71.12 29.79C71.01 29.6 70.91 29.4 70.84 29.19C70.76 28.98 70.7 28.76 70.67 28.54C70.64 28.32 70.62 28.1 70.63 27.88C70.64 27.65 70.67 27.43 70.73 27.21L74.5 11.76C74.55 11.54 74.63 11.33 74.72 11.13C74.82 10.93 74.93 10.73 75.06 10.55C75.19 10.37 75.34 10.21 75.51 10.06C75.67 9.9 75.85 9.77 76.04 9.65C76.23 9.54 76.43 9.44 76.64 9.37C76.85 9.29 77.07 9.23 77.29 9.2C77.51 9.16 77.74 9.15 77.96 9.16C78.18 9.17 78.4 9.2 78.62 9.26C78.84 9.31 79.05 9.38 79.25 9.48C79.45 9.57 79.65 9.69 79.83 9.82C80.01 9.95 80.17 10.1 80.32 10.26C80.48 10.43 80.61 10.61 80.73 10.8C80.84 10.99 80.94 11.19 81.01 11.4C81.09 11.61 81.15 11.83 81.18 12.05C81.22 12.27 81.23 12.49 81.22 12.71C81.21 12.94 81.18 13.16 81.12 13.38L77.35 28.83C77.3 29.05 77.22 29.26 77.13 29.46C77.03 29.67 76.92 29.86 76.79 30.04C76.66 30.22 76.51 30.38 76.34 30.54C76.18 30.69 76 30.82 75.81 30.94C75.62 31.05 75.42 31.15 75.21 31.23C75 31.3 74.78 31.36 74.56 31.39C74.34 31.43 74.12 31.44 73.89 31.43C73.67 31.42 73.45 31.39 73.23 31.33Z" fill="#7A7979" fill-opacity="1.000000" fill-rule="nonzero"/>
</svg>
