<svg width="116.612366" height="121.483719" viewBox="0 0 116.612 121.484" fill="none" xmlns="http://www.w3.org/2000/svg" xmlns:xlink="http://www.w3.org/1999/xlink">
	<desc>
			Created with Pixso.
	</desc>
	<defs/>
	<path id="path" d="M111.6 64.62C111.54 64.57 66.77 44.73 66.77 44.73L56.55 26.34L62.68 22.93C62.92 22.8 63.13 22.64 63.32 22.46C68.3 18.81 69.9 11.94 66.82 6.4C63.74 0.86 57.06 -1.41 51.33 0.88C51.08 0.95 50.83 1.05 50.59 1.18L5.7 26.12C5.46 26.26 5.25 26.41 5.06 26.59C0.08 30.25 -1.51 37.12 1.56 42.66C4.64 48.2 11.32 50.47 17.06 48.17C17.31 48.11 17.55 48.01 17.79 47.88L23.92 44.47L35.16 64.7L27.7 109.39C27.53 110.14 27.29 111.88 27.29 111.88C27.24 113.5 27.62 115.16 28.46 116.68C30.96 121.18 36.65 122.81 41.15 120.3L111.85 81.02C112.02 80.92 112.19 80.8 112.34 80.68C116.43 78.05 117.83 72.66 115.44 68.35C114.52 66.69 113.17 65.43 111.6 64.62ZM108.65 75.67L38.13 114.87C36.63 115.7 35.18 115.36 34.34 113.86C33.64 112.6 33.84 111.73 34.04 110.02L70.45 89.78L67.43 84.35L34.98 102.38L35.95 94.73L64.41 78.91L61.39 73.47L37.72 86.62L39.04 78.77L58.36 68.03L55.34 62.59L40.35 70.92L41.67 63.07L52.32 57.16L49.3 51.72L38.42 57.76L35.4 52.32L46.28 46.28L43.26 40.84L32.38 46.88L29.36 41.45L40.24 35.4L37.21 29.96L15.46 42.05C12.46 43.72 8.67 42.64 7 39.64C5.33 36.63 6.41 32.85 9.42 31.18L52.92 7C55.92 5.33 59.71 6.41 61.38 9.42C63.05 12.42 61.97 16.21 58.96 17.88L49.22 23.29C48.81 24.17 48.81 25.22 49.31 26.13L61.69 48.39C61.74 48.48 61.79 48.56 61.84 48.64C62.1 49.1 62.47 49.51 62.96 49.8L100.6 66.43L105.74 68.71C108.2 69.79 109.12 70.11 109.86 71.44C110.69 72.95 110.15 74.84 108.65 75.67Z" fill="#7A7979" fill-opacity="1.000000" fill-rule="nonzero"/>
</svg>
