<svg width="138.622833" height="138.622833" viewBox="0 0 138.623 138.623" fill="none" xmlns="http://www.w3.org/2000/svg" xmlns:xlink="http://www.w3.org/1999/xlink">
	<desc>
			Created with Pixso.
	</desc>
	<defs>
		<clipPath id="clip4_34">
			<rect id="金融" width="100.000000" height="100.000000" transform="translate(55.314026 0.000000) rotate(33.582722)" fill="white" fill-opacity="0"/>
		</clipPath>
	</defs>
	<g clip-path="url(#clip4_34)">
		<path id="path" d="M44.16 107.17C43.54 106.76 42.93 106.34 42.34 105.9C41.74 105.45 41.15 105 40.57 104.53C40 104.06 39.43 103.57 38.88 103.08C38.33 102.58 37.79 102.07 37.26 101.54C36.73 101.02 36.22 100.48 35.72 99.93C35.21 99.38 34.73 98.82 34.25 98.25C33.78 97.67 33.32 97.09 32.88 96.49C32.43 95.89 32 95.29 31.59 94.67C31.17 94.05 30.77 93.43 30.39 92.79C30 92.15 29.63 91.51 29.28 90.85C28.93 90.2 28.59 89.53 28.27 88.86C27.95 88.19 27.65 87.51 27.36 86.82C27.08 86.14 26.81 85.44 26.55 84.74C26.3 84.04 26.07 83.34 25.85 82.63C25.63 81.92 25.43 81.2 25.25 80.48C25.06 79.76 24.9 79.03 24.75 78.3C24.6 77.58 24.47 76.84 24.36 76.11C24.25 75.37 24.16 74.63 24.08 73.89C24.01 73.15 23.95 72.41 23.91 71.67C23.87 70.93 23.85 70.18 23.85 69.44C23.85 68.7 23.87 67.95 23.9 67.21C23.93 66.47 23.99 65.72 24.06 64.98C24.13 64.24 24.22 63.5 24.32 62.77C24.43 62.03 24.56 61.3 24.7 60.57C24.84 59.84 25 59.11 25.18 58.39C25.36 57.67 25.56 56.95 25.77 56.24C25.98 55.53 26.22 54.82 26.46 54.12C26.71 53.42 26.98 52.72 27.26 52.03C27.54 51.35 27.84 50.67 28.16 49.99C28.48 49.32 28.81 48.65 29.16 48C29.51 47.34 29.87 46.69 30.25 46.05C30.63 45.41 31.03 44.78 31.44 44.16C31.85 43.54 32.28 42.93 32.72 42.34C33.16 41.74 33.62 41.15 34.09 40.57C34.56 40 35.04 39.43 35.54 38.88C36.04 38.33 36.55 37.79 37.07 37.26C37.6 36.73 38.13 36.22 38.68 35.72C39.23 35.21 39.79 34.73 40.37 34.25C40.94 33.78 41.53 33.32 42.12 32.88C42.72 32.43 43.33 32 43.94 31.59C44.56 31.17 45.19 30.77 45.82 30.39C46.46 30 47.11 29.63 47.76 29.28C48.42 28.93 49.08 28.59 49.75 28.27C50.42 27.95 51.1 27.65 51.79 27.36C52.48 27.08 53.17 26.81 53.87 26.55C54.57 26.3 55.27 26.07 55.98 25.85C56.7 25.63 57.41 25.43 58.13 25.25C58.85 25.06 59.58 24.9 60.31 24.75C61.04 24.6 61.77 24.47 62.51 24.36C63.24 24.25 63.98 24.16 64.72 24.08C65.46 24.01 66.2 23.95 66.94 23.91C67.69 23.87 68.43 23.85 69.17 23.85C69.92 23.85 70.66 23.87 71.4 23.9C72.15 23.93 72.89 23.99 73.63 24.06C74.37 24.13 75.11 24.22 75.84 24.32C76.58 24.43 77.31 24.56 78.04 24.7C78.77 24.84 79.5 25 80.22 25.18C80.94 25.36 81.66 25.56 82.37 25.77C83.09 25.98 83.79 26.22 84.49 26.46C85.2 26.71 85.89 26.98 86.58 27.26C87.27 27.54 87.95 27.84 88.62 28.16C89.29 28.48 89.96 28.81 90.62 29.16C91.27 29.51 91.92 29.87 92.56 30.25C93.2 30.63 93.83 31.03 94.45 31.44C95.07 31.85 95.68 32.28 96.28 32.72C96.88 33.16 97.46 33.62 98.04 34.09C98.62 34.56 99.18 35.04 99.73 35.54C100.29 36.04 100.83 36.55 101.35 37.07C101.88 37.6 102.4 38.13 102.9 38.68C103.4 39.23 103.89 39.79 104.36 40.37C104.83 40.94 105.29 41.53 105.74 42.12C106.18 42.72 106.61 43.33 107.03 43.94C107.44 44.56 107.84 45.19 108.23 45.82C108.61 46.46 108.98 47.11 109.33 47.76C109.68 48.42 110.02 49.08 110.34 49.75C110.66 50.42 110.96 51.1 111.25 51.79C111.54 52.48 111.81 53.17 112.06 53.87C112.31 54.57 112.55 55.27 112.77 55.98C112.98 56.7 113.18 57.41 113.37 58.13C113.55 58.85 113.71 59.58 113.86 60.31C114.01 61.04 114.14 61.77 114.25 62.51C114.36 63.24 114.45 63.98 114.53 64.72C114.6 65.46 114.66 66.2 114.7 66.94C114.74 67.69 114.76 68.43 114.76 69.17C114.76 69.92 114.75 70.66 114.71 71.4C114.68 72.15 114.63 72.89 114.56 73.63C114.48 74.37 114.4 75.11 114.29 75.84C114.18 76.58 114.06 77.31 113.91 78.04C113.77 78.77 113.61 79.5 113.43 80.22C113.25 80.94 113.06 81.66 112.84 82.37C112.63 83.09 112.4 83.79 112.15 84.49C111.9 85.2 111.63 85.89 111.35 86.58C111.07 87.27 110.77 87.95 110.45 88.62C110.14 89.29 109.81 89.96 109.46 90.62C109.11 91.27 108.74 91.92 108.36 92.56C107.98 93.2 107.59 93.83 107.17 94.45C106.76 95.07 106.34 95.68 105.9 96.28C105.45 96.88 105 97.46 104.53 98.04C104.06 98.62 103.57 99.18 103.08 99.73C102.58 100.29 102.07 100.83 101.54 101.35C101.02 101.88 100.48 102.4 99.93 102.9C99.38 103.4 98.82 103.89 98.25 104.36C97.67 104.83 97.09 105.29 96.49 105.74C95.89 106.18 95.29 106.61 94.67 107.03C94.05 107.44 93.43 107.84 92.79 108.23C92.15 108.61 91.51 108.98 90.85 109.33C90.2 109.68 89.53 110.02 88.86 110.34C88.19 110.66 87.51 110.96 86.82 111.25C86.14 111.54 85.44 111.81 84.74 112.06C84.04 112.31 83.34 112.55 82.63 112.77C81.92 112.98 81.2 113.18 80.48 113.37C79.76 113.55 79.03 113.71 78.3 113.86C77.58 114.01 76.84 114.14 76.11 114.25C75.37 114.36 74.63 114.45 73.89 114.53C73.15 114.6 72.41 114.66 71.67 114.7C70.93 114.74 70.18 114.76 69.44 114.76C68.7 114.76 67.95 114.75 67.21 114.71C66.47 114.68 65.72 114.63 64.98 114.56C64.24 114.48 63.5 114.4 62.77 114.29C62.03 114.18 61.3 114.06 60.57 113.91C59.84 113.77 59.11 113.61 58.39 113.43C57.67 113.25 56.95 113.06 56.24 112.84C55.53 112.63 54.82 112.4 54.12 112.15C53.42 111.9 52.72 111.63 52.03 111.35C51.35 111.07 50.67 110.77 49.99 110.45C49.32 110.14 48.65 109.81 48 109.46C47.34 109.11 46.69 108.74 46.05 108.36C45.41 107.98 44.78 107.59 44.16 107.17ZM90.68 37.12C90.15 36.77 89.62 36.43 89.07 36.11C88.53 35.79 87.98 35.48 87.42 35.18C86.86 34.88 86.3 34.6 85.72 34.33C85.15 34.06 84.57 33.81 83.99 33.57C83.4 33.33 82.81 33.1 82.22 32.89C81.62 32.68 81.02 32.48 80.41 32.3C79.81 32.12 79.2 31.95 78.58 31.8C77.97 31.65 77.35 31.51 76.73 31.39C76.11 31.27 75.49 31.16 74.86 31.07C74.24 30.98 73.61 30.91 72.98 30.85C72.35 30.79 71.72 30.74 71.09 30.71C70.46 30.68 69.83 30.67 69.19 30.67C68.56 30.67 67.93 30.69 67.3 30.72C66.67 30.76 66.04 30.8 65.41 30.87C64.78 30.93 64.15 31.01 63.53 31.11C62.9 31.2 62.28 31.31 61.66 31.43C61.04 31.56 60.42 31.7 59.81 31.86C59.2 32.01 58.59 32.18 57.98 32.37C57.38 32.55 56.78 32.75 56.18 32.97C55.59 33.18 55 33.41 54.42 33.65C53.83 33.9 53.26 34.16 52.69 34.43C52.11 34.7 51.55 34.99 50.99 35.29C50.44 35.59 49.89 35.9 49.35 36.23C48.81 36.55 48.27 36.89 47.75 37.24C47.22 37.6 46.71 37.96 46.2 38.34C45.69 38.72 45.2 39.11 44.71 39.51C44.22 39.91 43.74 40.33 43.28 40.75C42.81 41.18 42.35 41.62 41.91 42.07C41.46 42.51 41.03 42.97 40.6 43.44C40.18 43.91 39.77 44.39 39.37 44.88C38.97 45.37 38.58 45.87 38.21 46.38C37.83 46.89 37.47 47.41 37.12 47.94C36.77 48.46 36.43 49 36.11 49.54C35.79 50.08 35.48 50.63 35.18 51.19C34.88 51.75 34.6 52.32 34.33 52.89C34.06 53.46 33.81 54.04 33.57 54.63C33.33 55.21 33.1 55.8 32.89 56.4C32.68 56.99 32.48 57.59 32.3 58.2C32.12 58.8 31.95 59.41 31.8 60.03C31.65 60.64 31.51 61.26 31.39 61.88C31.27 62.5 31.16 63.12 31.07 63.75C30.98 64.37 30.91 65 30.85 65.63C30.79 66.26 30.74 66.89 30.71 67.52C30.68 68.15 30.67 68.79 30.67 69.42C30.67 70.05 30.69 70.68 30.72 71.31C30.76 71.95 30.8 72.58 30.87 73.21C30.93 73.83 31.01 74.46 31.11 75.09C31.2 75.71 31.31 76.33 31.43 76.95C31.56 77.57 31.7 78.19 31.86 78.8C32.01 79.42 32.18 80.03 32.37 80.63C32.55 81.23 32.75 81.83 32.97 82.43C33.18 83.02 33.41 83.61 33.65 84.2C33.9 84.78 34.16 85.36 34.43 85.93C34.7 86.5 34.99 87.06 35.29 87.62C35.59 88.18 35.9 88.72 36.23 89.27C36.55 89.81 36.89 90.34 37.24 90.87C37.6 91.39 37.96 91.91 38.34 92.41C38.72 92.92 39.11 93.42 39.51 93.9C39.91 94.39 40.33 94.87 40.75 95.34C41.18 95.8 41.62 96.26 42.07 96.71C42.51 97.15 42.97 97.59 43.44 98.01C43.91 98.43 44.39 98.84 44.88 99.24C45.37 99.64 45.87 100.03 46.38 100.41C46.89 100.78 47.41 101.14 47.94 101.49C48.46 101.84 49 102.18 49.54 102.5C50.08 102.83 50.63 103.14 51.19 103.43C51.75 103.73 52.32 104.01 52.89 104.28C53.46 104.55 54.04 104.81 54.63 105.05C55.21 105.29 55.8 105.51 56.4 105.72C56.99 105.93 57.59 106.13 58.2 106.31C58.8 106.49 59.41 106.66 60.03 106.81C60.64 106.96 61.26 107.1 61.88 107.22C62.5 107.34 63.12 107.45 63.75 107.54C64.37 107.63 65 107.71 65.63 107.77C66.26 107.83 66.89 107.87 67.52 107.9C68.16 107.93 68.79 107.94 69.42 107.94C70.05 107.94 70.68 107.92 71.31 107.89C71.95 107.86 72.58 107.81 73.21 107.75C73.83 107.68 74.46 107.6 75.09 107.51C75.71 107.41 76.33 107.3 76.95 107.18C77.57 107.05 78.19 106.91 78.8 106.76C79.42 106.6 80.03 106.43 80.63 106.25C81.23 106.06 81.83 105.86 82.43 105.65C83.02 105.43 83.61 105.2 84.2 104.96C84.78 104.72 85.36 104.46 85.93 104.19C86.5 103.91 87.06 103.63 87.62 103.33C88.18 103.03 88.72 102.71 89.27 102.39C89.81 102.06 90.34 101.72 90.87 101.37C91.39 101.02 91.91 100.65 92.41 100.27C92.92 99.89 93.42 99.5 93.9 99.1C94.39 98.7 94.87 98.28 95.34 97.86C95.8 97.43 96.26 97 96.71 96.55C97.15 96.1 97.59 95.64 98.01 95.17C98.43 94.7 98.84 94.22 99.24 93.73C99.64 93.24 100.03 92.74 100.41 92.23C100.78 91.72 101.14 91.2 101.49 90.68C101.84 90.15 102.18 89.62 102.5 89.07C102.83 88.53 103.14 87.98 103.43 87.42C103.73 86.86 104.01 86.3 104.28 85.72C104.55 85.15 104.81 84.57 105.05 83.99C105.29 83.4 105.51 82.81 105.72 82.22C105.93 81.62 106.13 81.02 106.31 80.41C106.49 79.81 106.66 79.2 106.81 78.58C106.96 77.97 107.1 77.35 107.22 76.73C107.34 76.11 107.45 75.49 107.54 74.86C107.63 74.24 107.71 73.61 107.77 72.98C107.83 72.35 107.87 71.72 107.9 71.09C107.93 70.46 107.94 69.83 107.94 69.19C107.94 68.56 107.92 67.93 107.89 67.3C107.86 66.67 107.81 66.04 107.75 65.41C107.68 64.78 107.6 64.15 107.51 63.53C107.41 62.9 107.3 62.28 107.18 61.66C107.05 61.04 106.91 60.42 106.76 59.81C106.6 59.2 106.43 58.59 106.25 57.98C106.06 57.38 105.86 56.78 105.65 56.18C105.43 55.59 105.2 55 104.96 54.42C104.72 53.83 104.46 53.26 104.19 52.69C103.91 52.11 103.63 51.55 103.33 50.99C103.03 50.44 102.71 49.89 102.39 49.35C102.06 48.81 101.72 48.27 101.37 47.75C101.02 47.22 100.65 46.71 100.27 46.2C99.89 45.69 99.5 45.2 99.1 44.71C98.7 44.22 98.28 43.74 97.86 43.28C97.43 42.81 97 42.35 96.55 41.91C96.1 41.46 95.64 41.03 95.17 40.6C94.7 40.18 94.22 39.77 93.73 39.37C93.24 38.97 92.74 38.58 92.23 38.21C91.72 37.83 91.2 37.47 90.68 37.12ZM46.58 66.55C46.32 66.36 46.08 66.14 45.88 65.88C45.67 65.63 45.51 65.35 45.38 65.04C45.26 64.74 45.18 64.42 45.15 64.1C45.12 63.77 45.13 63.45 45.19 63.12C45.26 62.8 45.36 62.49 45.51 62.2C45.66 61.91 45.85 61.65 46.08 61.41C46.3 61.17 46.56 60.97 46.84 60.81C47.12 60.64 47.43 60.52 47.74 60.45L63.5 57.27C63.7 57.22 63.91 57.2 64.12 57.2C64.33 57.2 64.53 57.22 64.74 57.25C64.94 57.29 65.14 57.34 65.34 57.41C65.53 57.49 65.72 57.58 65.9 57.68C66.08 57.79 66.25 57.91 66.4 58.05C66.56 58.19 66.7 58.34 66.83 58.51C66.96 58.67 67.07 58.85 67.16 59.03C67.26 59.22 67.34 59.41 67.4 59.61L71.67 73.6L90.57 69.78C90.79 69.74 91.01 69.71 91.23 69.71C91.46 69.71 91.68 69.73 91.9 69.77C92.12 69.82 92.33 69.88 92.54 69.96C92.75 70.05 92.95 70.15 93.13 70.28C93.32 70.4 93.49 70.54 93.65 70.7C93.81 70.86 93.95 71.03 94.08 71.22C94.2 71.4 94.3 71.6 94.39 71.81C94.48 72.02 94.54 72.23 94.58 72.45C94.63 72.67 94.65 72.89 94.65 73.11C94.65 73.34 94.62 73.56 94.58 73.78C94.54 73.99 94.47 74.21 94.39 74.41C94.3 74.62 94.2 74.82 94.07 75C93.95 75.19 93.81 75.36 93.65 75.52C93.5 75.68 93.32 75.82 93.14 75.94C92.95 76.07 92.76 76.18 92.55 76.26C92.35 76.35 92.14 76.42 91.92 76.46L69.86 80.92C69.66 80.96 69.45 80.98 69.25 80.98C69.04 80.98 68.83 80.96 68.63 80.92C68.42 80.89 68.22 80.83 68.03 80.76C67.83 80.69 67.64 80.6 67.47 80.49C67.29 80.38 67.12 80.26 66.96 80.12C66.81 79.98 66.67 79.83 66.54 79.67C66.41 79.51 66.3 79.33 66.2 79.15C66.1 78.96 66.03 78.77 65.96 78.57L61.92 64.4L49.32 66.95C48.86 67.08 48.39 67.11 47.91 67.04C47.43 66.97 46.99 66.81 46.58 66.55Z" fill="#7A7979" fill-opacity="1.000000" fill-rule="nonzero"/>
	</g>
</svg>
