<svg width="121.914368" height="112.066833" viewBox="0 0 121.914 112.067" fill="none" xmlns="http://www.w3.org/2000/svg" xmlns:xlink="http://www.w3.org/1999/xlink">
	<desc>
			Created with Pixso.
	</desc>
	<defs/>
	<path id="path" d="M105.96 68.24L121.91 41.89L85.28 27.41L82.2 32.5C78.92 30.51 68.27 24.06 61.8 20.15C54.62 15.8 52.47 0 52.47 0L43.95 2.09C43.95 2.09 45.9 7.44 48.87 13.1C45 13.19 39.92 13.55 36.36 14.65C27.02 17.53 21.74 26.53 19.75 29.92C19.6 30.17 0.15 62.37 0 62.63L5.35 65.86C5.5 65.6 24.98 33.36 25.14 33.09C26.95 30 31.19 22.79 38.2 20.62C41.99 19.45 48.82 19.28 52.58 19.32C54.35 21.88 56.28 24.06 58.26 25.26C60.81 26.8 64.08 28.78 67.31 30.73L65.93 33L44.8 32.14C42.38 31.75 39.85 32.83 38.5 35.06L9.59 82.82C7.81 85.76 8.57 89.86 11.5 91.63L43.89 111.24C46.82 113.01 50.81 111.79 52.59 108.85L81.5 61.09C82.71 59.09 82.66 56.68 81.58 54.79L81.63 54.75L71.08 36.33L72.55 33.91C75.35 35.6 77.72 37.04 78.99 37.81L76.15 42.5L105.96 68.24ZM56.92 89.72L45.76 82.96L55.4 67.04L66.56 73.79L56.92 89.72ZM69.77 68.49L53.31 58.52L37.24 85.06L53.7 95.02L47.28 105.64L14.89 86.03L40.81 43.23L40.8 43.22L43.79 38.28L43.79 38.36L65.55 39.24L76.2 57.84L76.19 57.87L69.77 68.49ZM87.89 35.16L112.73 44.98L104.44 58.68L84.23 41.22L87.89 35.16Z" fill="#7A7979" fill-opacity="1.000000" fill-rule="nonzero"/>
</svg>
