<svg width="137.546967" height="137.546967" viewBox="0 0 137.547 137.547" fill="none" xmlns="http://www.w3.org/2000/svg" xmlns:xlink="http://www.w3.org/1999/xlink">
	<desc>
			Created with Pixso.
	</desc>
	<defs>
		<clipPath id="clip4_32">
			<rect id="打招呼" width="100.000000" height="100.000000" transform="translate(0.000000 85.211487) rotate(-58.442444)" fill="white" fill-opacity="0"/>
		</clipPath>
	</defs>
	<g clip-path="url(#clip4_32)">
		<path id="path" d="M50.07 49.84C50.37 49.34 50.74 48.89 51.17 48.49C55.45 44.42 60.96 49.92 60.96 49.92C61.13 49.73 61.3 49.55 61.49 49.38C61.67 49.21 61.87 49.05 62.07 48.91C62.27 48.76 62.48 48.62 62.7 48.49C62.92 48.37 63.14 48.25 63.37 48.15C63.6 48.05 63.83 47.96 64.07 47.88C64.31 47.8 64.55 47.73 64.8 47.68C65.05 47.63 65.29 47.59 65.54 47.56C65.79 47.53 66.04 47.52 66.29 47.52C66.55 47.52 66.8 47.53 67.05 47.56C67.3 47.58 67.54 47.62 67.79 47.67C68.04 47.73 68.28 47.79 68.52 47.87C68.76 47.94 68.99 48.03 69.22 48.14C69.45 48.24 69.67 48.35 69.89 48.48C70.11 48.6 70.32 48.74 70.52 48.89C70.73 49.03 70.92 49.19 71.11 49.36C71.3 49.53 71.47 49.7 71.64 49.89L77.82 59.68C78.12 59.34 78.44 59.03 78.8 58.75C79.16 58.47 79.54 58.22 79.94 58.01C80.34 57.8 80.76 57.63 81.19 57.49C81.63 57.36 82.07 57.27 82.52 57.22C82.97 57.16 83.42 57.15 83.87 57.19C84.33 57.22 84.77 57.29 85.21 57.4C85.65 57.52 86.08 57.67 86.49 57.87C86.9 58.06 87.29 58.29 87.66 58.55C96.06 63.55 98.66 70.03 98.83 75.89C98.88 78.01 98.63 80.09 98.08 82.13C97.53 84.18 96.69 86.1 95.58 87.9C94.92 88.98 94.18 90 93.36 90.96C92.54 91.92 91.66 92.81 90.7 93.63C89.74 94.45 88.73 95.19 87.65 95.86C86.58 96.52 85.46 97.1 84.3 97.59C80.28 99.23 76.14 100.43 71.87 101.18C67.6 101.94 63.3 102.25 58.97 102.09C58.15 102.08 57.34 101.98 56.54 101.81C55.74 101.63 54.97 101.38 54.22 101.04C53.47 100.71 52.76 100.3 52.1 99.83C51.43 99.35 50.82 98.81 50.26 98.21C50 97.91 49.78 97.58 49.62 97.22C49.46 96.85 49.36 96.47 49.33 96.08C49.29 95.68 49.31 95.29 49.39 94.9C49.48 94.51 49.62 94.15 49.82 93.8C51.45 91.15 56.66 89.61 61.07 88.95C61.61 88.86 62.11 88.66 62.57 88.36C63.03 88.05 63.4 87.67 63.69 87.2C63.85 86.94 63.98 86.66 64.07 86.36C64.16 86.07 64.22 85.77 64.23 85.46C64.24 85.15 64.21 84.84 64.14 84.54C64.07 84.24 63.97 83.95 63.82 83.68L50 57.24C49.69 56.66 49.46 56.06 49.3 55.42C49.15 54.78 49.08 54.13 49.09 53.48C49.1 52.82 49.19 52.18 49.37 51.54C49.54 50.91 49.8 50.31 50.13 49.74L50.07 49.84ZM44.32 46.18C44 46.71 43.71 47.26 43.46 47.83C43.21 48.41 43 48.99 42.83 49.59C42.65 50.19 42.52 50.79 42.42 51.41C42.33 52.03 42.27 52.65 42.26 53.27C42.24 53.89 42.27 54.51 42.34 55.13C42.4 55.75 42.51 56.37 42.65 56.97C42.8 57.58 42.98 58.17 43.2 58.75C43.42 59.34 43.68 59.9 43.98 60.45L55.83 82.93C51.22 84.1 46.44 86.23 44.05 90.13C43.78 90.58 43.54 91.05 43.34 91.54C43.15 92.03 42.98 92.53 42.86 93.04C42.73 93.56 42.65 94.08 42.6 94.6C42.55 95.13 42.54 95.65 42.57 96.18C42.61 96.71 42.67 97.23 42.78 97.75C42.89 98.26 43.04 98.77 43.22 99.26C43.41 99.76 43.63 100.24 43.88 100.7C44.14 101.16 44.42 101.6 44.74 102.02L44.96 102.32L45.21 102.6C46.08 103.55 47.02 104.41 48.06 105.17C49.1 105.92 50.2 106.57 51.37 107.1C52.53 107.64 53.74 108.05 54.99 108.33C56.24 108.62 57.51 108.78 58.79 108.81C63.59 108.99 68.36 108.66 73.09 107.83C77.82 107 82.41 105.69 86.86 103.89C88.36 103.26 89.8 102.52 91.18 101.67C92.56 100.82 93.87 99.87 95.1 98.82C96.33 97.76 97.48 96.62 98.53 95.39C99.59 94.16 100.54 92.85 101.39 91.47C102.13 90.3 102.78 89.07 103.34 87.8C103.9 86.53 104.37 85.22 104.74 83.88C105.11 82.54 105.38 81.19 105.56 79.81C105.73 78.43 105.8 77.04 105.77 75.65C105.6 68.99 102.92 59.58 91.29 52.65C90.48 52.12 89.64 51.69 88.75 51.33C87.86 50.98 86.94 50.72 86 50.55C85.06 50.38 84.11 50.3 83.16 50.32C82.2 50.34 81.25 50.45 80.32 50.66L77.36 46.18L77.04 45.66L76.62 45.21C75.97 44.53 75.27 43.92 74.5 43.38C73.74 42.83 72.93 42.36 72.08 41.97C71.22 41.58 70.34 41.27 69.43 41.05C68.52 40.82 67.59 40.69 66.66 40.64C64.73 40.6 62.88 40.96 61.11 41.72C60.54 41.4 59.95 41.14 59.33 40.92C58.71 40.7 58.09 40.54 57.44 40.42C56.8 40.3 56.16 40.23 55.5 40.21C54.85 40.19 54.2 40.23 53.56 40.31C52.91 40.4 52.27 40.53 51.65 40.72C51.02 40.9 50.41 41.13 49.82 41.41C49.23 41.69 48.67 42.02 48.13 42.39C47.59 42.75 47.09 43.16 46.61 43.61C45.76 44.43 45.02 45.33 44.41 46.34L44.32 46.18ZM74.96 19.6L71.3 25.57C71.59 25.72 71.87 25.89 72.13 26.08C73.6 26.99 74.98 28.03 76.25 29.2C77.53 30.37 78.68 31.65 79.7 33.05C80.73 34.44 81.62 35.92 82.36 37.49C83.1 39.05 83.69 40.67 84.12 42.35L90.57 41.27C90.13 38.73 89.39 36.28 88.33 33.92C88.26 33.72 88.16 33.53 88.04 33.35C86.64 30.62 84.9 28.14 82.82 25.89C80.74 23.65 78.4 21.72 75.79 20.11C75.53 19.92 75.25 19.75 74.96 19.6ZM23.29 60.92C23.81 62.9 24.5 64.81 25.37 66.66C26.24 68.52 27.27 70.27 28.46 71.94C29.65 73.6 30.99 75.14 32.46 76.56C33.93 77.98 35.52 79.26 37.23 80.39L40.89 74.42C39.41 73.42 38.04 72.28 36.78 71.01C35.53 69.74 34.41 68.35 33.43 66.86C32.45 65.36 31.62 63.78 30.95 62.12C30.28 60.47 29.79 58.76 29.46 57L22.87 59.04C22.96 59.67 23.1 60.3 23.29 60.92Z" fill="#7A7979" fill-opacity="1.000000" fill-rule="nonzero"/>
	</g>
</svg>
