<svg width="133.138733" height="133.138718" viewBox="0 0 133.139 133.139" fill="none" xmlns="http://www.w3.org/2000/svg" xmlns:xlink="http://www.w3.org/1999/xlink">
	<desc>
			Created with Pixso.
	</desc>
	<defs>
		<clipPath id="clip4_40">
			<rect id="喜欢" width="100.000000" height="100.000000" transform="translate(42.725708 0.000000) rotate(25.293604)" fill="white" fill-opacity="0"/>
		</clipPath>
	</defs>
	<g clip-path="url(#clip4_40)">
		<path id="path" d="M51.63 103.5C51 103.2 50.44 102.81 49.94 102.32C46.48 98.5 43.35 94.43 40.56 90.09C37.77 85.75 35.36 81.21 33.33 76.47C30.75 70.86 28.87 65.03 27.67 58.97C27.06 56.1 26.81 53.21 26.91 50.28C27.02 47.35 27.48 44.48 28.3 41.67C28.57 40.75 28.89 39.85 29.27 38.97C29.64 38.09 30.07 37.23 30.54 36.4C31.01 35.56 31.53 34.76 32.1 33.99C32.67 33.22 33.27 32.48 33.93 31.78C34.58 31.07 35.27 30.41 36 29.79C36.73 29.17 37.49 28.59 38.29 28.06C39.08 27.53 39.91 27.04 40.76 26.61C41.61 26.17 42.49 25.78 43.39 25.45C44.82 24.93 46.29 24.54 47.79 24.26C49.29 23.99 50.81 23.84 52.33 23.8C53.86 23.77 55.37 23.86 56.88 24.08C58.39 24.29 59.88 24.63 61.33 25.08C63.29 25.74 65.13 26.65 66.84 27.81C68.56 28.96 70.09 30.32 71.44 31.89C72.59 33.14 73.64 34.47 74.58 35.89C76.17 35.28 77.81 34.78 79.47 34.41C81.49 33.92 83.53 33.7 85.6 33.74C87.67 33.79 89.69 34.11 91.68 34.69C93.13 35.17 94.53 35.75 95.88 36.45C97.23 37.15 98.51 37.96 99.73 38.87C100.95 39.78 102.09 40.78 103.15 41.88C104.2 42.97 105.16 44.14 106.03 45.4C106.56 46.2 107.05 47.02 107.49 47.88C107.93 48.74 108.31 49.62 108.65 50.52C108.98 51.42 109.26 52.34 109.48 53.28C109.71 54.21 109.87 55.16 109.99 56.12C110.1 57.07 110.16 58.03 110.15 58.99C110.15 59.96 110.09 60.91 109.98 61.87C109.86 62.82 109.69 63.77 109.47 64.71C109.24 65.64 108.96 66.56 108.62 67.46C107.79 69.81 106.71 72.04 105.37 74.14C104.04 76.25 102.48 78.18 100.72 79.94C100.15 80.55 99.54 81.14 98.93 81.76L94.22 76.82C94.77 76.3 95.3 75.77 95.79 75.25C97.2 73.85 98.44 72.32 99.51 70.65C100.58 68.98 101.46 67.22 102.15 65.36C102.4 64.7 102.61 64.03 102.79 63.35C102.96 62.67 103.09 61.98 103.18 61.28C103.27 60.58 103.32 59.88 103.32 59.18C103.33 58.47 103.29 57.77 103.22 57.07C103.14 56.37 103.02 55.68 102.86 54.99C102.71 54.31 102.51 53.63 102.27 52.97C102.03 52.31 101.75 51.67 101.44 51.04C101.12 50.41 100.77 49.8 100.38 49.21C99.73 48.28 99 47.4 98.21 46.58C97.42 45.76 96.56 45.01 95.65 44.33C94.73 43.65 93.77 43.04 92.76 42.52C91.75 41.99 90.7 41.54 89.62 41.19C88.19 40.78 86.74 40.56 85.26 40.54C83.79 40.51 82.33 40.68 80.89 41.03C78.75 41.52 76.68 42.21 74.68 43.12L71.75 44.53L70.22 41.7C69.17 39.77 67.91 37.98 66.44 36.34C65.5 35.22 64.42 34.25 63.22 33.42C62.01 32.59 60.71 31.93 59.33 31.45C58.23 31.11 57.11 30.86 55.97 30.7C54.83 30.55 53.68 30.48 52.53 30.51C51.38 30.54 50.24 30.66 49.11 30.88C47.98 31.09 46.88 31.39 45.8 31.79C45.13 32.04 44.48 32.33 43.84 32.66C43.21 32.99 42.6 33.35 42.01 33.75C41.42 34.15 40.85 34.59 40.32 35.05C39.78 35.52 39.27 36.02 38.79 36.55C38.31 37.07 37.86 37.63 37.45 38.21C37.04 38.79 36.66 39.4 36.32 40.02C35.98 40.65 35.67 41.29 35.41 41.95C35.14 42.62 34.92 43.29 34.73 43.98C34.09 46.24 33.74 48.55 33.68 50.89C33.62 53.24 33.84 55.56 34.36 57.85C35.45 63.38 37.18 68.7 39.53 73.82C41.39 78.17 43.59 82.34 46.14 86.32C48.69 90.3 51.54 94.05 54.71 97.56L54.15 97.3L55.19 103.92C54.25 104.07 53.32 103.99 52.4 103.71L51.63 103.5ZM53.68 104.47L53.5 104.38C52.78 104.02 52.17 103.53 51.68 102.89C51.2 102.26 50.87 101.55 50.7 100.77C49.64 93.73 49.72 86.7 50.97 79.68C51.58 75.49 52.66 71.43 54.21 67.49C54.94 65.59 55.88 63.81 57.05 62.15C58.21 60.48 59.55 58.98 61.08 57.64C61.59 57.19 62.13 56.77 62.69 56.38C63.25 56 63.83 55.65 64.43 55.33C65.04 55.01 65.66 54.74 66.3 54.5C66.93 54.25 67.58 54.05 68.24 53.89C68.9 53.73 69.57 53.6 70.25 53.52C70.92 53.44 71.6 53.4 72.28 53.4C72.97 53.4 73.64 53.44 74.32 53.52C75 53.6 75.67 53.72 76.33 53.88C77.36 54.15 78.37 54.51 79.35 54.94C80.33 55.38 81.26 55.89 82.16 56.47C83.06 57.06 83.9 57.71 84.69 58.43C85.48 59.16 86.21 59.94 86.87 60.78C87.76 61.96 88.48 63.24 89.03 64.61C89.59 65.99 89.95 67.41 90.13 68.88C90.27 69.75 90.36 70.63 90.39 71.52C91.24 71.75 92.07 72.03 92.88 72.36C94.26 72.88 95.55 73.57 96.75 74.44C97.94 75.3 99 76.31 99.93 77.45C100.58 78.32 101.16 79.22 101.67 80.18C102.18 81.13 102.61 82.12 102.97 83.14C103.32 84.16 103.59 85.2 103.78 86.26C103.97 87.33 104.08 88.4 104.1 89.48C104.11 90.17 104.08 90.86 104 91.54C103.93 92.23 103.82 92.9 103.67 93.58C103.52 94.25 103.33 94.91 103.1 95.56C102.87 96.21 102.6 96.84 102.3 97.46C101.99 98.08 101.65 98.68 101.28 99.25C100.9 99.83 100.5 100.39 100.06 100.92C99.62 101.45 99.15 101.95 98.65 102.42C98.15 102.9 97.63 103.34 97.08 103.76C95.47 104.98 93.73 105.98 91.87 106.77C90.01 107.55 88.08 108.09 86.09 108.39C81.98 109.09 77.84 109.27 73.69 108.94C70.25 108.76 66.85 108.3 63.5 107.55C60.14 106.79 56.87 105.77 53.68 104.47ZM76.78 61.34C76.08 61.01 75.37 60.76 74.63 60.57C73.81 60.38 72.99 60.29 72.15 60.3C71.31 60.31 70.49 60.42 69.68 60.63C68.87 60.84 68.1 61.15 67.36 61.55C66.63 61.95 65.95 62.43 65.34 62.99C64.24 63.98 63.28 65.08 62.46 66.29C61.63 67.51 60.96 68.81 60.45 70.19C59.08 73.62 58.13 77.17 57.59 80.82C56.57 86.74 56.42 92.67 57.12 98.63C62.63 100.63 68.31 101.79 74.16 102.08C77.76 102.37 81.33 102.22 84.89 101.62C86.32 101.42 87.71 101.05 89.05 100.51C90.39 99.97 91.64 99.27 92.81 98.42C93.5 97.91 94.12 97.32 94.68 96.67C95.23 96.01 95.7 95.29 96.09 94.53C96.48 93.76 96.77 92.95 96.97 92.12C97.17 91.28 97.27 90.43 97.27 89.57C97.24 88.16 96.99 86.78 96.54 85.45C96.08 84.11 95.43 82.88 94.58 81.74C93.46 80.38 92.06 79.39 90.4 78.78C89.12 78.27 87.8 77.91 86.43 77.71L83.25 77.27L83.51 74.07C83.64 72.66 83.61 71.27 83.4 69.87C83.21 68.07 82.58 66.44 81.51 64.98C80.22 63.4 78.64 62.18 76.78 61.34Z" fill="#7A7979" fill-opacity="1.000000" fill-rule="nonzero"/>
	</g>
</svg>
