<svg width="100.000000" height="100.000000" viewBox="0 0 100 100" fill="none" xmlns="http://www.w3.org/2000/svg" xmlns:xlink="http://www.w3.org/1999/xlink">
	<desc>
			Created with Pixso.
	</desc>
	<defs>
		<clipPath id="clip4_28">
			<rect id="消息" width="100.000000" height="100.000000" fill="white" fill-opacity="0"/>
		</clipPath>
	</defs>
	<g clip-path="url(#clip4_28)">
		<path id="path" d="M80.65 88.63L37.47 88.63C36.97 88.63 36.47 88.62 35.97 88.59C35.47 88.57 34.97 88.53 34.47 88.48C33.97 88.43 33.47 88.36 32.97 88.29C32.48 88.22 31.98 88.13 31.49 88.03C31 87.93 30.51 87.82 30.03 87.7C29.54 87.58 29.06 87.44 28.58 87.29C28.1 87.15 27.62 86.99 27.15 86.82C26.68 86.65 26.21 86.47 25.74 86.28C25.28 86.08 24.82 85.88 24.37 85.67C23.92 85.45 23.47 85.22 23.03 84.99C22.58 84.75 22.15 84.5 21.72 84.24C21.29 83.99 20.86 83.72 20.45 83.44C20.03 83.16 19.62 82.87 19.22 82.57C18.82 82.27 18.42 81.96 18.03 81.65C17.65 81.33 17.27 81 16.89 80.66C16.52 80.32 16.16 79.98 15.8 79.62C15.45 79.27 15.1 78.91 14.77 78.53C14.43 78.16 14.1 77.78 13.79 77.39C13.47 77.01 13.16 76.61 12.86 76.21C12.56 75.8 12.27 75.39 11.99 74.98C11.71 74.56 11.45 74.14 11.19 73.71C10.93 73.28 10.68 72.84 10.45 72.4C10.21 71.96 9.98 71.51 9.77 71.05C9.55 70.6 9.35 70.14 9.16 69.68C8.97 69.22 8.79 68.75 8.62 68.28C8.45 67.8 8.29 67.33 8.14 66.85C8 66.37 7.86 65.88 7.74 65.4C7.62 64.91 7.51 64.42 7.41 63.93C7.31 63.44 7.23 62.94 7.15 62.45C7.08 61.95 7.01 61.45 6.96 60.95C6.92 60.45 6.88 59.95 6.85 59.45C6.83 58.95 6.81 58.45 6.81 57.95L6.81 42.04C6.81 41.54 6.83 41.04 6.85 40.54C6.88 40.03 6.92 39.53 6.97 39.03C7.01 38.54 7.08 38.04 7.15 37.54C7.23 37.04 7.31 36.55 7.41 36.06C7.51 35.57 7.62 35.08 7.74 34.59C7.86 34.1 8 33.62 8.14 33.14C8.29 32.66 8.45 32.18 8.62 31.71C8.79 31.24 8.97 30.77 9.16 30.31C9.35 29.84 9.56 29.38 9.77 28.93C9.99 28.48 10.21 28.03 10.45 27.59C10.69 27.14 10.93 26.71 11.19 26.28C11.45 25.85 11.72 25.42 12 25.01C12.28 24.59 12.57 24.18 12.87 23.77C13.16 23.37 13.47 22.98 13.79 22.59C14.11 22.2 14.44 21.82 14.77 21.45C15.11 21.08 15.46 20.71 15.81 20.36C16.17 20 16.53 19.66 16.9 19.32C17.28 18.98 17.65 18.66 18.04 18.34C18.43 18.02 18.83 17.71 19.23 17.41C19.63 17.11 20.04 16.82 20.46 16.54C20.88 16.26 21.3 16 21.73 15.74C22.16 15.48 22.6 15.23 23.04 14.99C23.48 14.76 23.93 14.53 24.38 14.32C24.84 14.1 25.3 13.9 25.76 13.71C26.22 13.51 26.69 13.33 27.16 13.16C27.64 12.99 28.11 12.84 28.59 12.69C29.07 12.54 29.56 12.41 30.04 12.29C30.53 12.16 31.02 12.05 31.51 11.96C32 11.86 32.5 11.77 33 11.7C33.49 11.62 33.99 11.56 34.49 11.51C34.99 11.46 35.49 11.42 35.99 11.4C36.49 11.37 36.99 11.36 37.5 11.36L62.5 11.36C63 11.36 63.5 11.37 64 11.4C64.5 11.42 65 11.46 65.5 11.51C66 11.56 66.5 11.62 66.99 11.7C67.49 11.77 67.99 11.86 68.48 11.96C68.97 12.05 69.46 12.16 69.95 12.29C70.43 12.41 70.92 12.54 71.4 12.69C71.88 12.84 72.35 12.99 72.83 13.16C73.3 13.33 73.77 13.51 74.23 13.71C74.69 13.9 75.15 14.1 75.61 14.32C76.06 14.53 76.51 14.76 76.95 14.99C77.39 15.23 77.83 15.48 78.26 15.74C78.69 16 79.11 16.26 79.53 16.54C79.95 16.82 80.36 17.11 80.76 17.41C81.16 17.71 81.56 18.02 81.95 18.34C82.34 18.66 82.72 18.98 83.09 19.32C83.46 19.66 83.82 20 84.18 20.36C84.53 20.71 84.88 21.08 85.22 21.45C85.55 21.82 85.88 22.2 86.2 22.59C86.52 22.98 86.83 23.37 87.12 23.77C87.42 24.18 87.71 24.59 87.99 25.01C88.27 25.42 88.54 25.85 88.8 26.28C89.06 26.71 89.3 27.14 89.54 27.59C89.78 28.03 90 28.48 90.22 28.93C90.43 29.38 90.64 29.84 90.83 30.31C91.02 30.77 91.2 31.24 91.37 31.71C91.54 32.18 91.7 32.66 91.85 33.14C91.99 33.62 92.13 34.1 92.25 34.59C92.37 35.08 92.48 35.57 92.58 36.06C92.68 36.55 92.76 37.04 92.84 37.54C92.91 38.04 92.98 38.54 93.03 39.03C93.07 39.53 93.11 40.03 93.14 40.54C93.16 41.04 93.18 41.54 93.18 42.04L93.18 76.13C93.18 76.54 93.16 76.95 93.11 77.36C93.07 77.76 93.01 78.17 92.93 78.57C92.85 78.97 92.75 79.37 92.63 79.76C92.51 80.15 92.37 80.54 92.22 80.92C92.06 81.29 91.88 81.66 91.69 82.03C91.5 82.39 91.29 82.74 91.06 83.08C90.83 83.42 90.59 83.75 90.33 84.06C90.07 84.38 89.79 84.68 89.5 84.97C89.21 85.26 88.91 85.54 88.59 85.8C88.27 86.05 87.95 86.3 87.6 86.53C87.26 86.75 86.91 86.96 86.55 87.16C86.19 87.35 85.82 87.52 85.44 87.68C85.06 87.84 84.68 87.97 84.29 88.09C83.89 88.21 83.5 88.31 83.09 88.39C82.69 88.47 82.29 88.53 81.88 88.57C81.47 88.61 81.06 88.63 80.65 88.63ZM37.5 18.18C36.71 18.18 35.93 18.22 35.16 18.29C34.38 18.37 33.61 18.49 32.84 18.64C32.07 18.79 31.32 18.98 30.57 19.21C29.82 19.44 29.09 19.7 28.37 20C27.64 20.3 26.94 20.63 26.25 21C25.56 21.37 24.89 21.77 24.24 22.21C23.59 22.64 22.97 23.1 22.36 23.6C21.76 24.1 21.18 24.62 20.63 25.17C20.08 25.73 19.55 26.3 19.06 26.91C18.56 27.51 18.09 28.14 17.66 28.79C17.23 29.44 16.82 30.11 16.46 30.8C16.09 31.48 15.75 32.19 15.45 32.91C15.15 33.63 14.89 34.37 14.66 35.12C14.44 35.86 14.25 36.62 14.09 37.39C13.94 38.15 13.83 38.92 13.75 39.7C13.67 40.48 13.63 41.26 13.63 42.04L13.63 57.95C13.63 58.73 13.67 59.51 13.75 60.29C13.83 61.07 13.94 61.84 14.09 62.6C14.25 63.37 14.44 64.13 14.66 64.87C14.89 65.62 15.15 66.36 15.45 67.08C15.75 67.8 16.09 68.51 16.46 69.19C16.82 69.88 17.23 70.55 17.66 71.2C18.09 71.85 18.56 72.48 19.06 73.08C19.55 73.69 20.08 74.26 20.63 74.82C21.18 75.37 21.76 75.89 22.36 76.39C22.97 76.89 23.59 77.35 24.24 77.78C24.89 78.22 25.56 78.62 26.25 78.99C26.94 79.36 27.64 79.69 28.37 79.99C29.09 80.29 29.82 80.55 30.57 80.78C31.32 81.01 32.07 81.2 32.84 81.35C33.61 81.5 34.38 81.62 35.16 81.7C35.93 81.77 36.71 81.81 37.5 81.81L80.68 81.81C81.05 81.81 81.42 81.77 81.78 81.7C82.15 81.62 82.51 81.51 82.85 81.37C83.19 81.22 83.52 81.05 83.83 80.84C84.14 80.63 84.43 80.39 84.69 80.13C84.95 79.86 85.19 79.58 85.4 79.27C85.6 78.96 85.78 78.63 85.92 78.28C86.06 77.94 86.17 77.58 86.25 77.22C86.32 76.85 86.36 76.48 86.36 76.11L86.36 42.02C86.36 41.24 86.32 40.46 86.24 39.68C86.16 38.9 86.05 38.13 85.89 37.37C85.74 36.6 85.55 35.84 85.32 35.1C85.09 34.35 84.83 33.62 84.53 32.9C84.23 32.17 83.9 31.47 83.53 30.78C83.16 30.09 82.76 29.43 82.32 28.78C81.89 28.13 81.42 27.5 80.93 26.9C80.43 26.29 79.91 25.72 79.35 25.16C78.8 24.61 78.22 24.09 77.62 23.59C77.02 23.1 76.39 22.63 75.74 22.2C75.09 21.77 74.42 21.37 73.73 21C73.04 20.63 72.34 20.3 71.62 20C70.9 19.7 70.16 19.44 69.42 19.21C68.67 18.98 67.91 18.79 67.15 18.64C66.38 18.49 65.61 18.37 64.83 18.29C64.05 18.22 63.28 18.18 62.5 18.18L37.5 18.18ZM28.95 49.2C28.95 49.44 28.96 49.67 28.98 49.91C29 50.15 29.03 50.38 29.07 50.61C29.1 50.85 29.15 51.08 29.21 51.3C29.27 51.53 29.33 51.75 29.41 51.97C29.49 52.19 29.57 52.41 29.66 52.62C29.76 52.83 29.86 53.03 29.97 53.23C30.08 53.42 30.2 53.62 30.32 53.8C30.45 53.98 30.58 54.16 30.72 54.33C30.86 54.49 31.01 54.65 31.16 54.8C31.31 54.95 31.47 55.1 31.64 55.23C31.8 55.36 31.97 55.48 32.15 55.59C32.32 55.71 32.5 55.81 32.68 55.9C32.86 55.99 33.05 56.07 33.24 56.14C33.43 56.21 33.62 56.26 33.82 56.31C34.01 56.36 34.21 56.39 34.4 56.41C34.6 56.44 34.8 56.45 35 56.45C35.19 56.45 35.39 56.44 35.59 56.41C35.78 56.39 35.98 56.36 36.17 56.31C36.37 56.26 36.56 56.21 36.75 56.14C36.94 56.07 37.13 55.99 37.31 55.9C37.49 55.81 37.67 55.71 37.84 55.59C38.02 55.48 38.19 55.36 38.35 55.23C38.52 55.1 38.68 54.95 38.83 54.8C38.98 54.65 39.13 54.49 39.27 54.33C39.41 54.16 39.54 53.98 39.67 53.8C39.79 53.62 39.91 53.42 40.02 53.23C40.13 53.03 40.23 52.83 40.33 52.62C40.42 52.41 40.5 52.19 40.58 51.97C40.66 51.75 40.72 51.53 40.78 51.3C40.84 51.08 40.89 50.85 40.92 50.61C40.96 50.38 40.99 50.15 41.01 49.91C41.03 49.67 41.04 49.44 41.04 49.2C41.04 48.96 41.03 48.73 41.01 48.49C40.99 48.25 40.96 48.02 40.92 47.79C40.89 47.55 40.84 47.32 40.78 47.1C40.72 46.87 40.66 46.64 40.58 46.43C40.5 46.21 40.42 45.99 40.33 45.78C40.23 45.57 40.13 45.37 40.02 45.17C39.91 44.97 39.79 44.78 39.67 44.6C39.54 44.42 39.41 44.24 39.27 44.07C39.13 43.91 38.98 43.75 38.83 43.6C38.68 43.44 38.52 43.3 38.35 43.17C38.19 43.04 38.02 42.92 37.84 42.81C37.67 42.69 37.49 42.59 37.31 42.5C37.13 42.41 36.94 42.33 36.75 42.26C36.56 42.19 36.37 42.14 36.17 42.09C35.98 42.04 35.78 42.01 35.59 41.98C35.39 41.96 35.19 41.95 35 41.95C34.8 41.95 34.6 41.96 34.4 41.98C34.21 42.01 34.01 42.04 33.82 42.09C33.62 42.14 33.43 42.19 33.24 42.26C33.05 42.33 32.86 42.41 32.68 42.5C32.5 42.59 32.32 42.69 32.15 42.81C31.97 42.92 31.8 43.04 31.64 43.17C31.47 43.3 31.31 43.44 31.16 43.6C31.01 43.75 30.86 43.91 30.72 44.07C30.58 44.24 30.45 44.42 30.32 44.6C30.2 44.78 30.08 44.97 29.97 45.17C29.86 45.37 29.76 45.57 29.66 45.78C29.57 45.99 29.49 46.21 29.41 46.43C29.33 46.64 29.27 46.87 29.21 47.1C29.15 47.32 29.1 47.55 29.07 47.79C29.03 48.02 29 48.25 28.98 48.49C28.96 48.73 28.95 48.96 28.95 49.2ZM59.65 48.88C59.65 49.12 59.66 49.36 59.68 49.59C59.7 49.83 59.73 50.06 59.77 50.3C59.81 50.53 59.86 50.76 59.91 50.99C59.97 51.21 60.04 51.44 60.11 51.66C60.19 51.88 60.27 52.09 60.37 52.3C60.46 52.51 60.56 52.71 60.67 52.91C60.78 53.11 60.9 53.3 61.03 53.48C61.15 53.66 61.28 53.84 61.42 54.01C61.56 54.18 61.71 54.34 61.86 54.49C62.02 54.64 62.18 54.78 62.34 54.91C62.51 55.04 62.68 55.16 62.85 55.28C63.02 55.39 63.2 55.49 63.39 55.58C63.57 55.67 63.76 55.75 63.94 55.82C64.13 55.89 64.33 55.95 64.52 55.99C64.71 56.04 64.91 56.07 65.11 56.1C65.3 56.12 65.5 56.13 65.7 56.13C65.9 56.13 66.1 56.12 66.29 56.1C66.49 56.07 66.68 56.04 66.88 55.99C67.07 55.95 67.26 55.89 67.45 55.82C67.64 55.75 67.83 55.67 68.01 55.58C68.2 55.49 68.37 55.39 68.55 55.28C68.72 55.16 68.89 55.04 69.06 54.91C69.22 54.78 69.38 54.64 69.53 54.49C69.69 54.34 69.83 54.18 69.97 54.01C70.11 53.84 70.25 53.66 70.37 53.48C70.5 53.3 70.62 53.11 70.73 52.91C70.84 52.71 70.94 52.51 71.03 52.3C71.12 52.09 71.21 51.88 71.28 51.66C71.36 51.44 71.43 51.21 71.48 50.99C71.54 50.76 71.59 50.53 71.63 50.3C71.67 50.06 71.7 49.83 71.72 49.59C71.74 49.36 71.75 49.12 71.75 48.88C71.75 48.64 71.74 48.41 71.72 48.17C71.7 47.93 71.67 47.7 71.63 47.47C71.59 47.23 71.54 47 71.48 46.78C71.43 46.55 71.36 46.33 71.28 46.11C71.21 45.89 71.12 45.67 71.03 45.46C70.94 45.25 70.84 45.05 70.73 44.85C70.62 44.66 70.5 44.47 70.37 44.28C70.25 44.1 70.11 43.92 69.97 43.75C69.83 43.59 69.69 43.43 69.53 43.28C69.38 43.13 69.22 42.99 69.06 42.85C68.89 42.72 68.72 42.6 68.55 42.49C68.37 42.38 68.2 42.27 68.01 42.18C67.83 42.09 67.64 42.01 67.45 41.94C67.26 41.87 67.07 41.82 66.88 41.77C66.68 41.72 66.49 41.69 66.29 41.67C66.1 41.64 65.9 41.63 65.7 41.63C65.5 41.63 65.3 41.64 65.11 41.67C64.91 41.69 64.71 41.72 64.52 41.77C64.33 41.82 64.13 41.87 63.94 41.94C63.76 42.01 63.57 42.09 63.39 42.18C63.2 42.27 63.02 42.38 62.85 42.49C62.68 42.6 62.51 42.72 62.34 42.85C62.18 42.99 62.02 43.13 61.86 43.28C61.71 43.43 61.56 43.59 61.42 43.75C61.28 43.92 61.15 44.1 61.03 44.28C60.9 44.47 60.78 44.66 60.67 44.85C60.56 45.05 60.46 45.25 60.37 45.46C60.27 45.67 60.19 45.89 60.11 46.11C60.04 46.33 59.97 46.55 59.91 46.78C59.86 47 59.81 47.23 59.77 47.47C59.73 47.7 59.7 47.93 59.68 48.17C59.66 48.41 59.65 48.64 59.65 48.88Z" fill="#7A7979" fill-opacity="1.000000" fill-rule="nonzero"/>
	</g>
</svg>
