<svg width="100.000000" height="100.000000" viewBox="0 0 100 100" fill="none" xmlns="http://www.w3.org/2000/svg" xmlns:xlink="http://www.w3.org/1999/xlink">
	<desc>
			Created with Pixso.
	</desc>
	<defs>
		<clipPath id="clip4_30">
			<rect id="我的" width="100.000000" height="100.000000" fill="white" fill-opacity="0"/>
		</clipPath>
	</defs>
	<g clip-path="url(#clip4_30)">
		<path id="path" d="M49.61 94.29C48.9 94.29 48.2 94.27 47.49 94.24C46.78 94.2 46.08 94.15 45.38 94.08C44.67 94.01 43.97 93.93 43.27 93.82C42.57 93.72 41.88 93.6 41.18 93.46C40.49 93.32 39.8 93.17 39.12 93C38.43 92.82 37.75 92.64 37.07 92.43C36.4 92.23 35.73 92 35.06 91.77C34.4 91.53 33.74 91.27 33.08 91C32.43 90.73 31.78 90.45 31.15 90.14C30.51 89.84 29.88 89.52 29.25 89.19C28.63 88.86 28.01 88.51 27.41 88.15C26.8 87.78 26.21 87.41 25.62 87.01C25.03 86.62 24.45 86.21 23.89 85.79C23.32 85.37 22.76 84.94 22.21 84.49C21.67 84.04 21.13 83.58 20.61 83.1C20.09 82.63 19.57 82.14 19.07 81.64C18.57 81.14 18.09 80.63 17.61 80.11C17.14 79.58 16.68 79.05 16.23 78.5C15.78 77.96 15.35 77.4 14.92 76.83C14.5 76.26 14.1 75.69 13.7 75.1C13.31 74.51 12.93 73.91 12.57 73.31C12.21 72.7 11.86 72.09 11.53 71.46C11.19 70.84 10.87 70.21 10.57 69.57C10.27 68.93 9.98 68.29 9.71 67.63C9.44 66.98 9.19 66.32 8.95 65.66C8.71 64.99 8.49 64.32 8.29 63.64C8.08 62.97 7.89 62.29 7.72 61.6C7.55 60.92 7.39 60.23 7.26 59.53C7.12 58.84 7 58.14 6.89 57.44C6.79 56.75 6.7 56.04 6.63 55.34C6.57 54.64 6.51 53.93 6.48 53.23C6.44 52.52 6.43 51.82 6.43 51.11C6.43 50.4 6.44 49.7 6.48 48.99C6.51 48.28 6.57 47.58 6.63 46.88C6.7 46.17 6.79 45.47 6.89 44.77C7 44.07 7.12 43.38 7.26 42.68C7.39 41.99 7.55 41.3 7.72 40.62C7.89 39.93 8.08 39.25 8.29 38.57C8.49 37.9 8.71 37.23 8.95 36.56C9.19 35.9 9.44 35.24 9.71 34.58C9.98 33.93 10.27 33.28 10.57 32.65C10.87 32.01 11.19 31.38 11.53 30.75C11.86 30.13 12.21 29.51 12.57 28.91C12.93 28.3 13.31 27.71 13.7 27.12C14.1 26.53 14.5 25.95 14.92 25.39C15.35 24.82 15.78 24.26 16.23 23.71C16.68 23.17 17.14 22.63 17.61 22.11C18.09 21.59 18.57 21.07 19.07 20.57C19.57 20.07 20.09 19.59 20.61 19.11C21.13 18.64 21.67 18.18 22.21 17.73C22.76 17.28 23.32 16.85 23.89 16.42C24.45 16 25.03 15.6 25.62 15.2C26.21 14.81 26.8 14.43 27.41 14.07C28.01 13.71 28.63 13.36 29.25 13.03C29.88 12.69 30.51 12.37 31.15 12.07C31.78 11.77 32.43 11.48 33.08 11.21C33.74 10.94 34.4 10.69 35.06 10.45C35.73 10.21 36.4 9.99 37.07 9.79C37.75 9.58 38.43 9.39 39.12 9.22C39.8 9.05 40.49 8.89 41.18 8.76C41.88 8.62 42.57 8.5 43.27 8.39C43.97 8.29 44.67 8.2 45.38 8.13C46.08 8.07 46.78 8.01 47.49 7.98C48.2 7.94 48.9 7.93 49.61 7.93C50.32 7.93 51.02 7.94 51.73 7.98C52.43 8.01 53.14 8.07 53.84 8.13C54.54 8.2 55.25 8.29 55.94 8.39C56.64 8.5 57.34 8.62 58.03 8.76C58.73 8.89 59.42 9.05 60.1 9.22C60.79 9.39 61.47 9.58 62.14 9.79C62.82 9.99 63.49 10.21 64.16 10.45C64.82 10.69 65.48 10.94 66.13 11.21C66.79 11.48 67.43 11.77 68.07 12.07C68.71 12.37 69.34 12.69 69.96 13.03C70.59 13.36 71.2 13.71 71.81 14.07C72.41 14.43 73.01 14.81 73.6 15.2C74.19 15.6 74.76 16 75.33 16.42C75.9 16.85 76.46 17.28 77 17.73C77.55 18.18 78.08 18.64 78.61 19.11C79.13 19.59 79.64 20.07 80.14 20.57C80.64 21.07 81.13 21.59 81.6 22.11C82.08 22.63 82.54 23.17 82.99 23.71C83.44 24.26 83.87 24.82 84.29 25.39C84.71 25.95 85.12 26.53 85.51 27.12C85.91 27.71 86.28 28.3 86.65 28.91C87.01 29.51 87.36 30.13 87.69 30.75C88.02 31.38 88.34 32.01 88.64 32.65C88.95 33.28 89.23 33.93 89.5 34.58C89.77 35.24 90.03 35.9 90.27 36.56C90.5 37.23 90.73 37.9 90.93 38.57C91.14 39.25 91.32 39.93 91.5 40.62C91.67 41.3 91.82 41.99 91.96 42.68C92.1 43.38 92.22 44.07 92.32 44.77C92.43 45.47 92.51 46.17 92.58 46.88C92.65 47.58 92.7 48.28 92.74 48.99C92.77 49.7 92.79 50.4 92.79 51.11C92.79 51.82 92.77 52.52 92.74 53.23C92.7 53.93 92.65 54.64 92.58 55.34C92.51 56.04 92.43 56.75 92.32 57.44C92.22 58.14 92.1 58.84 91.96 59.53C91.82 60.23 91.67 60.92 91.5 61.6C91.32 62.29 91.14 62.97 90.93 63.64C90.73 64.32 90.5 64.99 90.27 65.66C90.03 66.32 89.77 66.98 89.5 67.63C89.23 68.29 88.95 68.93 88.64 69.57C88.34 70.21 88.02 70.84 87.69 71.46C87.36 72.09 87.01 72.7 86.65 73.31C86.28 73.91 85.91 74.51 85.51 75.1C85.12 75.69 84.71 76.26 84.29 76.83C83.87 77.4 83.44 77.96 82.99 78.5C82.54 79.05 82.08 79.58 81.6 80.11C81.13 80.63 80.64 81.14 80.14 81.64C79.64 82.14 79.13 82.63 78.61 83.1C78.08 83.58 77.55 84.04 77 84.49C76.46 84.94 75.9 85.37 75.33 85.79C74.76 86.21 74.19 86.62 73.6 87.01C73.01 87.41 72.41 87.78 71.81 88.15C71.2 88.51 70.59 88.86 69.96 89.19C69.34 89.52 68.71 89.84 68.07 90.14C67.43 90.45 66.79 90.73 66.13 91C65.48 91.27 64.82 91.53 64.16 91.77C63.49 92 62.82 92.23 62.14 92.43C61.47 92.64 60.79 92.82 60.1 93C59.42 93.17 58.73 93.32 58.03 93.46C57.34 93.6 56.64 93.72 55.94 93.82C55.25 93.93 54.54 94.01 53.84 94.08C53.14 94.15 52.43 94.2 51.73 94.24C51.02 94.27 50.32 94.29 49.61 94.29ZM49.61 14.75C49.01 14.75 48.42 14.76 47.82 14.79C47.23 14.82 46.64 14.86 46.04 14.92C45.45 14.98 44.86 15.05 44.27 15.14C43.68 15.23 43.1 15.33 42.51 15.44C41.93 15.56 41.35 15.69 40.77 15.83C40.2 15.98 39.62 16.14 39.05 16.31C38.48 16.48 37.92 16.67 37.36 16.87C36.8 17.07 36.24 17.29 35.69 17.51C35.14 17.74 34.6 17.98 34.06 18.24C33.52 18.49 32.99 18.76 32.47 19.04C31.94 19.32 31.42 19.61 30.91 19.92C30.4 20.22 29.9 20.54 29.41 20.87C28.91 21.2 28.42 21.55 27.95 21.9C27.47 22.26 27 22.62 26.54 23C26.08 23.38 25.63 23.77 25.19 24.17C24.75 24.56 24.32 24.97 23.9 25.4C23.47 25.82 23.06 26.25 22.67 26.69C22.27 27.13 21.88 27.58 21.5 28.04C21.12 28.5 20.76 28.97 20.4 29.45C20.05 29.92 19.7 30.41 19.37 30.91C19.04 31.4 18.72 31.9 18.42 32.41C18.11 32.92 17.82 33.44 17.54 33.97C17.26 34.49 16.99 35.02 16.74 35.56C16.48 36.1 16.24 36.64 16.01 37.19C15.79 37.74 15.57 38.3 15.37 38.86C15.17 39.42 14.98 39.98 14.81 40.55C14.64 41.12 14.48 41.7 14.33 42.27C14.19 42.85 14.06 43.43 13.94 44.01C13.83 44.6 13.73 45.18 13.64 45.77C13.55 46.36 13.48 46.95 13.42 47.54C13.36 48.14 13.32 48.73 13.29 49.32C13.26 49.92 13.25 50.51 13.25 51.11C13.25 51.7 13.26 52.3 13.29 52.89C13.32 53.49 13.36 54.08 13.42 54.67C13.48 55.27 13.55 55.86 13.64 56.44C13.73 57.03 13.83 57.62 13.94 58.2C14.06 58.79 14.19 59.37 14.33 59.94C14.48 60.52 14.64 61.1 14.81 61.66C14.98 62.23 15.17 62.8 15.37 63.36C15.57 63.92 15.79 64.47 16.01 65.02C16.24 65.57 16.48 66.12 16.74 66.66C16.99 67.19 17.26 67.73 17.54 68.25C17.82 68.78 18.11 69.29 18.42 69.8C18.72 70.31 19.04 70.82 19.37 71.31C19.7 71.81 20.05 72.29 20.4 72.77C20.76 73.25 21.12 73.72 21.5 74.18C21.88 74.64 22.27 75.09 22.67 75.53C23.06 75.97 23.47 76.4 23.9 76.82C24.32 77.24 24.75 77.65 25.19 78.05C25.63 78.45 26.08 78.84 26.54 79.22C27 79.6 27.47 79.96 27.95 80.32C28.42 80.67 28.91 81.01 29.41 81.34C29.9 81.67 30.4 81.99 30.91 82.3C31.42 82.6 31.94 82.9 32.47 83.18C32.99 83.46 33.52 83.73 34.06 83.98C34.6 84.24 35.14 84.48 35.69 84.7C36.24 84.93 36.8 85.15 37.36 85.35C37.92 85.55 38.48 85.73 39.05 85.91C39.62 86.08 40.2 86.24 40.77 86.38C41.35 86.53 41.93 86.66 42.51 86.77C43.1 86.89 43.68 86.99 44.27 87.08C44.86 87.17 45.45 87.24 46.04 87.3C46.64 87.36 47.23 87.4 47.82 87.43C48.42 87.46 49.01 87.47 49.61 87.47C50.2 87.47 50.8 87.46 51.39 87.43C51.99 87.4 52.58 87.36 53.17 87.3C53.77 87.24 54.36 87.17 54.94 87.08C55.53 86.99 56.12 86.89 56.7 86.77C57.29 86.66 57.87 86.53 58.44 86.38C59.02 86.24 59.6 86.08 60.16 85.91C60.73 85.73 61.3 85.55 61.86 85.35C62.42 85.15 62.97 84.93 63.52 84.7C64.07 84.48 64.62 84.24 65.16 83.98C65.69 83.73 66.23 83.46 66.75 83.18C67.28 82.9 67.79 82.6 68.3 82.3C68.81 81.99 69.32 81.67 69.81 81.34C70.31 81.01 70.79 80.67 71.27 80.32C71.75 79.96 72.22 79.6 72.68 79.22C73.14 78.84 73.59 78.45 74.03 78.05C74.47 77.65 74.9 77.24 75.32 76.82C75.74 76.4 76.15 75.97 76.55 75.53C76.95 75.09 77.34 74.64 77.72 74.18C78.1 73.72 78.46 73.25 78.82 72.77C79.17 72.29 79.51 71.81 79.84 71.31C80.17 70.82 80.49 70.31 80.8 69.8C81.1 69.29 81.4 68.78 81.68 68.25C81.96 67.73 82.23 67.19 82.48 66.66C82.74 66.12 82.98 65.57 83.2 65.02C83.43 64.47 83.65 63.92 83.85 63.36C84.05 62.8 84.23 62.23 84.41 61.66C84.58 61.1 84.74 60.52 84.88 59.94C85.03 59.37 85.16 58.79 85.27 58.2C85.39 57.62 85.49 57.03 85.58 56.44C85.67 55.86 85.74 55.27 85.8 54.67C85.86 54.08 85.9 53.49 85.93 52.89C85.96 52.3 85.97 51.7 85.97 51.11C85.97 50.51 85.96 49.92 85.93 49.32C85.9 48.73 85.86 48.14 85.8 47.54C85.74 46.95 85.67 46.36 85.58 45.77C85.49 45.18 85.39 44.6 85.27 44.01C85.16 43.43 85.03 42.85 84.88 42.27C84.74 41.7 84.58 41.12 84.41 40.55C84.23 39.98 84.05 39.42 83.85 38.86C83.65 38.3 83.43 37.74 83.2 37.19C82.98 36.64 82.74 36.1 82.48 35.56C82.23 35.02 81.96 34.49 81.68 33.97C81.4 33.44 81.1 32.92 80.8 32.41C80.49 31.9 80.17 31.4 79.84 30.91C79.51 30.41 79.17 29.92 78.82 29.45C78.46 28.97 78.1 28.5 77.72 28.04C77.34 27.58 76.95 27.13 76.55 26.69C76.15 26.25 75.74 25.82 75.32 25.4C74.9 24.97 74.47 24.56 74.03 24.17C73.59 23.77 73.14 23.38 72.68 23C72.22 22.62 71.75 22.26 71.27 21.9C70.79 21.55 70.31 21.2 69.81 20.87C69.32 20.54 68.81 20.22 68.3 19.92C67.79 19.61 67.28 19.32 66.75 19.04C66.23 18.76 65.69 18.49 65.16 18.24C64.62 17.98 64.07 17.74 63.52 17.51C62.97 17.29 62.42 17.07 61.86 16.87C61.3 16.67 60.73 16.48 60.16 16.31C59.59 16.14 59.02 15.98 58.44 15.83C57.87 15.69 57.29 15.56 56.7 15.44C56.12 15.33 55.53 15.23 54.94 15.14C54.36 15.05 53.77 14.98 53.17 14.92C52.58 14.86 51.99 14.82 51.39 14.79C50.8 14.76 50.2 14.75 49.61 14.75ZM58.36 43.09C58.36 43.35 58.37 43.61 58.38 43.87C58.4 44.13 58.43 44.39 58.46 44.65C58.5 44.91 58.54 45.16 58.59 45.41C58.64 45.67 58.7 45.91 58.77 46.16C58.83 46.4 58.91 46.64 58.99 46.87C59.07 47.1 59.16 47.32 59.26 47.54C59.36 47.76 59.46 47.97 59.57 48.18C59.68 48.38 59.8 48.57 59.92 48.76C60.05 48.94 60.18 49.12 60.31 49.29C60.45 49.45 60.59 49.61 60.73 49.76C60.88 49.9 61.03 50.04 61.18 50.16C61.34 50.29 61.49 50.4 61.66 50.5C61.82 50.6 61.98 50.69 62.15 50.76C62.32 50.84 62.49 50.9 62.66 50.95C62.83 51.01 63 51.04 63.18 51.07C63.35 51.1 63.52 51.11 63.7 51.11C63.87 51.11 64.05 51.1 64.22 51.07C64.4 51.04 64.57 51.01 64.74 50.95C64.91 50.9 65.08 50.84 65.25 50.76C65.42 50.69 65.58 50.6 65.74 50.5C65.91 50.4 66.06 50.29 66.22 50.16C66.37 50.04 66.52 49.9 66.67 49.76C66.81 49.61 66.95 49.45 67.09 49.29C67.22 49.12 67.35 48.94 67.48 48.76C67.6 48.57 67.72 48.38 67.83 48.18C67.94 47.97 68.04 47.76 68.14 47.54C68.24 47.32 68.33 47.1 68.41 46.87C68.49 46.64 68.57 46.4 68.63 46.16C68.7 45.91 68.76 45.67 68.81 45.41C68.86 45.16 68.9 44.91 68.94 44.65C68.97 44.39 69 44.13 69.01 43.87C69.03 43.61 69.04 43.35 69.04 43.09C69.04 42.82 69.03 42.56 69.01 42.3C69 42.04 68.97 41.78 68.94 41.52C68.9 41.26 68.86 41.01 68.81 40.76C68.76 40.51 68.7 40.26 68.63 40.02C68.57 39.77 68.49 39.54 68.41 39.3C68.33 39.07 68.24 38.85 68.14 38.63C68.04 38.41 67.94 38.2 67.83 38C67.72 37.79 67.6 37.6 67.48 37.41C67.35 37.23 67.22 37.05 67.09 36.88C66.95 36.72 66.81 36.56 66.67 36.42C66.52 36.27 66.37 36.13 66.22 36.01C66.06 35.89 65.91 35.77 65.74 35.67C65.58 35.57 65.42 35.48 65.25 35.41C65.08 35.33 64.91 35.27 64.74 35.22C64.57 35.17 64.4 35.13 64.22 35.1C64.05 35.08 63.87 35.06 63.7 35.06C63.52 35.06 63.35 35.08 63.18 35.1C63 35.13 62.83 35.17 62.66 35.22C62.49 35.27 62.32 35.33 62.15 35.41C61.98 35.48 61.82 35.57 61.66 35.67C61.49 35.77 61.34 35.89 61.18 36.01C61.03 36.13 60.88 36.27 60.73 36.42C60.59 36.56 60.45 36.72 60.31 36.88C60.18 37.05 60.05 37.23 59.92 37.41C59.8 37.6 59.68 37.79 59.57 38C59.46 38.2 59.36 38.41 59.26 38.63C59.16 38.85 59.07 39.07 58.99 39.3C58.91 39.54 58.83 39.77 58.77 40.02C58.7 40.26 58.64 40.51 58.59 40.76C58.54 41.01 58.5 41.26 58.46 41.52C58.43 41.78 58.4 42.04 58.38 42.3C58.37 42.56 58.36 42.82 58.36 43.09ZM29.65 43.09C29.65 43.35 29.66 43.61 29.68 43.87C29.7 44.13 29.72 44.39 29.76 44.65C29.79 44.91 29.83 45.16 29.88 45.42C29.93 45.67 29.99 45.91 30.06 46.16C30.13 46.4 30.2 46.64 30.28 46.87C30.37 47.1 30.46 47.33 30.55 47.55C30.65 47.76 30.75 47.98 30.87 48.18C30.98 48.38 31.09 48.58 31.22 48.76C31.34 48.95 31.47 49.12 31.61 49.29C31.74 49.46 31.88 49.61 32.03 49.76C32.17 49.91 32.32 50.04 32.48 50.17C32.63 50.29 32.79 50.4 32.95 50.5C33.11 50.6 33.28 50.69 33.44 50.77C33.61 50.84 33.78 50.91 33.95 50.96C34.12 51.01 34.3 51.05 34.47 51.08C34.65 51.1 34.82 51.11 35 51.11C35.17 51.11 35.34 51.1 35.52 51.08C35.69 51.05 35.87 51.01 36.04 50.96C36.21 50.91 36.38 50.84 36.55 50.77C36.71 50.69 36.88 50.6 37.04 50.5C37.2 50.4 37.36 50.29 37.51 50.17C37.67 50.04 37.82 49.91 37.96 49.76C38.11 49.61 38.25 49.46 38.38 49.29C38.52 49.12 38.65 48.95 38.77 48.76C38.9 48.58 39.01 48.38 39.12 48.18C39.24 47.98 39.34 47.76 39.44 47.55C39.53 47.33 39.62 47.1 39.71 46.87C39.79 46.64 39.86 46.4 39.93 46.16C40 45.91 40.06 45.67 40.11 45.42C40.16 45.16 40.2 44.91 40.23 44.65C40.27 44.39 40.29 44.13 40.31 43.87C40.33 43.61 40.34 43.35 40.34 43.09C40.34 42.82 40.33 42.56 40.31 42.3C40.29 42.04 40.27 41.78 40.23 41.52C40.2 41.26 40.16 41.01 40.11 40.76C40.06 40.51 40 40.26 39.93 40.02C39.86 39.77 39.79 39.54 39.71 39.3C39.62 39.07 39.53 38.85 39.44 38.63C39.34 38.41 39.23 38.2 39.12 38C39.01 37.79 38.9 37.6 38.77 37.41C38.65 37.23 38.52 37.05 38.38 36.88C38.25 36.72 38.11 36.56 37.96 36.42C37.82 36.27 37.67 36.13 37.51 36.01C37.36 35.89 37.2 35.77 37.04 35.67C36.88 35.57 36.71 35.48 36.55 35.41C36.38 35.33 36.21 35.27 36.04 35.22C35.87 35.17 35.69 35.13 35.52 35.1C35.34 35.08 35.17 35.06 35 35.06C34.82 35.06 34.65 35.08 34.47 35.1C34.3 35.13 34.12 35.17 33.95 35.22C33.78 35.27 33.61 35.33 33.44 35.41C33.28 35.48 33.11 35.57 32.95 35.67C32.79 35.77 32.63 35.89 32.48 36.01C32.32 36.13 32.17 36.27 32.03 36.42C31.88 36.56 31.74 36.72 31.61 36.88C31.47 37.05 31.34 37.23 31.22 37.41C31.09 37.6 30.98 37.79 30.87 38C30.76 38.2 30.65 38.41 30.55 38.63C30.46 38.85 30.37 39.07 30.28 39.3C30.2 39.54 30.13 39.77 30.06 40.02C29.99 40.26 29.93 40.51 29.88 40.76C29.83 41.01 29.79 41.26 29.76 41.52C29.72 41.78 29.7 42.04 29.68 42.3C29.66 42.56 29.65 42.82 29.65 43.09Z" fill="#7A7979" fill-opacity="1.000000" fill-rule="nonzero"/>
	</g>
</svg>
