<svg width="100.000000" height="100.000000" viewBox="0 0 100 100" fill="none" xmlns="http://www.w3.org/2000/svg" xmlns:xlink="http://www.w3.org/1999/xlink">
	<desc>
			Created with Pixso.
	</desc>
	<defs>
		<clipPath id="clip4_42">
			<rect id="更多" width="100.000000" height="100.000000" fill="white" fill-opacity="0"/>
		</clipPath>
	</defs>
	<g clip-path="url(#clip4_42)">
		<path id="path" d="M49.99 90.9C49.51 90.91 49.03 90.88 48.56 90.82C48.08 90.76 47.61 90.67 47.14 90.54C46.68 90.42 46.22 90.27 45.78 90.09C45.33 89.9 44.9 89.69 44.48 89.45C44.07 89.21 43.67 88.95 43.28 88.66C42.9 88.36 42.54 88.05 42.2 87.71C41.86 87.37 41.54 87.01 41.25 86.63C40.96 86.24 40.69 85.84 40.45 85.43L31.54 69.93C31.14 69.28 30.62 68.75 29.97 68.36L14.56 59.47C14.25 59.29 13.95 59.1 13.66 58.89C13.37 58.68 13.09 58.46 12.82 58.23C12.55 57.99 12.3 57.74 12.05 57.48C11.81 57.22 11.58 56.95 11.36 56.67C11.14 56.38 10.94 56.09 10.75 55.79C10.56 55.48 10.38 55.17 10.23 54.85C10.07 54.53 9.92 54.2 9.8 53.87C9.67 53.53 9.56 53.19 9.47 52.85C9.38 52.5 9.3 52.16 9.24 51.8C9.18 51.45 9.14 51.1 9.12 50.74C9.09 50.38 9.09 50.03 9.1 49.67C9.11 49.31 9.14 48.95 9.18 48.6C9.23 48.25 9.29 47.89 9.37 47.55C9.45 47.2 9.55 46.85 9.66 46.51C9.78 46.18 9.91 45.84 10.05 45.52C10.2 45.19 10.36 44.87 10.54 44.56C11.02 43.72 11.6 42.96 12.28 42.28C12.96 41.6 13.72 41.02 14.56 40.54L30.06 31.63C30.72 31.25 31.23 30.72 31.61 30.06L40.31 14.93C40.57 14.45 40.87 14 41.19 13.57C41.52 13.14 41.87 12.74 42.25 12.36C42.64 11.98 43.04 11.63 43.48 11.31C43.91 10.98 44.36 10.69 44.84 10.44C45.31 10.18 45.8 9.96 46.3 9.77C46.81 9.58 47.33 9.43 47.85 9.32C48.38 9.2 48.91 9.12 49.45 9.09C49.99 9.05 50.53 9.05 51.06 9.09C51.93 9.17 52.77 9.36 53.59 9.65C54.41 9.94 55.19 10.32 55.92 10.79C56.65 11.26 57.32 11.81 57.92 12.44C58.52 13.07 59.04 13.76 59.47 14.52L68.38 30.02C68.76 30.67 69.27 31.19 69.93 31.56L85.06 40.27C85.54 40.53 85.99 40.82 86.42 41.15C86.85 41.48 87.26 41.83 87.64 42.22C88.02 42.6 88.37 43.01 88.7 43.44C89.02 43.88 89.31 44.33 89.57 44.81C89.82 45.29 90.05 45.78 90.23 46.28C90.42 46.79 90.57 47.31 90.68 47.84C90.8 48.37 90.87 48.9 90.91 49.44C90.95 49.98 90.94 50.52 90.9 51.06C90.81 51.93 90.63 52.77 90.34 53.59C90.05 54.41 89.67 55.18 89.2 55.91C88.72 56.64 88.17 57.3 87.54 57.9C86.91 58.5 86.22 59.01 85.47 59.45L69.97 68.36C69.33 68.75 68.81 69.28 68.43 69.93L59.59 85.22C59.19 85.96 58.72 86.65 58.17 87.29C57.62 87.92 57.01 88.48 56.33 88.97C55.65 89.47 54.92 89.88 54.15 90.2C53.37 90.53 52.57 90.76 51.75 90.9C51.16 90.94 50.58 90.94 49.99 90.9ZM49.99 15.9C49.6 15.92 49.21 15.99 48.84 16.12C48.46 16.24 48.11 16.4 47.77 16.62C47.44 16.83 47.14 17.08 46.87 17.37C46.61 17.66 46.38 17.99 46.2 18.34L37.47 33.47C36.98 34.31 36.39 35.08 35.7 35.77C35.01 36.46 34.25 37.05 33.4 37.54L17.95 46.45C17.32 46.82 16.82 47.32 16.45 47.95C16.31 48.18 16.2 48.43 16.12 48.68C16.03 48.94 15.97 49.2 15.93 49.47C15.9 49.74 15.89 50.01 15.91 50.28C15.92 50.55 15.97 50.81 16.04 51.07C16.11 51.34 16.21 51.59 16.33 51.83C16.45 52.07 16.59 52.3 16.76 52.51C16.92 52.73 17.11 52.92 17.31 53.1C17.52 53.27 17.74 53.43 17.97 53.56L33.45 62.45C34.3 62.94 35.07 63.53 35.77 64.22C36.46 64.92 37.05 65.69 37.54 66.54L46.45 82.02C46.66 82.39 46.93 82.72 47.24 83.01C47.55 83.29 47.9 83.53 48.29 83.71C48.68 83.89 49.08 84.01 49.5 84.07C49.93 84.12 50.35 84.11 50.77 84.04C51.4 83.9 51.97 83.63 52.47 83.24C52.98 82.84 53.37 82.35 53.65 81.77L62.47 66.45C62.96 65.6 63.54 64.83 64.23 64.14C64.92 63.45 65.69 62.87 66.54 62.38L82.02 53.47C82.3 53.31 82.57 53.12 82.81 52.89C83.05 52.66 83.25 52.41 83.43 52.13C83.61 51.86 83.75 51.56 83.86 51.25C83.97 50.94 84.03 50.62 84.06 50.29C84.07 49.87 84.03 49.45 83.92 49.04C83.82 48.63 83.66 48.24 83.45 47.88C83.23 47.51 82.98 47.18 82.67 46.89C82.37 46.6 82.03 46.35 81.65 46.15L66.54 37.45C65.69 36.97 64.92 36.39 64.22 35.7C63.53 35.01 62.95 34.23 62.47 33.38L53.54 17.97C53.38 17.69 53.19 17.42 52.96 17.18C52.74 16.94 52.49 16.73 52.22 16.55C51.94 16.37 51.65 16.22 51.34 16.12C51.03 16.01 50.71 15.94 50.38 15.9L49.99 15.9ZM37.77 51.93C37.4 51.93 37.04 51.87 36.69 51.76C36.34 51.65 36.02 51.48 35.72 51.27C35.43 51.05 35.17 50.79 34.96 50.49C34.75 50.19 34.59 49.86 34.48 49.51C34.38 49.16 34.33 48.8 34.33 48.44C34.34 48.07 34.41 47.71 34.53 47.37C34.66 47.02 34.83 46.7 35.06 46.41C35.29 46.13 35.55 45.88 35.86 45.68C38.64 43.87 40.96 41.6 42.81 38.86C42.94 38.67 43.08 38.5 43.24 38.34C43.4 38.19 43.57 38.04 43.76 37.92C43.95 37.8 44.14 37.69 44.35 37.61C44.56 37.52 44.77 37.46 44.99 37.42C45.21 37.37 45.43 37.35 45.66 37.35C45.88 37.36 46.1 37.38 46.32 37.42C46.54 37.47 46.76 37.53 46.96 37.62C47.17 37.71 47.37 37.81 47.55 37.94C47.74 38.06 47.91 38.21 48.07 38.37C48.22 38.52 48.37 38.7 48.49 38.88C48.61 39.07 48.72 39.27 48.8 39.48C48.89 39.68 48.95 39.9 48.99 40.12C49.04 40.34 49.06 40.56 49.06 40.78C49.06 41.01 49.03 41.23 48.99 41.45C48.94 41.67 48.88 41.88 48.79 42.09C48.7 42.29 48.6 42.49 48.47 42.68C46.11 46.19 43.16 49.11 39.63 51.45C39.06 51.8 38.44 51.96 37.77 51.93Z" fill="#7A7979" fill-opacity="1.000000" fill-rule="nonzero"/>
	</g>
</svg>
