<svg width="100.000000" height="100.000000" viewBox="0 0 100 100" fill="none" xmlns="http://www.w3.org/2000/svg" xmlns:xlink="http://www.w3.org/1999/xlink">
	<desc>
			Created with Pixso.
	</desc>
	<defs>
		<clipPath id="clip4_38">
			<rect id="电影" width="100.000000" height="100.000000" fill="white" fill-opacity="0"/>
		</clipPath>
	</defs>
	<g clip-path="url(#clip4_38)">
		<path id="path" d="M50 97.72C48.38 97.73 46.76 97.65 45.15 97.47C44.36 97.39 43.57 97.28 42.79 97.16C42 97.03 41.22 96.88 40.44 96.72C39.66 96.55 38.88 96.36 38.11 96.15C37.35 95.94 36.58 95.72 35.83 95.47C35.07 95.22 34.32 94.95 33.58 94.66C32.83 94.38 32.1 94.07 31.37 93.74C30.64 93.42 29.93 93.07 29.22 92.71C28.51 92.34 27.81 91.96 27.12 91.56C26.43 91.16 25.76 90.74 25.09 90.3C24.42 89.87 23.77 89.41 23.12 88.94C22.48 88.47 21.85 87.98 21.23 87.48C20.62 86.97 20.01 86.45 19.42 85.92C18.83 85.38 18.26 84.83 17.7 84.27C17.14 83.7 16.59 83.12 16.06 82.52C15.53 81.93 15.02 81.32 14.52 80.7C14.02 80.08 13.54 79.44 13.07 78.8C12.61 78.15 12.16 77.49 11.73 76.82C11.3 76.15 10.89 75.47 10.5 74.78C10.1 74.08 9.72 73.38 9.37 72.67C9.01 71.96 8.67 71.24 8.35 70.51C8.03 69.78 7.73 69.04 7.45 68.29C7.17 67.55 6.91 66.79 6.67 66.03C6.43 65.28 6.21 64.51 6.01 63.74C5.8 62.97 5.62 62.19 5.46 61.41C5.3 60.63 5.16 59.85 5.04 59.06C4.93 58.27 4.83 57.48 4.75 56.69C4.67 55.89 4.62 55.1 4.58 54.3C4.55 53.51 4.53 52.71 4.54 51.91C4.54 51.12 4.57 50.32 4.62 49.53C4.67 48.73 4.74 47.94 4.83 47.15C4.92 46.35 5.03 45.57 5.16 44.78C5.29 43.99 5.44 43.21 5.61 42.43C5.79 41.66 5.98 40.88 6.19 40.12C6.41 39.35 6.64 38.59 6.89 37.83C7.15 37.08 7.42 36.33 7.71 35.59C8 34.84 8.32 34.11 8.65 33.39C8.98 32.66 9.33 31.95 9.7 31.24C10.07 30.53 10.45 29.84 10.86 29.15C11.26 28.47 11.69 27.79 12.13 27.13C12.57 26.46 13.03 25.81 13.5 25.17C13.98 24.53 14.47 23.91 14.98 23.29C15.48 22.68 16.01 22.08 16.55 21.49C17.09 20.91 17.64 20.33 18.21 19.78C18.78 19.22 19.36 18.68 19.96 18.15C20.56 17.63 21.17 17.12 21.8 16.62C22.42 16.13 23.06 15.65 23.71 15.19C24.36 14.73 25.02 14.28 25.7 13.86C26.37 13.43 27.05 13.03 27.75 12.64C28.44 12.25 29.15 11.87 29.86 11.52C30.58 11.17 31.3 10.83 32.03 10.52C32.76 10.2 33.5 9.91 34.25 9.63C35 9.36 35.75 9.1 36.51 8.87C37.27 8.63 38.04 8.41 38.81 8.22C39.59 8.02 40.36 7.85 41.14 7.69C41.93 7.54 42.71 7.4 43.5 7.29C44.29 7.17 45.08 7.08 45.87 7.01C46.67 6.94 47.46 6.88 48.26 6.85C49.05 6.82 49.85 6.81 50.65 6.83C51.44 6.84 52.24 6.87 53.03 6.92C53.83 6.98 54.62 7.05 55.41 7.15C56.2 7.24 56.99 7.36 57.78 7.49C58.56 7.63 59.34 7.79 60.12 7.96C60.9 8.14 61.67 8.34 62.43 8.56C63.2 8.78 63.96 9.01 64.72 9.27C65.47 9.53 66.22 9.81 66.95 10.11C67.69 10.4 68.42 10.72 69.15 11.06C69.87 11.39 70.58 11.75 71.29 12.12C71.99 12.49 72.68 12.88 73.37 13.29C74.05 13.7 74.72 14.13 75.38 14.58C76.05 15.02 76.69 15.48 77.33 15.96C77.97 16.44 78.59 16.94 79.2 17.45C79.81 17.96 80.41 18.49 80.99 19.03C81.57 19.58 82.14 20.13 82.69 20.71C83.25 21.28 83.79 21.87 84.31 22.47C84.83 23.07 85.34 23.69 85.83 24.31C86.32 24.94 86.79 25.58 87.25 26.24C87.7 26.89 88.14 27.55 88.56 28.23C88.99 28.91 89.39 29.59 89.77 30.29C90.16 30.99 90.53 31.7 90.88 32.41C91.22 33.13 91.55 33.85 91.86 34.59C92.17 35.32 92.46 36.06 92.73 36.81C93.01 37.56 93.26 38.32 93.49 39.08C93.72 39.84 93.93 40.61 94.12 41.38C94.31 42.16 94.48 42.94 94.63 43.72C94.78 44.5 94.91 45.29 95.02 46.08C95.13 46.87 95.22 47.66 95.28 48.45C95.35 49.25 95.4 50.04 95.42 50.84C95.45 51.63 95.45 52.43 95.44 53.23C95.42 54.02 95.38 54.82 95.32 55.61C95.26 56.41 95.18 57.2 95.08 57.99C94.98 58.78 94.86 59.57 94.72 60.35C94.58 61.14 94.42 61.92 94.24 62.69C94.05 63.47 93.85 64.24 93.63 65C93.4 65.77 93.16 66.53 92.9 67.28C92.63 68.03 92.35 68.78 92.05 69.51C91.75 70.25 91.43 70.98 91.09 71.7C90.99 71.9 90.87 72.09 90.74 72.27C90.61 72.45 90.46 72.62 90.29 72.77C90.12 72.92 89.94 73.05 89.75 73.16C89.56 73.28 89.36 73.37 89.15 73.45C88.94 73.52 88.72 73.58 88.5 73.61C88.28 73.64 88.05 73.65 87.83 73.64C87.61 73.63 87.39 73.59 87.17 73.54C86.95 73.49 86.74 73.41 86.54 73.31C86.34 73.22 86.15 73.1 85.97 72.97C85.79 72.83 85.62 72.68 85.47 72.52C85.32 72.35 85.19 72.17 85.08 71.98C84.96 71.79 84.87 71.59 84.79 71.37C84.72 71.16 84.66 70.95 84.63 70.73C84.6 70.5 84.59 70.28 84.6 70.06C84.61 69.83 84.65 69.61 84.7 69.4C84.76 69.18 84.83 68.97 84.93 68.77C85.25 68.09 85.55 67.4 85.83 66.7C86.11 66.01 86.37 65.3 86.61 64.59C86.85 63.88 87.07 63.16 87.27 62.43C87.47 61.71 87.65 60.98 87.8 60.24C87.96 59.51 88.09 58.77 88.2 58.02C88.32 57.28 88.41 56.53 88.48 55.78C88.55 55.04 88.59 54.29 88.62 53.53C88.64 52.78 88.65 52.03 88.63 51.28C88.61 50.53 88.57 49.78 88.51 49.03C88.44 48.28 88.36 47.53 88.25 46.79C88.15 46.04 88.02 45.3 87.87 44.57C87.72 43.83 87.55 43.1 87.36 42.37C87.16 41.64 86.95 40.92 86.72 40.21C86.48 39.49 86.23 38.79 85.95 38.09C85.68 37.39 85.38 36.7 85.07 36.02C84.75 35.33 84.42 34.66 84.06 34C83.71 33.34 83.33 32.68 82.94 32.04C82.54 31.4 82.13 30.77 81.7 30.16C81.27 29.54 80.83 28.94 80.36 28.34C79.9 27.75 79.41 27.18 78.92 26.61C78.42 26.05 77.9 25.5 77.37 24.97C76.84 24.44 76.3 23.92 75.73 23.42C75.17 22.92 74.6 22.44 74.01 21.97C73.42 21.5 72.82 21.05 72.2 20.62C71.59 20.19 70.96 19.78 70.32 19.38C69.68 18.99 69.03 18.61 68.37 18.25C67.71 17.89 67.04 17.56 66.36 17.24C65.67 16.92 64.99 16.62 64.29 16.34C63.59 16.07 62.88 15.81 62.17 15.57C61.45 15.33 60.73 15.12 60.01 14.92C59.28 14.73 58.55 14.56 57.81 14.4C57.08 14.25 56.34 14.12 55.59 14.01C54.85 13.9 54.1 13.82 53.36 13.75C52.61 13.69 51.86 13.64 51.1 13.62C50.35 13.6 49.6 13.6 48.85 13.62C48.1 13.65 47.35 13.69 46.6 13.76C45.85 13.82 45.1 13.91 44.36 14.02C43.62 14.13 42.88 14.26 42.14 14.41C41.4 14.57 40.67 14.74 39.95 14.94C39.22 15.13 38.5 15.35 37.79 15.59C37.08 15.83 36.37 16.08 35.67 16.36C34.97 16.64 34.28 16.94 33.6 17.26C32.92 17.58 32.25 17.92 31.59 18.28C30.93 18.63 30.28 19.01 29.64 19.41C29 19.8 28.38 20.22 27.76 20.65C27.15 21.08 26.54 21.53 25.96 22C25.37 22.47 24.79 22.95 24.23 23.46C23.67 23.96 23.13 24.47 22.6 25.01C22.07 25.54 21.55 26.09 21.06 26.65C20.56 27.22 20.08 27.79 19.61 28.38C19.15 28.98 18.7 29.58 18.27 30.2C17.84 30.82 17.43 31.44 17.04 32.09C16.65 32.73 16.28 33.38 15.92 34.04C15.57 34.71 15.23 35.38 14.92 36.06C14.6 36.74 14.31 37.44 14.03 38.14C13.76 38.84 13.51 39.54 13.27 40.26C13.04 40.97 12.83 41.69 12.64 42.42C12.44 43.15 12.27 43.88 12.13 44.62C11.98 45.35 11.85 46.09 11.75 46.84C11.64 47.58 11.56 48.33 11.5 49.08C11.43 49.83 11.39 50.58 11.38 51.33C11.36 52.08 11.36 52.83 11.39 53.59C11.42 54.34 11.46 55.09 11.53 55.84C11.6 56.58 11.7 57.33 11.81 58.07C11.92 58.82 12.06 59.56 12.21 60.29C12.37 61.03 12.55 61.76 12.75 62.48C12.95 63.21 13.17 63.92 13.41 64.64C13.65 65.35 13.91 66.05 14.19 66.75C14.48 67.45 14.78 68.13 15.1 68.81C15.42 69.49 15.76 70.16 16.13 70.82C16.49 71.48 16.87 72.13 17.27 72.77C17.67 73.4 18.08 74.03 18.52 74.64C18.96 75.25 19.41 75.85 19.88 76.44C20.35 77.02 20.84 77.6 21.34 78.15C21.85 78.71 22.37 79.25 22.9 79.78C23.44 80.31 23.99 80.82 24.56 81.32C25.12 81.81 25.7 82.29 26.29 82.75C26.89 83.21 27.49 83.65 28.11 84.08C28.73 84.51 29.37 84.91 30.01 85.3C30.65 85.69 31.31 86.06 31.97 86.41C32.64 86.76 33.31 87.1 33.99 87.41C34.68 87.72 35.37 88.01 36.07 88.28C36.77 88.55 37.48 88.8 38.2 89.03C38.91 89.26 39.64 89.47 40.36 89.66C41.09 89.85 41.83 90.01 42.56 90.16C43.3 90.3 44.04 90.42 44.79 90.53C45.53 90.63 46.28 90.71 47.03 90.76C47.78 90.82 48.53 90.86 49.28 90.87C50.03 90.89 50.78 90.88 51.53 90.85C52.29 90.82 53.04 90.77 53.78 90.69C54.53 90.62 55.28 90.52 56.02 90.41C56.76 90.29 57.5 90.15 58.24 89.99C58.97 89.83 59.7 89.65 60.42 89.45C61.15 89.24 61.87 89.02 62.58 88.78C63.29 88.53 63.99 88.27 64.69 87.98C65.38 87.69 66.07 87.39 66.75 87.06C69.09 85.87 71.53 84.95 74.07 84.27C76.61 83.6 79.19 83.21 81.81 83.09C85.37 82.85 88.84 83.29 92.22 84.43C92.43 84.51 92.64 84.61 92.83 84.74C93.02 84.86 93.2 85 93.36 85.16C93.53 85.32 93.68 85.49 93.81 85.68C93.94 85.87 94.05 86.07 94.14 86.28C94.23 86.48 94.3 86.7 94.35 86.92C94.4 87.15 94.42 87.37 94.43 87.6C94.43 87.83 94.41 88.06 94.37 88.28C94.33 88.51 94.27 88.73 94.19 88.94C94.1 89.15 94 89.35 93.88 89.54C93.75 89.74 93.61 89.92 93.45 90.08C93.29 90.24 93.12 90.39 92.93 90.52C92.75 90.65 92.55 90.76 92.34 90.85C92.13 90.95 91.91 91.02 91.69 91.06C91.47 91.11 91.24 91.14 91.01 91.14C90.78 91.15 90.56 91.13 90.33 91.09C90.11 91.05 89.89 90.99 89.68 90.9C87.15 90.11 84.57 89.8 81.93 89.97C79.81 90.08 77.74 90.4 75.69 90.94C73.65 91.48 71.68 92.23 69.79 93.18C66.7 94.67 63.49 95.8 60.15 96.56C56.81 97.33 53.42 97.72 50 97.72ZM43.18 32.95C43.18 33.17 43.19 33.4 43.21 33.62C43.23 33.84 43.26 34.06 43.31 34.28C43.35 34.5 43.41 34.72 43.47 34.93C43.54 35.14 43.61 35.35 43.7 35.56C43.78 35.77 43.88 35.97 43.98 36.16C44.09 36.36 44.2 36.55 44.33 36.74C44.45 36.92 44.58 37.1 44.72 37.27C44.87 37.45 45.02 37.61 45.17 37.77C45.33 37.93 45.5 38.08 45.67 38.22C45.84 38.36 46.02 38.49 46.21 38.62C46.39 38.74 46.58 38.86 46.78 38.96C46.98 39.07 47.18 39.16 47.39 39.25C47.59 39.33 47.8 39.41 48.02 39.47C48.23 39.54 48.45 39.59 48.66 39.64C48.88 39.68 49.1 39.71 49.33 39.73C49.55 39.76 49.77 39.77 50 39.77C50.22 39.77 50.44 39.76 50.66 39.73C50.89 39.71 51.11 39.68 51.33 39.64C51.54 39.59 51.76 39.54 51.97 39.47C52.19 39.41 52.4 39.33 52.6 39.25C52.81 39.16 53.01 39.07 53.21 38.96C53.41 38.86 53.6 38.74 53.78 38.62C53.97 38.49 54.15 38.36 54.32 38.22C54.49 38.08 54.66 37.93 54.82 37.77C54.97 37.61 55.12 37.45 55.27 37.27C55.41 37.1 55.54 36.92 55.66 36.74C55.79 36.55 55.9 36.36 56.01 36.16C56.11 35.97 56.21 35.77 56.29 35.56C56.38 35.35 56.45 35.14 56.52 34.93C56.58 34.72 56.64 34.5 56.68 34.28C56.73 34.06 56.76 33.84 56.78 33.62C56.8 33.4 56.81 33.17 56.81 32.95C56.81 32.73 56.8 32.5 56.78 32.28C56.76 32.06 56.73 31.84 56.68 31.62C56.64 31.4 56.58 31.18 56.52 30.97C56.45 30.76 56.38 30.55 56.29 30.34C56.21 30.13 56.11 29.93 56.01 29.74C55.9 29.54 55.79 29.35 55.66 29.16C55.54 28.98 55.41 28.8 55.27 28.62C55.12 28.45 54.97 28.29 54.82 28.13C54.66 27.97 54.49 27.82 54.32 27.68C54.15 27.54 53.97 27.4 53.78 27.28C53.6 27.16 53.41 27.04 53.21 26.94C53.01 26.83 52.81 26.74 52.6 26.65C52.4 26.56 52.19 26.49 51.97 26.42C51.76 26.36 51.54 26.31 51.33 26.26C51.11 26.22 50.89 26.19 50.66 26.16C50.44 26.14 50.22 26.13 50 26.13C49.77 26.13 49.55 26.14 49.33 26.16C49.1 26.19 48.88 26.22 48.66 26.26C48.45 26.31 48.23 26.36 48.02 26.42C47.8 26.49 47.59 26.56 47.39 26.65C47.18 26.74 46.98 26.83 46.78 26.94C46.58 27.04 46.39 27.16 46.21 27.28C46.02 27.4 45.84 27.54 45.67 27.68C45.5 27.82 45.33 27.97 45.17 28.13C45.02 28.29 44.87 28.45 44.72 28.62C44.58 28.8 44.45 28.98 44.33 29.16C44.2 29.35 44.09 29.54 43.98 29.74C43.88 29.93 43.78 30.13 43.7 30.34C43.61 30.55 43.54 30.76 43.47 30.97C43.41 31.18 43.35 31.4 43.31 31.62C43.26 31.84 43.23 32.06 43.21 32.28C43.19 32.5 43.18 32.73 43.18 32.95ZM22.63 52.27C22.63 52.49 22.64 52.71 22.66 52.94C22.69 53.16 22.72 53.38 22.76 53.6C22.81 53.82 22.86 54.03 22.93 54.25C22.99 54.46 23.07 54.67 23.15 54.88C23.24 55.08 23.33 55.28 23.44 55.48C23.54 55.68 23.66 55.87 23.78 56.06C23.9 56.24 24.04 56.42 24.18 56.59C24.32 56.77 24.47 56.93 24.63 57.09C24.79 57.25 24.95 57.4 25.12 57.54C25.3 57.68 25.48 57.81 25.66 57.94C25.85 58.06 26.04 58.18 26.24 58.28C26.43 58.39 26.63 58.48 26.84 58.57C27.05 58.65 27.26 58.73 27.47 58.79C27.68 58.86 27.9 58.91 28.12 58.95C28.34 59 28.56 59.03 28.78 59.05C29 59.08 29.23 59.09 29.45 59.09C29.67 59.09 29.9 59.08 30.12 59.05C30.34 59.03 30.56 59 30.78 58.95C31 58.91 31.22 58.86 31.43 58.79C31.64 58.73 31.85 58.65 32.06 58.57C32.27 58.48 32.47 58.39 32.66 58.28C32.86 58.18 33.05 58.06 33.24 57.94C33.42 57.81 33.6 57.68 33.78 57.54C33.95 57.4 34.11 57.25 34.27 57.09C34.43 56.93 34.58 56.77 34.72 56.59C34.86 56.42 34.99 56.24 35.12 56.06C35.24 55.87 35.36 55.68 35.46 55.48C35.57 55.28 35.66 55.08 35.75 54.88C35.83 54.67 35.91 54.46 35.97 54.25C36.04 54.03 36.09 53.82 36.14 53.6C36.18 53.38 36.21 53.16 36.23 52.94C36.26 52.71 36.27 52.49 36.27 52.27C36.27 52.04 36.26 51.82 36.23 51.6C36.21 51.38 36.18 51.16 36.14 50.94C36.09 50.72 36.04 50.5 35.97 50.29C35.91 50.07 35.83 49.86 35.75 49.66C35.66 49.45 35.57 49.25 35.46 49.05C35.36 48.86 35.24 48.67 35.12 48.48C34.99 48.29 34.86 48.11 34.72 47.94C34.58 47.77 34.43 47.6 34.27 47.45C34.11 47.29 33.95 47.14 33.78 47C33.6 46.86 33.42 46.72 33.24 46.6C33.05 46.47 32.86 46.36 32.66 46.25C32.47 46.15 32.27 46.05 32.06 45.97C31.85 45.88 31.64 45.81 31.43 45.74C31.22 45.68 31 45.62 30.78 45.58C30.56 45.54 30.34 45.5 30.12 45.48C29.9 45.46 29.67 45.45 29.45 45.45C29.23 45.45 29 45.46 28.78 45.48C28.56 45.5 28.34 45.54 28.12 45.58C27.9 45.62 27.68 45.68 27.47 45.74C27.26 45.81 27.05 45.88 26.84 45.97C26.63 46.05 26.43 46.15 26.24 46.25C26.04 46.36 25.85 46.47 25.66 46.6C25.48 46.72 25.3 46.86 25.12 47C24.95 47.14 24.79 47.29 24.63 47.45C24.47 47.6 24.32 47.77 24.18 47.94C24.04 48.11 23.9 48.29 23.78 48.48C23.66 48.67 23.54 48.86 23.44 49.05C23.33 49.25 23.24 49.45 23.15 49.66C23.07 49.86 22.99 50.07 22.93 50.29C22.86 50.5 22.81 50.72 22.76 50.94C22.72 51.16 22.69 51.38 22.66 51.6C22.64 51.82 22.63 52.04 22.63 52.27ZM43.18 71.56C43.18 71.79 43.19 72.01 43.21 72.23C43.23 72.45 43.26 72.67 43.31 72.89C43.35 73.11 43.41 73.33 43.47 73.54C43.54 73.76 43.61 73.97 43.7 74.17C43.78 74.38 43.88 74.58 43.98 74.78C44.09 74.97 44.2 75.17 44.33 75.35C44.45 75.54 44.58 75.72 44.72 75.89C44.87 76.06 45.02 76.23 45.17 76.38C45.33 76.54 45.5 76.69 45.67 76.83C45.84 76.98 46.02 77.11 46.21 77.23C46.39 77.36 46.58 77.47 46.78 77.58C46.98 77.68 47.18 77.78 47.39 77.86C47.59 77.95 47.8 78.02 48.02 78.09C48.23 78.15 48.45 78.21 48.66 78.25C48.88 78.29 49.1 78.33 49.33 78.35C49.55 78.37 49.77 78.38 50 78.38C50.22 78.38 50.44 78.37 50.66 78.35C50.89 78.33 51.11 78.29 51.33 78.25C51.54 78.21 51.76 78.15 51.97 78.09C52.19 78.02 52.4 77.95 52.6 77.86C52.81 77.78 53.01 77.68 53.21 77.58C53.41 77.47 53.6 77.36 53.78 77.23C53.97 77.11 54.15 76.98 54.32 76.83C54.49 76.69 54.66 76.54 54.82 76.38C54.97 76.23 55.12 76.06 55.27 75.89C55.41 75.72 55.54 75.54 55.66 75.35C55.79 75.17 55.9 74.97 56.01 74.78C56.11 74.58 56.21 74.38 56.29 74.17C56.38 73.97 56.45 73.76 56.52 73.54C56.58 73.33 56.64 73.11 56.68 72.89C56.73 72.67 56.76 72.45 56.78 72.23C56.8 72.01 56.81 71.79 56.81 71.56C56.81 71.34 56.8 71.12 56.78 70.89C56.76 70.67 56.73 70.45 56.68 70.23C56.64 70.01 56.58 69.8 56.52 69.58C56.45 69.37 56.38 69.16 56.29 68.95C56.21 68.75 56.11 68.55 56.01 68.35C55.9 68.15 55.79 67.96 55.66 67.78C55.54 67.59 55.41 67.41 55.27 67.24C55.12 67.07 54.97 66.9 54.82 66.74C54.66 66.58 54.49 66.43 54.32 66.29C54.15 66.15 53.97 66.02 53.78 65.89C53.6 65.77 53.41 65.66 53.21 65.55C53.01 65.44 52.81 65.35 52.6 65.26C52.4 65.18 52.19 65.1 51.97 65.04C51.76 64.97 51.54 64.92 51.33 64.88C51.11 64.83 50.89 64.8 50.66 64.78C50.44 64.76 50.22 64.75 50 64.75C49.77 64.75 49.55 64.76 49.33 64.78C49.1 64.8 48.88 64.83 48.66 64.88C48.45 64.92 48.23 64.97 48.02 65.04C47.8 65.1 47.59 65.18 47.39 65.26C47.18 65.35 46.98 65.44 46.78 65.55C46.58 65.66 46.39 65.77 46.21 65.89C46.02 66.02 45.84 66.15 45.67 66.29C45.5 66.43 45.33 66.58 45.17 66.74C45.02 66.9 44.87 67.07 44.72 67.24C44.58 67.41 44.45 67.59 44.33 67.78C44.2 67.96 44.09 68.15 43.98 68.35C43.88 68.55 43.78 68.75 43.7 68.95C43.61 69.16 43.54 69.37 43.47 69.58C43.41 69.8 43.35 70.01 43.31 70.23C43.26 70.45 43.23 70.67 43.21 70.89C43.19 71.12 43.18 71.34 43.18 71.56ZM63.7 52.27C63.7 52.49 63.71 52.71 63.73 52.94C63.75 53.16 63.79 53.38 63.83 53.6C63.87 53.82 63.93 54.03 63.99 54.25C64.06 54.46 64.13 54.67 64.22 54.88C64.3 55.08 64.4 55.28 64.5 55.48C64.61 55.68 64.72 55.87 64.85 56.06C64.97 56.24 65.11 56.42 65.25 56.59C65.39 56.77 65.54 56.93 65.7 57.09C65.85 57.25 66.02 57.4 66.19 57.54C66.37 57.68 66.54 57.81 66.73 57.94C66.92 58.06 67.11 58.18 67.3 58.28C67.5 58.39 67.7 58.48 67.91 58.57C68.11 58.65 68.32 58.73 68.54 58.79C68.75 58.86 68.97 58.91 69.19 58.95C69.41 59 69.63 59.03 69.85 59.05C70.07 59.08 70.29 59.09 70.52 59.09C70.74 59.09 70.96 59.08 71.19 59.05C71.41 59.03 71.63 59 71.85 58.95C72.07 58.91 72.28 58.86 72.5 58.79C72.71 58.73 72.92 58.65 73.13 58.57C73.33 58.48 73.53 58.39 73.73 58.28C73.93 58.18 74.12 58.06 74.31 57.94C74.49 57.81 74.67 57.68 74.84 57.54C75.02 57.4 75.18 57.25 75.34 57.09C75.5 56.93 75.65 56.77 75.79 56.59C75.93 56.42 76.06 56.24 76.19 56.06C76.31 55.87 76.43 55.68 76.53 55.48C76.64 55.28 76.73 55.08 76.82 54.88C76.9 54.67 76.98 54.46 77.04 54.25C77.11 54.03 77.16 53.82 77.21 53.6C77.25 53.38 77.28 53.16 77.3 52.94C77.33 52.71 77.34 52.49 77.34 52.27C77.34 52.04 77.33 51.82 77.3 51.6C77.28 51.38 77.25 51.16 77.2 50.94C77.16 50.72 77.11 50.5 77.04 50.29C76.98 50.07 76.9 49.86 76.82 49.66C76.73 49.45 76.64 49.25 76.53 49.05C76.43 48.86 76.31 48.67 76.19 48.48C76.06 48.29 75.93 48.11 75.79 47.94C75.65 47.77 75.5 47.6 75.34 47.45C75.18 47.29 75.02 47.14 74.84 47C74.67 46.86 74.49 46.72 74.31 46.6C74.12 46.47 73.93 46.36 73.73 46.25C73.53 46.15 73.33 46.05 73.13 45.97C72.92 45.88 72.71 45.81 72.5 45.74C72.28 45.68 72.07 45.62 71.85 45.58C71.63 45.54 71.41 45.5 71.19 45.48C70.96 45.46 70.74 45.45 70.52 45.45C70.29 45.45 70.07 45.46 69.85 45.48C69.63 45.5 69.41 45.54 69.19 45.58C68.97 45.62 68.75 45.68 68.54 45.74C68.32 45.81 68.11 45.88 67.91 45.97C67.7 46.05 67.5 46.15 67.3 46.25C67.11 46.36 66.92 46.47 66.73 46.6C66.54 46.72 66.37 46.86 66.19 47C66.02 47.14 65.85 47.29 65.7 47.45C65.54 47.6 65.39 47.77 65.25 47.94C65.11 48.11 64.97 48.29 64.85 48.48C64.72 48.67 64.61 48.86 64.5 49.05C64.4 49.25 64.3 49.45 64.22 49.66C64.13 49.86 64.06 50.07 63.99 50.29C63.93 50.5 63.87 50.72 63.83 50.94C63.79 51.16 63.75 51.38 63.73 51.6C63.71 51.82 63.7 52.04 63.7 52.27Z" fill="#7A7979" fill-opacity="1.000000" fill-rule="nonzero"/>
	</g>
</svg>
