<svg width="141.243591" height="141.243622" viewBox="0 0 141.244 141.244" fill="none" xmlns="http://www.w3.org/2000/svg" xmlns:xlink="http://www.w3.org/1999/xlink">
	<desc>
			Created with Pixso.
	</desc>
	<defs>
		<clipPath id="clip4_36">
			<rect id="图库" width="100.000000" height="100.000000" transform="translate(74.165894 0.000000) rotate(47.872925)" fill="white" fill-opacity="0"/>
		</clipPath>
	</defs>
	<g clip-path="url(#clip4_36)">
		<path id="path" d="M64.04 120.94L19.83 72.06C19.55 71.74 19.3 71.4 19.06 71.06C18.82 70.71 18.6 70.35 18.39 69.99C18.19 69.62 18 69.24 17.83 68.86C17.66 68.47 17.52 68.08 17.39 67.67C17.26 67.27 17.15 66.87 17.06 66.46C16.97 66.04 16.9 65.63 16.85 65.21C16.81 64.79 16.78 64.37 16.77 63.95C16.76 63.53 16.78 63.11 16.81 62.69C16.85 62.27 16.9 61.85 16.97 61.44C17.05 61.03 17.14 60.62 17.26 60.21C17.38 59.81 17.51 59.41 17.66 59.02C17.82 58.62 17.99 58.24 18.18 57.87C18.38 57.49 18.59 57.13 18.81 56.77C19.04 56.42 19.29 56.08 19.55 55.75C19.81 55.42 20.09 55.1 20.38 54.8C20.67 54.49 20.98 54.21 21.3 53.93L58.95 19.88C59.26 19.59 59.58 19.31 59.91 19.06C60.24 18.8 60.59 18.56 60.95 18.34C61.3 18.11 61.67 17.91 62.04 17.72C62.42 17.53 62.8 17.36 63.2 17.21C63.59 17.06 63.99 16.93 64.4 16.82C64.8 16.71 65.21 16.62 65.63 16.55C66.04 16.48 66.46 16.43 66.88 16.4C67.3 16.37 67.72 16.36 68.14 16.37C68.56 16.38 68.97 16.41 69.39 16.47C69.81 16.52 70.22 16.59 70.63 16.68C71.04 16.78 71.45 16.89 71.85 17.02C72.25 17.16 72.64 17.31 73.02 17.48C73.41 17.65 73.78 17.84 74.15 18.05C74.51 18.26 74.87 18.48 75.21 18.72C75.55 18.97 75.88 19.22 76.2 19.5C76.52 19.77 76.82 20.06 77.11 20.37L121.32 69.25C121.59 69.57 121.85 69.9 122.09 70.25C122.33 70.59 122.55 70.95 122.75 71.31C122.96 71.68 123.14 72.05 123.31 72.44C123.48 72.82 123.62 73.21 123.75 73.61C123.88 74.01 123.99 74.41 124.08 74.82C124.17 75.23 124.24 75.64 124.29 76.06C124.34 76.47 124.37 76.89 124.38 77.31C124.39 77.73 124.37 78.14 124.34 78.56C124.31 78.98 124.26 79.39 124.18 79.81C124.11 80.22 124.02 80.63 123.91 81.03C123.79 81.43 123.66 81.83 123.51 82.22C123.36 82.61 123.19 82.99 123 83.37C122.81 83.74 122.61 84.1 122.38 84.46C122.16 84.81 121.92 85.15 121.66 85.48C121.4 85.81 121.13 86.13 120.84 86.43C120.55 86.74 120.25 87.03 119.94 87.3L82.28 121.36C81.97 121.65 81.66 121.93 81.32 122.19C80.99 122.45 80.65 122.7 80.29 122.92C79.93 123.15 79.57 123.36 79.19 123.55C78.81 123.74 78.43 123.92 78.03 124.07C77.64 124.22 77.24 124.36 76.83 124.47C76.42 124.59 76.01 124.68 75.6 124.75C75.18 124.83 74.76 124.88 74.34 124.91C73.92 124.94 73.49 124.95 73.07 124.94C72.65 124.93 72.23 124.9 71.81 124.85C71.39 124.8 70.97 124.73 70.56 124.64C70.15 124.54 69.74 124.43 69.34 124.3C68.93 124.17 68.54 124.02 68.15 123.84C67.77 123.67 67.39 123.48 67.02 123.27C66.65 123.07 66.3 122.84 65.95 122.6C65.61 122.35 65.27 122.09 64.95 121.82C64.63 121.54 64.33 121.25 64.04 120.94ZM71.91 24.95C71.63 24.68 71.33 24.44 71.01 24.23C70.68 24.02 70.34 23.84 69.98 23.7C69.62 23.55 69.25 23.44 68.87 23.37C68.49 23.29 68.11 23.25 67.72 23.25C67.34 23.25 66.95 23.29 66.57 23.36C66.19 23.43 65.82 23.54 65.46 23.69C65.1 23.83 64.76 24.01 64.44 24.22C64.11 24.43 63.81 24.67 63.53 24.93L25.87 58.99C25.56 59.24 25.27 59.52 25.01 59.82C24.75 60.13 24.53 60.46 24.33 60.81C24.14 61.16 23.98 61.52 23.86 61.91C23.74 62.29 23.66 62.68 23.62 63.08C23.57 63.48 23.57 63.87 23.61 64.27C23.64 64.67 23.72 65.06 23.83 65.45C23.94 65.83 24.1 66.2 24.28 66.56C24.47 66.91 24.69 67.24 24.94 67.55L69.15 116.43C69.44 116.71 69.75 116.96 70.08 117.17C70.42 117.39 70.77 117.57 71.14 117.72C71.51 117.86 71.89 117.97 72.28 118.04C72.67 118.11 73.06 118.15 73.46 118.14C73.85 118.13 74.25 118.09 74.64 118C75.02 117.92 75.4 117.8 75.76 117.64C76.13 117.49 76.47 117.29 76.8 117.07C77.13 116.84 77.43 116.59 77.71 116.3L115.36 82.24C115.67 81.99 115.95 81.71 116.2 81.41C116.45 81.1 116.67 80.77 116.85 80.42C117.04 80.08 117.19 79.71 117.3 79.33C117.42 78.95 117.5 78.57 117.53 78.17C117.57 77.78 117.57 77.39 117.54 76.99C117.5 76.6 117.42 76.21 117.31 75.83C117.19 75.46 117.04 75.09 116.86 74.74C116.67 74.39 116.46 74.06 116.21 73.76L71.91 24.95ZM47.72 80.88C47.4 80.53 47.16 80.13 47.01 79.68C46.86 79.22 46.81 78.76 46.85 78.29C46.96 76.91 47 75.53 46.95 74.14C46.91 72.76 46.79 71.38 46.59 70.01C46.38 68.64 46.11 67.28 45.75 65.94C45.39 64.61 44.96 63.29 44.46 62C43.95 60.71 43.38 59.45 42.73 58.23C42.08 57.01 41.37 55.82 40.58 54.68C39.8 53.54 38.96 52.44 38.05 51.39C37.14 50.35 36.18 49.36 35.16 48.42L39.79 43.37C40.86 44.35 41.88 45.38 42.85 46.46C43.82 47.55 44.73 48.67 45.58 49.85C46.44 51.02 47.23 52.23 47.97 53.49C48.7 54.74 49.37 56.03 49.97 57.35C50.58 58.67 51.11 60.01 51.58 61.39C52.05 62.76 52.45 64.15 52.78 65.57C53.11 66.98 53.37 68.41 53.56 69.85C53.74 71.29 53.86 72.74 53.9 74.19C54.87 74.03 55.85 73.91 56.84 73.82C57.83 73.72 58.81 73.66 59.8 73.63C60.79 73.6 61.78 73.6 62.77 73.63C63.76 73.66 64.74 73.72 65.73 73.81C66.71 73.9 67.7 74.02 68.67 74.17C69.65 74.33 70.62 74.51 71.59 74.72C72.56 74.93 73.52 75.18 74.47 75.45C75.42 75.72 76.36 76.02 77.29 76.35C78.22 76.69 79.15 77.04 80.06 77.43C80.97 77.82 81.86 78.24 82.75 78.68C83.63 79.13 84.5 79.6 85.36 80.1C86.21 80.59 87.05 81.12 87.87 81.67C88.69 82.22 89.5 82.79 90.29 83.39C91.07 83.99 91.84 84.62 92.59 85.27C93.33 85.91 94.06 86.59 94.77 87.28C95.47 87.97 96.16 88.69 96.82 89.42C98.83 91.63 100.61 94.02 102.16 96.58L96.32 100.08C95 97.9 93.48 95.88 91.76 94C91.14 93.3 90.5 92.63 89.83 91.99C89.17 91.34 88.48 90.71 87.77 90.11C87.06 89.51 86.33 88.94 85.58 88.39C84.83 87.84 84.07 87.31 83.28 86.81C82.5 86.32 81.7 85.85 80.88 85.4C80.06 84.96 79.23 84.55 78.39 84.16C77.54 83.77 76.68 83.42 75.81 83.09C74.94 82.77 74.06 82.47 73.17 82.2C72.28 81.94 71.38 81.7 70.48 81.5C69.57 81.29 68.66 81.12 67.74 80.98C66.82 80.84 65.9 80.73 64.97 80.65C64.05 80.57 63.12 80.53 62.19 80.51C61.26 80.5 60.33 80.52 59.4 80.57C58.48 80.62 57.55 80.7 56.63 80.81C55.71 80.92 54.79 81.07 53.88 81.25C52.96 81.42 52.06 81.63 51.16 81.87C50.9 81.94 50.63 81.98 50.35 81.99C50.08 82 49.8 81.98 49.53 81.92C49.27 81.86 49.01 81.77 48.76 81.65C48.51 81.53 48.28 81.38 48.07 81.2C47.94 81.11 47.82 81 47.72 80.88ZM60.11 55.61C59.86 55.33 59.62 55.04 59.4 54.74C59.18 54.45 58.97 54.14 58.78 53.82C58.59 53.5 58.42 53.17 58.26 52.83C58.1 52.5 57.96 52.15 57.83 51.8C57.71 51.45 57.6 51.1 57.51 50.73C57.42 50.37 57.35 50.01 57.29 49.64C57.24 49.27 57.2 48.9 57.18 48.53C57.17 48.16 57.17 47.79 57.19 47.42C57.2 47.04 57.24 46.67 57.3 46.31C57.35 45.94 57.42 45.57 57.51 45.21C57.61 44.85 57.71 44.5 57.84 44.15C57.96 43.8 58.11 43.45 58.27 43.12C58.43 42.78 58.6 42.45 58.79 42.13C58.99 41.81 59.19 41.5 59.41 41.21C59.64 40.91 59.87 40.62 60.12 40.34C60.37 40.07 60.64 39.81 60.91 39.56C61.19 39.31 61.48 39.07 61.77 38.85C62.07 38.63 62.38 38.42 62.7 38.23C63.02 38.04 63.35 37.87 63.69 37.71C64.02 37.55 64.37 37.41 64.72 37.28C65.07 37.16 65.42 37.05 65.78 36.96C66.15 36.87 66.51 36.8 66.88 36.74C67.25 36.69 67.62 36.65 67.99 36.63C68.36 36.62 68.73 36.62 69.1 36.64C69.48 36.65 69.85 36.69 70.21 36.75C70.58 36.8 70.95 36.87 71.31 36.96C71.67 37.06 72.02 37.16 72.37 37.29C72.72 37.42 73.07 37.56 73.4 37.72C73.74 37.88 74.07 38.05 74.39 38.24C74.71 38.44 75.01 38.64 75.31 38.86C75.61 39.09 75.9 39.32 76.17 39.57C76.45 39.82 76.71 40.09 76.96 40.36C77.21 40.64 77.45 40.93 77.67 41.23C77.89 41.52 78.1 41.83 78.29 42.15C78.48 42.47 78.65 42.8 78.81 43.14C78.97 43.47 79.11 43.82 79.24 44.17C79.36 44.52 79.47 44.87 79.56 45.24C79.65 45.6 79.72 45.96 79.78 46.33C79.83 46.7 79.87 47.07 79.88 47.44C79.9 47.81 79.9 48.18 79.88 48.55C79.87 48.93 79.83 49.3 79.77 49.66C79.72 50.03 79.65 50.4 79.55 50.76C79.46 51.12 79.36 51.47 79.23 51.82C79.1 52.18 78.96 52.52 78.8 52.85C78.64 53.19 78.47 53.52 78.28 53.84C78.08 54.16 77.88 54.47 77.65 54.76C77.43 55.06 77.2 55.35 76.95 55.63C76.7 55.9 76.43 56.16 76.16 56.41C75.88 56.66 75.59 56.9 75.29 57.12C74.99 57.34 74.69 57.55 74.37 57.74C74.05 57.93 73.72 58.1 73.38 58.26C73.05 58.42 72.7 58.56 72.35 58.69C72 58.81 71.65 58.92 71.28 59.01C70.92 59.1 70.56 59.17 70.19 59.23C69.82 59.28 69.45 59.32 69.08 59.34C68.71 59.35 68.34 59.35 67.96 59.33C67.59 59.32 67.22 59.28 66.86 59.22C66.49 59.17 66.12 59.1 65.76 59.01C65.4 58.91 65.05 58.81 64.69 58.68C64.34 58.55 64 58.41 63.67 58.25C63.33 58.09 63 57.92 62.68 57.73C62.36 57.53 62.05 57.33 61.76 57.11C61.46 56.88 61.17 56.65 60.89 56.4C60.62 56.15 60.36 55.88 60.11 55.61ZM71.91 44.94C71.71 44.71 71.49 44.52 71.25 44.34C71.01 44.16 70.75 44.01 70.48 43.88C70.21 43.75 69.93 43.65 69.64 43.58C69.35 43.5 69.06 43.46 68.76 43.45C68.46 43.43 68.17 43.44 67.87 43.49C67.58 43.53 67.29 43.6 67.01 43.7C66.73 43.8 66.46 43.93 66.2 44.08C65.95 44.24 65.71 44.41 65.49 44.61C65.26 44.81 65.06 45.03 64.89 45.27C64.71 45.51 64.56 45.77 64.43 46.04C64.3 46.31 64.2 46.59 64.13 46.88C64.05 47.17 64.01 47.46 63.99 47.76C63.98 48.06 63.99 48.35 64.04 48.65C64.08 48.94 64.15 49.23 64.25 49.51C64.35 49.79 64.48 50.06 64.63 50.32C64.79 50.57 64.96 50.81 65.16 51.03C65.36 51.26 65.58 51.46 65.82 51.63C66.06 51.81 66.32 51.96 66.59 52.09C66.86 52.22 67.14 52.32 67.43 52.39C67.71 52.47 68.01 52.51 68.31 52.52C68.6 52.54 68.9 52.53 69.2 52.48C69.49 52.44 69.78 52.37 70.06 52.27C70.34 52.17 70.61 52.04 70.87 51.89C71.12 51.73 71.36 51.56 71.58 51.36C71.8 51.16 72 50.94 72.18 50.7C72.36 50.46 72.51 50.2 72.64 49.93C72.77 49.66 72.87 49.38 72.94 49.09C73.02 48.8 73.06 48.51 73.07 48.21C73.09 47.91 73.07 47.62 73.03 47.32C72.99 47.03 72.92 46.74 72.82 46.46C72.72 46.18 72.59 45.91 72.44 45.65C72.28 45.4 72.11 45.16 71.91 44.94Z" fill="#7A7979" fill-opacity="1.000000" fill-rule="nonzero"/>
	</g>
</svg>
