<svg width="139.668213" height="139.668213" viewBox="0 0 139.668 139.668" fill="none" xmlns="http://www.w3.org/2000/svg" xmlns:xlink="http://www.w3.org/1999/xlink">
	<desc>
			Created with Pixso.
	</desc>
	<defs>
		<clipPath id="clip4_26">
			<rect id="我爱玩" width="100.000000" height="100.000000" transform="translate(58.734619 0.000000) rotate(35.968906)" fill="white" fill-opacity="0"/>
		</clipPath>
	</defs>
	<g clip-path="url(#clip4_26)">
		<path id="path" d="M47.28 106.82C27.47 92.44 22.73 65.08 36.72 45.8C50.71 26.52 78.2 22.55 98.01 36.92C99.46 37.97 100.85 39.1 102.18 40.32C103.5 41.53 104.74 42.82 105.91 44.19C107.07 45.55 108.15 46.98 109.15 48.48C110.14 49.97 111.04 51.52 111.85 53.13C112.65 54.73 113.36 56.38 113.97 58.07C114.58 59.76 115.08 61.47 115.48 63.22C115.89 64.97 116.18 66.74 116.37 68.53C116.56 70.31 116.64 72.1 116.61 73.9C116.61 74.1 116.58 74.3 116.55 74.49C116.51 74.69 116.45 74.88 116.38 75.07C116.31 75.26 116.22 75.44 116.11 75.61C116.01 75.78 115.89 75.94 115.76 76.09C115.62 76.24 115.48 76.37 115.32 76.5C115.16 76.62 114.99 76.73 114.82 76.83C114.64 76.92 114.46 77 114.27 77.06C114.08 77.12 113.88 77.17 113.68 77.19C107.17 78.08 92.61 80.49 86.05 81.57C87.19 88.74 89.82 105.23 90.51 109.21C90.54 109.41 90.56 109.61 90.56 109.81C90.56 110.01 90.54 110.21 90.51 110.4C90.47 110.6 90.42 110.79 90.35 110.98C90.28 111.17 90.2 111.35 90.1 111.52C89.99 111.7 89.88 111.86 89.75 112.01C89.62 112.16 89.48 112.3 89.32 112.43C89.17 112.56 89 112.67 88.83 112.77C88.65 112.87 88.47 112.95 88.28 113.01C86.58 113.6 84.85 114.08 83.09 114.46C81.33 114.84 79.56 115.11 77.77 115.27C75.98 115.43 74.18 115.49 72.38 115.44C70.59 115.38 68.8 115.22 67.02 114.95C65.24 114.69 63.48 114.31 61.75 113.83C60.02 113.35 58.32 112.77 56.66 112.08C54.99 111.4 53.38 110.61 51.81 109.73C50.24 108.85 48.73 107.88 47.28 106.82ZM94 42.44C77.24 30.28 54.01 33.58 42.24 49.81C30.46 66.03 34.53 89.14 51.29 101.3C52.42 102.13 53.6 102.9 54.81 103.6C56.03 104.3 57.29 104.94 58.58 105.5C59.87 106.06 61.18 106.55 62.53 106.97C63.87 107.38 65.23 107.72 66.61 107.99C67.99 108.25 69.39 108.44 70.79 108.55C72.19 108.66 73.59 108.7 75 108.65C76.41 108.61 77.8 108.48 79.2 108.28C80.59 108.08 81.97 107.81 83.33 107.45C81.97 99.11 78.95 80.24 78.81 79.32C78.77 79.1 78.76 78.88 78.77 78.66C78.78 78.44 78.81 78.22 78.86 78C78.92 77.78 78.99 77.58 79.08 77.37C79.17 77.17 79.29 76.98 79.42 76.8C79.55 76.62 79.69 76.46 79.86 76.3C80.02 76.15 80.2 76.02 80.39 75.9C80.58 75.79 80.77 75.69 80.98 75.61C81.19 75.53 81.4 75.48 81.62 75.44C81.83 75.39 99.87 72.43 109.77 70.93C109.69 69.53 109.52 68.14 109.28 66.76C109.04 65.38 108.72 64.01 108.32 62.66C107.93 61.32 107.46 59.99 106.92 58.7C106.38 57.4 105.77 56.14 105.09 54.91C104.41 53.68 103.67 52.5 102.86 51.35C102.05 50.21 101.17 49.11 100.24 48.06C99.31 47.01 98.32 46.02 97.28 45.08C96.23 44.14 95.14 43.26 94 42.44ZM82.53 55.43C82.32 55.72 82.14 56.02 81.99 56.34C81.85 56.67 81.73 57 81.65 57.35C81.57 57.7 81.53 58.05 81.52 58.41C81.51 58.77 81.54 59.13 81.6 59.48C81.66 59.84 81.76 60.18 81.89 60.52C82.02 60.86 82.18 61.18 82.37 61.49C82.57 61.8 82.79 62.09 83.04 62.35C83.29 62.62 83.56 62.86 83.86 63.08C84.15 63.29 84.47 63.48 84.8 63.63C85.13 63.78 85.47 63.91 85.82 63.99C86.18 64.08 86.53 64.14 86.9 64.16C87.26 64.17 87.62 64.16 87.97 64.11C88.33 64.05 88.68 63.97 89.02 63.85C89.35 63.73 89.68 63.58 89.98 63.39C90.29 63.21 90.57 63 90.83 62.76C91.1 62.52 91.33 62.26 91.54 61.97C91.75 61.68 91.93 61.38 92.07 61.05C92.22 60.73 92.33 60.39 92.41 60.04C92.49 59.7 92.54 59.34 92.55 58.99C92.55 58.63 92.53 58.27 92.47 57.92C92.4 57.56 92.31 57.21 92.18 56.88C92.05 56.54 91.89 56.21 91.69 55.91C91.5 55.6 91.28 55.31 91.03 55.04C90.78 54.78 90.51 54.54 90.21 54.32C89.91 54.11 89.6 53.92 89.27 53.77C88.94 53.61 88.6 53.49 88.24 53.4C87.89 53.31 87.53 53.26 87.17 53.24C86.81 53.22 86.45 53.24 86.09 53.29C85.74 53.34 85.39 53.43 85.05 53.55C84.71 53.67 84.39 53.82 84.09 54C83.78 54.18 83.5 54.4 83.23 54.64C82.97 54.88 82.74 55.14 82.53 55.43Z" fill="#7A7979" fill-opacity="1.000000" fill-rule="nonzero"/>
	</g>
</svg>
