<svg width="139.112061" height="139.112091" viewBox="0 0 139.112 139.112" fill="none" xmlns="http://www.w3.org/2000/svg" xmlns:xlink="http://www.w3.org/1999/xlink">
	<desc>
			Created with Pixso.
	</desc>
	<defs>
		<clipPath id="clip4_46">
			<rect id="火花" width="100.000000" height="100.000000" transform="translate(0.000000 56.829865) rotate(-34.631668)" fill="white" fill-opacity="0"/>
		</clipPath>
	</defs>
	<g clip-path="url(#clip4_46)">
		<path id="path" d="M94.04 103.73C93 104.45 91.93 105.11 90.82 105.72C89.71 106.33 88.58 106.89 87.42 107.39C86.26 107.89 85.07 108.33 83.87 108.71C82.66 109.09 81.44 109.42 80.21 109.68C78.97 109.94 77.72 110.15 76.47 110.29C75.21 110.43 73.95 110.51 72.69 110.52C71.42 110.54 70.16 110.49 68.9 110.39C67.64 110.28 66.39 110.11 65.15 109.88L64.78 109.8C63.71 109.6 62.66 109.34 61.61 109.04C60.56 108.73 59.54 108.38 58.53 107.97C57.51 107.56 56.53 107.1 55.56 106.6C54.6 106.09 53.66 105.54 52.75 104.94C51.84 104.34 50.96 103.7 50.11 103.02C49.26 102.33 48.45 101.61 47.67 100.84C46.9 100.08 46.16 99.28 45.47 98.44C44.77 97.6 44.12 96.73 43.5 95.83C41.88 93.56 40.59 91.11 39.63 88.49C38.68 85.86 38.1 83.16 37.89 80.37L37.87 80.08C37.8 78.97 37.76 77.83 37.79 76.71L37.82 76.19C37.92 74.18 38.15 72.18 38.51 70.19L38.6 69.61L38.64 69.27L41.12 52.18L41.06 51.25L41.03 50.89L40.92 49.97L40.81 49.3C40.69 48.69 40.55 48.04 40.39 47.37C40.31 47.03 40.23 46.69 40.18 46.35C40.12 46 40.08 45.65 40.06 45.31C40.04 44.96 40.03 44.61 40.04 44.26C40.05 43.91 40.08 43.56 40.13 43.21C40.17 42.87 40.23 42.52 40.31 42.18C40.39 41.84 40.48 41.5 40.59 41.17C40.7 40.84 40.83 40.51 40.97 40.19C41.11 39.87 41.27 39.56 41.44 39.26C41.61 38.95 41.8 38.66 42 38.37C42.2 38.08 42.41 37.81 42.64 37.54C42.87 37.27 43.11 37.02 43.36 36.78C43.61 36.53 43.87 36.3 44.15 36.09C44.42 35.87 44.7 35.66 45 35.47C45.29 35.28 45.59 35.11 45.9 34.95C46.21 34.78 46.53 34.64 46.85 34.51C47.18 34.38 47.51 34.26 47.84 34.16C48.55 33.91 49.27 33.79 50.02 33.79L50.26 33.82C51.25 33.72 52.25 33.68 53.25 33.68C54.25 33.69 55.24 33.74 56.24 33.85C57.23 33.95 58.21 34.11 59.19 34.31C60.17 34.52 61.13 34.77 62.09 35.07C63.04 35.38 63.97 35.73 64.89 36.12C65.8 36.52 66.7 36.97 67.57 37.45C68.44 37.94 69.28 38.47 70.1 39.05C70.92 39.62 71.7 40.23 72.46 40.89C73.39 39.94 74.46 39.2 75.68 38.67L75.9 38.51C76.65 38.19 77.43 37.96 78.23 37.81C79.03 37.66 79.84 37.6 80.66 37.63C81.48 37.66 82.28 37.77 83.07 37.98C83.86 38.18 84.62 38.47 85.35 38.84L85.56 38.94C90.7 41.73 95.3 45.24 99.35 49.47L99.63 49.88C99.89 50.25 100.14 50.61 100.51 50.87L100.78 51.27C101.76 52.48 102.64 53.76 103.43 55.1C104.09 56.01 104.7 56.94 105.26 57.91C105.82 58.87 106.34 59.86 106.81 60.88C107.28 61.89 107.7 62.93 108.07 63.98C108.44 65.04 108.76 66.11 109.03 67.19C109.29 68.28 109.51 69.38 109.67 70.48C109.83 71.59 109.94 72.7 109.99 73.82C110.05 74.93 110.05 76.05 110 77.17C109.95 78.29 109.84 79.4 109.68 80.5L109.56 81.17C109.33 82.32 109.03 83.45 108.69 84.57C108.34 85.69 107.93 86.79 107.48 87.87C107.02 88.95 106.5 90.01 105.94 91.04C105.38 92.06 104.76 93.06 104.1 94.03C103.43 94.99 102.72 95.93 101.96 96.82C101.2 97.72 100.4 98.57 99.56 99.39C98.71 100.2 97.83 100.97 96.91 101.7C95.99 102.43 95.03 103.1 94.04 103.73ZM49.22 92.1C50.19 93.54 51.29 94.88 52.52 96.1C53.75 97.32 55.09 98.41 56.54 99.37C57.99 100.33 59.52 101.14 61.12 101.79C62.73 102.45 64.39 102.93 66.1 103.26L66.38 103.31C67.41 103.5 68.44 103.63 69.48 103.71C70.51 103.8 71.55 103.83 72.6 103.81C73.64 103.79 74.68 103.72 75.71 103.6C76.75 103.48 77.77 103.31 78.79 103.08C79.81 102.86 80.81 102.59 81.8 102.27C82.8 101.95 83.77 101.58 84.72 101.16C85.68 100.75 86.61 100.29 87.52 99.78C88.43 99.27 89.31 98.72 90.17 98.12C91.78 97.11 93.27 95.94 94.65 94.62C96.02 93.3 97.25 91.86 98.34 90.29C99.42 88.73 100.34 87.07 101.09 85.32C101.84 83.57 102.41 81.76 102.8 79.9L102.88 79.46C103.16 77.69 103.26 75.92 103.2 74.13C103.14 72.35 102.91 70.58 102.52 68.84C102.12 67.1 101.57 65.41 100.85 63.78C100.13 62.14 99.27 60.59 98.25 59.12C98.15 58.99 98.06 58.86 97.98 58.73C97.32 57.62 96.59 56.56 95.79 55.55L95.54 55.19L94.66 53.92C91.1 50.25 87.07 47.18 82.57 44.73C81.99 44.42 81.37 44.25 80.71 44.22C80.05 44.19 79.42 44.31 78.81 44.57L78.62 44.7C78.15 44.91 77.73 45.21 77.38 45.59C77.03 45.98 76.76 46.41 76.59 46.9C76.54 47.04 76.48 47.17 76.41 47.29C76.35 47.42 76.27 47.54 76.19 47.65C76.11 47.77 76.02 47.88 75.93 47.98C75.84 48.09 75.74 48.19 75.63 48.28C75.52 48.38 75.41 48.46 75.29 48.54C75.18 48.62 75.05 48.69 74.93 48.76C74.8 48.82 74.67 48.88 74.54 48.93C74.41 48.98 74.27 49.02 74.13 49.05C74 49.08 73.86 49.1 73.72 49.12C73.58 49.13 73.44 49.14 73.29 49.14C73.15 49.13 73.01 49.12 72.87 49.1C72.73 49.08 72.59 49.05 72.46 49.02C72.32 48.98 72.19 48.94 72.06 48.88C71.92 48.83 71.8 48.77 71.67 48.7C71.55 48.63 71.43 48.55 71.32 48.47C71.2 48.39 71.09 48.3 70.99 48.2C64.67 42.13 58.02 39.51 51.17 40.34C50.87 40.37 50.56 40.38 50.25 40.37L50.03 40.53C49.76 40.59 49.49 40.68 49.24 40.79C48.98 40.91 48.74 41.05 48.51 41.22C48.29 41.38 48.08 41.57 47.89 41.78C47.7 41.98 47.54 42.21 47.4 42.45C47.25 42.69 47.14 42.95 47.05 43.21C46.96 43.48 46.89 43.75 46.86 44.03C46.83 44.31 46.82 44.59 46.84 44.87C46.86 45.14 46.91 45.42 46.99 45.69C47.2 46.49 47.36 47.3 47.48 48.11L47.61 48.91C47.68 49.36 47.75 49.78 47.79 50.2L47.82 50.61L47.9 51.88L47.91 53.62L47.9 53.84L47.4 59.44L47.35 59.72L45.33 70.48L41.89 70.09L45.18 70.58L45.1 71.14C44.8 72.86 44.61 74.6 44.52 76.34L44.5 76.8C44.48 77.7 44.51 78.6 44.58 79.51L44.6 79.77C44.76 81.95 45.22 84.06 45.98 86.11C46.73 88.16 47.75 90.07 49.04 91.84L49.22 92.1Z" fill="#7A7979" fill-opacity="1.000000" fill-rule="nonzero"/>
		<path id="path" d="M55.52 71.87C55.52 71.87 53.38 83.57 64.58 88.07L55.52 71.87Z" fill="#7A7979" fill-opacity="1.000000" fill-rule="nonzero"/>
		<path id="path" d="M66.57 90.95C66.34 91.11 66.09 91.24 65.83 91.33C65.56 91.43 65.29 91.5 65.01 91.53C64.73 91.56 64.45 91.56 64.17 91.52C63.9 91.48 63.63 91.41 63.36 91.31C62.89 91.12 62.42 90.9 61.96 90.67C61.5 90.44 61.05 90.19 60.61 89.92C60.17 89.65 59.74 89.36 59.33 89.05C58.91 88.75 58.51 88.42 58.13 88.08C57.74 87.74 57.37 87.38 57.01 87.01C56.66 86.64 56.32 86.25 56 85.85C55.67 85.44 55.37 85.03 55.08 84.6C54.79 84.17 54.53 83.73 54.28 83.28C54.03 82.83 53.8 82.37 53.59 81.9C53.38 81.43 53.19 80.95 53.02 80.46C52.85 79.97 52.7 79.48 52.58 78.98C52.45 78.48 52.35 77.98 52.26 77.47C52.18 76.96 52.12 76.45 52.08 75.93C52.04 75.42 52.02 74.91 52.03 74.39C52.03 73.87 52.06 73.36 52.11 72.85C52.16 72.33 52.23 71.82 52.32 71.32C52.36 71.1 52.42 70.88 52.5 70.67C52.58 70.46 52.69 70.27 52.81 70.08C52.93 69.89 53.07 69.71 53.22 69.55C53.38 69.39 53.55 69.25 53.73 69.12C53.92 68.99 54.11 68.88 54.32 68.79C54.52 68.7 54.74 68.63 54.95 68.59C55.17 68.54 55.39 68.51 55.62 68.51C55.84 68.51 56.07 68.52 56.29 68.56C56.51 68.6 56.72 68.66 56.93 68.75C57.14 68.83 57.34 68.93 57.53 69.05C57.71 69.17 57.89 69.31 58.05 69.47C58.21 69.62 58.36 69.79 58.48 69.98C58.61 70.16 58.72 70.36 58.81 70.56C58.9 70.77 58.97 70.98 59.02 71.2C59.06 71.42 59.09 71.64 59.09 71.86C59.1 72.09 59.08 72.31 59.04 72.53C58.92 73.16 58.86 73.8 58.86 74.45C58.85 75.09 58.9 75.74 59.01 76.37C59.11 77.01 59.27 77.63 59.48 78.24C59.7 78.85 59.96 79.44 60.28 80C60.59 80.56 60.95 81.09 61.36 81.59C61.77 82.1 62.22 82.56 62.7 82.98C63.19 83.4 63.71 83.78 64.26 84.11C64.82 84.45 65.39 84.73 66 84.96C66.28 85.08 66.55 85.23 66.79 85.42C67.03 85.62 67.24 85.84 67.43 86.08C67.61 86.33 67.76 86.6 67.87 86.89C67.98 87.18 68.05 87.47 68.08 87.78C68.11 88.09 68.09 88.4 68.04 88.7C67.99 89 67.89 89.29 67.76 89.57C67.63 89.85 67.46 90.11 67.26 90.34C67.05 90.57 66.83 90.78 66.57 90.95Z" fill="#7A7979" fill-opacity="1.000000" fill-rule="nonzero"/>
	</g>
</svg>
