<svg width="137.439026" height="137.438995" viewBox="0 0 137.439 137.439" fill="none" xmlns="http://www.w3.org/2000/svg" xmlns:xlink="http://www.w3.org/1999/xlink">
	<desc>
			Created with Pixso.
	</desc>
	<defs>
		<clipPath id="clip4_44">
			<rect id="票" width="100.000000" height="100.000000" transform="translate(0.000000 52.057281) rotate(-31.370686)" fill="white" fill-opacity="0"/>
		</clipPath>
	</defs>
	<g clip-path="url(#clip4_44)">
		<path id="path" d="M120.11 85.29L59.95 121.97C59.6 122.18 59.24 122.38 58.88 122.56C58.51 122.74 58.13 122.9 57.75 123.04C57.36 123.18 56.97 123.31 56.58 123.41C56.18 123.52 55.78 123.6 55.38 123.66C54.97 123.73 54.56 123.77 54.16 123.8C53.75 123.82 53.34 123.82 52.93 123.81C52.52 123.79 52.11 123.76 51.71 123.7C51.3 123.64 50.9 123.57 50.5 123.47C50.1 123.38 49.71 123.26 49.32 123.13C48.94 122.99 48.56 122.84 48.18 122.67C47.81 122.5 47.45 122.31 47.1 122.1C46.74 121.89 46.4 121.67 46.07 121.43C45.74 121.18 45.42 120.93 45.12 120.65C44.81 120.38 44.52 120.1 44.24 119.79C43.96 119.49 43.7 119.18 43.45 118.85C43.21 118.52 42.98 118.19 42.76 117.84L34.48 104.25C34.36 104.06 34.27 103.86 34.19 103.65C34.11 103.44 34.05 103.22 34.02 103C33.98 102.78 33.97 102.56 33.98 102.33C33.98 102.11 34.01 101.88 34.07 101.67C34.12 101.45 34.19 101.24 34.29 101.03C34.38 100.83 34.49 100.63 34.63 100.45C34.76 100.27 34.91 100.1 35.07 99.95C35.24 99.8 35.42 99.66 35.61 99.55C35.8 99.43 35.98 99.31 36.16 99.17C36.34 99.04 36.51 98.89 36.67 98.74C36.84 98.59 37 98.43 37.14 98.27C37.29 98.1 37.43 97.93 37.56 97.75C37.7 97.57 37.82 97.38 37.93 97.19C38.05 96.99 38.15 96.8 38.24 96.59C38.34 96.39 38.42 96.19 38.49 95.97C38.57 95.76 38.63 95.55 38.68 95.33C38.74 95.12 38.78 94.9 38.81 94.68C38.84 94.45 38.86 94.23 38.87 94.01C38.88 93.79 38.88 93.56 38.87 93.34C38.85 93.12 38.83 92.9 38.79 92.67C38.76 92.45 38.72 92.24 38.66 92.02C38.6 91.8 38.54 91.59 38.46 91.38C38.38 91.17 38.3 90.97 38.2 90.76C38.1 90.56 38 90.37 37.88 90.18C37.76 89.99 37.64 89.8 37.5 89.62C37.37 89.44 37.23 89.27 37.08 89.11C36.92 88.94 36.77 88.79 36.6 88.64C36.43 88.49 36.26 88.35 36.08 88.22C35.9 88.09 35.71 87.96 35.52 87.85C35.33 87.74 35.13 87.63 34.93 87.54C34.72 87.45 34.52 87.36 34.31 87.29C34.1 87.22 33.88 87.15 33.66 87.1C33.45 87.05 33.23 87.01 33.01 86.97C32.79 86.94 32.56 86.92 32.34 86.91C32.12 86.9 31.89 86.91 31.67 86.92C31.45 86.93 31.23 86.95 31.01 86.99C30.79 87.02 30.57 87.07 30.35 87.12C30.14 87.18 29.92 87.25 29.71 87.32C29.5 87.4 29.3 87.49 29.1 87.58C28.9 87.68 28.7 87.79 28.51 87.9C28.32 88.02 28.12 88.12 27.91 88.19C27.7 88.27 27.48 88.33 27.26 88.36C27.04 88.4 26.82 88.41 26.59 88.4C26.37 88.39 26.15 88.36 25.93 88.31C25.71 88.25 25.5 88.18 25.3 88.09C25.1 87.99 24.9 87.88 24.72 87.75C24.54 87.62 24.38 87.47 24.23 87.3C24.07 87.14 23.94 86.96 23.82 86.77L15.54 73.18C15.33 72.84 15.13 72.48 14.95 72.11C14.78 71.74 14.62 71.36 14.47 70.98C14.33 70.6 14.21 70.21 14.11 69.81C14 69.42 13.92 69.02 13.86 68.61C13.79 68.21 13.75 67.8 13.73 67.39C13.7 66.98 13.7 66.58 13.72 66.17C13.73 65.76 13.77 65.35 13.83 64.95C13.88 64.54 13.96 64.14 14.05 63.74C14.15 63.34 14.27 62.95 14.4 62.56C14.53 62.18 14.69 61.8 14.86 61.43C15.03 61.06 15.22 60.7 15.43 60.34C15.64 59.99 15.86 59.65 16.1 59.32C16.34 58.99 16.6 58.67 16.87 58.36C17.14 58.06 17.43 57.77 17.73 57.49C18.03 57.21 18.35 56.95 18.67 56.71C19 56.46 19.34 56.23 19.69 56.02L79.84 19.34C80.19 19.13 80.55 18.93 80.92 18.75C81.29 18.57 81.66 18.41 82.05 18.27C82.43 18.13 82.82 18 83.22 17.9C83.61 17.8 84.01 17.71 84.42 17.65C84.82 17.58 85.23 17.54 85.64 17.51C86.05 17.49 86.46 17.49 86.87 17.5C87.28 17.52 87.68 17.55 88.09 17.61C88.49 17.67 88.9 17.74 89.29 17.84C89.69 17.93 90.09 18.05 90.47 18.18C90.86 18.32 91.24 18.47 91.61 18.64C91.98 18.81 92.35 19 92.7 19.21C93.05 19.42 93.39 19.64 93.72 19.89C94.06 20.13 94.37 20.38 94.68 20.66C94.99 20.93 95.28 21.22 95.55 21.52C95.83 21.82 96.09 22.13 96.34 22.46C96.59 22.79 96.82 23.12 97.03 23.47L105.31 37.06C105.43 37.25 105.53 37.45 105.61 37.66C105.69 37.87 105.74 38.09 105.78 38.31C105.82 38.53 105.83 38.75 105.82 38.98C105.81 39.2 105.78 39.43 105.73 39.64C105.68 39.86 105.6 40.07 105.51 40.28C105.42 40.48 105.3 40.68 105.17 40.86C105.04 41.04 104.89 41.21 104.72 41.36C104.56 41.51 104.38 41.65 104.19 41.76C104 41.88 103.81 42 103.63 42.14C103.46 42.27 103.29 42.42 103.12 42.57C102.96 42.72 102.8 42.88 102.65 43.04C102.5 43.21 102.36 43.38 102.23 43.56C102.1 43.74 101.98 43.93 101.86 44.12C101.75 44.32 101.65 44.51 101.55 44.72C101.46 44.92 101.37 45.12 101.3 45.34C101.23 45.55 101.16 45.76 101.11 45.98C101.06 46.19 101.02 46.41 100.99 46.63C100.95 46.86 100.93 47.08 100.93 47.3C100.92 47.52 100.92 47.75 100.93 47.97C100.94 48.19 100.97 48.41 101 48.64C101.04 48.86 101.08 49.07 101.14 49.29C101.19 49.51 101.26 49.72 101.34 49.93C101.41 50.14 101.5 50.34 101.6 50.55C101.69 50.75 101.8 50.94 101.92 51.13C102.03 51.32 102.16 51.51 102.29 51.69C102.43 51.87 102.57 52.04 102.72 52.2C102.87 52.37 103.03 52.52 103.2 52.67C103.36 52.82 103.54 52.96 103.72 53.09C103.9 53.22 104.08 53.35 104.28 53.46C104.47 53.57 104.67 53.68 104.87 53.77C105.07 53.86 105.28 53.95 105.49 54.02C105.7 54.09 105.91 54.16 106.13 54.21C106.35 54.26 106.57 54.3 106.79 54.34C107.01 54.37 107.23 54.39 107.45 54.4C107.68 54.41 107.9 54.4 108.12 54.39C108.35 54.38 108.57 54.36 108.79 54.32C109.01 54.29 109.23 54.24 109.44 54.19C109.66 54.13 109.87 54.06 110.08 53.99C110.29 53.91 110.5 53.82 110.7 53.73C110.9 53.63 111.1 53.52 111.29 53.41C111.48 53.29 111.68 53.19 111.89 53.12C112.1 53.04 112.31 52.98 112.54 52.95C112.76 52.91 112.98 52.9 113.2 52.91C113.43 52.92 113.65 52.95 113.87 53C114.08 53.06 114.29 53.13 114.5 53.22C114.7 53.32 114.89 53.43 115.07 53.56C115.25 53.69 115.42 53.84 115.57 54.01C115.72 54.17 115.86 54.35 115.97 54.54L124.25 68.13C124.47 68.47 124.66 68.83 124.84 69.2C125.02 69.57 125.18 69.95 125.32 70.33C125.46 70.71 125.59 71.1 125.69 71.5C125.79 71.89 125.87 72.29 125.94 72.7C126 73.1 126.05 73.51 126.07 73.92C126.09 74.33 126.1 74.73 126.08 75.14C126.06 75.55 126.03 75.96 125.97 76.36C125.91 76.77 125.84 77.17 125.74 77.57C125.65 77.97 125.53 78.36 125.4 78.75C125.26 79.13 125.11 79.51 124.94 79.88C124.76 80.25 124.57 80.61 124.37 80.97C124.16 81.32 123.94 81.66 123.69 81.99C123.45 82.32 123.2 82.64 122.92 82.95C122.65 83.25 122.36 83.54 122.06 83.82C121.76 84.1 121.45 84.36 121.12 84.6C120.8 84.85 120.46 85.08 120.11 85.29ZM41.84 103.23L48.59 114.29C48.78 114.61 49 114.9 49.25 115.18C49.5 115.45 49.78 115.7 50.08 115.92C50.38 116.14 50.7 116.33 51.03 116.48C51.37 116.64 51.72 116.76 52.08 116.85C52.44 116.94 52.81 116.99 53.18 117C53.55 117.02 53.92 117 54.29 116.94C54.66 116.88 55.02 116.79 55.37 116.66C55.71 116.53 56.05 116.37 56.36 116.17L116.52 79.5C116.84 79.3 117.14 79.08 117.42 78.83C117.7 78.58 117.95 78.31 118.17 78.01C118.39 77.71 118.58 77.39 118.74 77.05C118.9 76.71 119.03 76.36 119.12 76C119.21 75.63 119.26 75.27 119.28 74.89C119.29 74.52 119.27 74.15 119.21 73.78C119.16 73.41 119.06 73.05 118.93 72.7C118.8 72.35 118.64 72.01 118.44 71.69L111.7 60.63C110.98 60.85 110.25 61.01 109.51 61.11C108.76 61.2 108.01 61.24 107.26 61.21C106.51 61.19 105.77 61.1 105.03 60.95C104.3 60.8 103.58 60.6 102.88 60.33C102.18 60.06 101.5 59.74 100.85 59.36C100.21 58.98 99.59 58.55 99.01 58.07C98.44 57.59 97.9 57.07 97.41 56.5C96.92 55.93 96.48 55.33 96.09 54.69C95.7 54.04 95.36 53.38 95.08 52.68C94.8 51.98 94.58 51.27 94.42 50.53C94.26 49.8 94.16 49.06 94.12 48.31C94.08 47.56 94.1 46.81 94.18 46.07C94.27 45.32 94.41 44.59 94.61 43.86C94.82 43.14 95.08 42.44 95.4 41.76C95.72 41.08 96.1 40.43 96.53 39.82C96.95 39.2 97.43 38.62 97.95 38.08L91.21 27.02C91.02 26.71 90.79 26.41 90.54 26.13C90.29 25.86 90.02 25.61 89.72 25.39C89.42 25.17 89.1 24.98 88.76 24.83C88.42 24.67 88.07 24.55 87.71 24.46C87.35 24.37 86.98 24.32 86.61 24.31C86.24 24.29 85.87 24.31 85.5 24.37C85.14 24.43 84.78 24.52 84.43 24.65C84.08 24.78 83.75 24.94 83.43 25.14L23.28 61.81C22.95 62.01 22.65 62.23 22.38 62.48C22.1 62.73 21.85 63 21.63 63.3C21.4 63.6 21.21 63.92 21.05 64.26C20.89 64.6 20.77 64.95 20.68 65.31C20.59 65.68 20.54 66.04 20.52 66.42C20.5 66.79 20.52 67.16 20.58 67.53C20.64 67.9 20.73 68.26 20.86 68.61C20.99 68.96 21.16 69.3 21.35 69.62L28.09 80.68C28.81 80.46 29.54 80.3 30.29 80.2C31.03 80.11 31.78 80.07 32.53 80.1C33.28 80.12 34.02 80.21 34.76 80.36C35.5 80.51 36.22 80.71 36.92 80.98C37.62 81.25 38.29 81.57 38.94 81.95C39.59 82.33 40.2 82.76 40.78 83.24C41.36 83.72 41.89 84.24 42.38 84.81C42.87 85.38 43.31 85.98 43.7 86.62C44.1 87.27 44.43 87.93 44.71 88.63C44.99 89.33 45.21 90.04 45.38 90.78C45.54 91.51 45.64 92.25 45.68 93C45.72 93.75 45.7 94.5 45.61 95.24C45.53 95.99 45.39 96.72 45.18 97.45C44.98 98.17 44.71 98.87 44.39 99.55C44.07 100.23 43.7 100.88 43.27 101.49C42.84 102.11 42.37 102.69 41.84 103.23ZM80.09 58.9L54.86 74.29C54.67 74.4 54.47 74.5 54.26 74.58C54.05 74.65 53.83 74.71 53.61 74.74C53.39 74.78 53.17 74.79 52.95 74.78C52.72 74.77 52.5 74.74 52.28 74.69C52.07 74.64 51.86 74.56 51.65 74.47C51.45 74.37 51.26 74.26 51.08 74.13C50.9 74 50.73 73.85 50.58 73.68C50.43 73.52 50.29 73.34 50.18 73.15C50.06 72.96 49.96 72.76 49.89 72.55C49.81 72.34 49.75 72.12 49.72 71.9C49.68 71.68 49.67 71.46 49.68 71.23C49.69 71.01 49.72 70.79 49.77 70.57C49.83 70.35 49.9 70.14 49.99 69.94C50.09 69.74 50.2 69.55 50.33 69.36C50.47 69.18 50.61 69.02 50.78 68.87C50.94 68.71 51.12 68.58 51.31 68.46L76.54 53.08C76.73 52.97 76.93 52.87 77.14 52.79C77.35 52.72 77.57 52.66 77.79 52.63C78.01 52.59 78.23 52.58 78.46 52.59C78.68 52.6 78.9 52.63 79.12 52.68C79.33 52.73 79.55 52.81 79.75 52.9C79.95 53 80.14 53.11 80.32 53.24C80.5 53.37 80.67 53.52 80.82 53.69C80.97 53.85 81.11 54.03 81.22 54.22C81.34 54.41 81.44 54.61 81.52 54.82C81.59 55.03 81.65 55.25 81.68 55.47C81.72 55.69 81.73 55.91 81.72 56.14C81.71 56.36 81.68 56.58 81.63 56.8C81.57 57.01 81.5 57.23 81.41 57.43C81.31 57.63 81.2 57.82 81.07 58C80.94 58.18 80.79 58.35 80.62 58.5C80.46 58.65 80.28 58.79 80.09 58.9ZM88.55 72.78L63.32 88.16C63.13 88.28 62.93 88.37 62.72 88.45C62.51 88.53 62.29 88.58 62.07 88.62C61.85 88.65 61.63 88.66 61.41 88.65C61.18 88.64 60.96 88.61 60.75 88.56C60.53 88.51 60.32 88.43 60.12 88.34C59.91 88.24 59.72 88.13 59.54 88C59.36 87.87 59.19 87.72 59.04 87.55C58.89 87.39 58.76 87.21 58.64 87.02C58.52 86.83 58.43 86.63 58.35 86.42C58.27 86.21 58.22 85.99 58.18 85.77C58.15 85.55 58.14 85.33 58.14 85.11C58.15 84.88 58.18 84.66 58.24 84.45C58.29 84.23 58.36 84.02 58.46 83.82C58.55 83.61 58.66 83.42 58.8 83.24C58.93 83.06 59.08 82.89 59.24 82.74C59.4 82.59 59.58 82.46 59.77 82.34L85 66.96C85.19 66.84 85.39 66.74 85.6 66.67C85.81 66.59 86.03 66.53 86.25 66.5C86.47 66.46 86.69 66.45 86.92 66.46C87.14 66.47 87.36 66.5 87.58 66.55C87.8 66.61 88.01 66.68 88.21 66.77C88.41 66.87 88.61 66.98 88.79 67.11C88.97 67.24 89.13 67.39 89.29 67.56C89.44 67.72 89.57 67.9 89.69 68.09C89.8 68.28 89.9 68.48 89.98 68.69C90.06 68.9 90.11 69.12 90.15 69.34C90.18 69.56 90.19 69.79 90.18 70.01C90.17 70.23 90.14 70.45 90.09 70.67C90.04 70.89 89.96 71.1 89.87 71.3C89.77 71.51 89.66 71.7 89.53 71.88C89.4 72.06 89.25 72.23 89.08 72.38C88.92 72.53 88.74 72.66 88.55 72.78Z" fill="#7A7979" fill-opacity="1.000000" fill-rule="nonzero"/>
	</g>
</svg>
