<svg width="40.000000" height="40.000000" viewBox="0 0 40 40" fill="none" xmlns="http://www.w3.org/2000/svg" xmlns:xlink="http://www.w3.org/1999/xlink">
	<desc>
			Created with Pixso.
	</desc>
	<defs>
		<clipPath id="clip13_93">
			<rect id="咖啡,休息,喝,茶杯,杯" width="40.000000" height="40.000000" fill="white" fill-opacity="0"/>
		</clipPath>
	</defs>
	<g clip-path="url(#clip13_93)">
		<path id="path" d="M40 31.87L40 33.33C40 34 39.73 34.64 39.26 35.1L39.25 35.11C38.13 36.24 36.6 36.87 35 36.87L4.96 36.87C4.17 36.87 3.39 36.71 2.68 36.42C1.96 36.13 1.3 35.7 0.74 35.14C0.26 34.67 0 34.03 0 33.36L0 31.87C0 31.18 0.55 30.62 1.25 30.62L38.75 30.62C39.44 30.62 40 31.18 40 31.87ZM37.8 5.32C36.44 3.96 34.57 3.12 32.5 3.12L5 3.12L5 24.37C5 26.44 6.67 28.12 8.75 28.12L27.5 28.12C29.57 28.12 31.25 26.44 31.25 24.37L31.25 21.47C31.25 20.65 31.9 19.97 32.72 19.94C34.85 19.41 36.67 18.18 37.96 16.53C39.25 14.89 40 12.83 40 10.62C40 8.55 39.16 6.67 37.8 5.32ZM37.1 12.96C36.84 13.69 36.47 14.38 35.99 14.99C35.51 15.6 34.94 16.13 34.29 16.56C33.64 16.99 32.94 17.3 32.19 17.5L31.87 17.5C31.53 17.5 31.25 17.21 31.25 16.87L31.25 6.25C31.25 5.9 31.53 5.62 31.87 5.62L32.44 5.62C33.77 5.62 35.05 6.12 36 7.05C36.96 8 37.5 9.27 37.5 10.62C37.5 11.42 37.36 12.21 37.1 12.96Z" fill="#444444" fill-opacity="1.000000" fill-rule="nonzero"/>
	</g>
</svg>
