<svg width="35.000000" height="35.000000" viewBox="0 0 35 35" fill="none" xmlns="http://www.w3.org/2000/svg" xmlns:xlink="http://www.w3.org/1999/xlink">
	<desc>
			Created with Pixso.
	</desc>
	<defs>
		<clipPath id="clip13_90">
			<rect id="github4" width="35.000000" height="35.000000" fill="white" fill-opacity="0"/>
		</clipPath>
	</defs>
	<g clip-path="url(#clip13_90)">
		<path id="path" d="M17.5 0C7.83 0 0 7.83 0 17.5C0 27.16 7.83 35 17.5 35C27.16 35 35 27.16 35 17.5C35 7.83 27.16 0 17.5 0ZM27.89 27.89C26.54 29.24 24.97 30.3 23.22 31.04C22.77 31.23 22.32 31.39 21.86 31.53L21.86 28.91C21.86 27.53 21.39 26.52 20.44 25.87C21.04 25.81 21.58 25.73 22.07 25.63C22.57 25.53 23.09 25.38 23.65 25.19C24.2 24.99 24.7 24.76 25.13 24.49C25.57 24.23 25.99 23.88 26.4 23.45C26.8 23.03 27.14 22.54 27.42 22C27.69 21.46 27.91 20.81 28.07 20.05C28.22 19.29 28.3 18.46 28.3 17.55C28.3 15.78 27.73 14.28 26.58 13.04C27.1 11.67 27.05 10.18 26.41 8.58L25.98 8.52C25.68 8.49 25.15 8.61 24.38 8.9C23.61 9.19 22.75 9.65 21.79 10.3C20.44 9.93 19.03 9.74 17.57 9.74C16.1 9.74 14.7 9.93 13.37 10.3C12.76 9.89 12.19 9.55 11.65 9.28C11.11 9.02 10.68 8.83 10.35 8.74C10.03 8.64 9.72 8.58 9.45 8.56C9.17 8.54 8.99 8.53 8.91 8.54C8.83 8.55 8.77 8.56 8.74 8.57C8.1 10.19 8.04 11.68 8.57 13.03C7.42 14.28 6.84 15.78 6.84 17.55C6.84 18.46 6.92 19.29 7.08 20.05C7.24 20.81 7.46 21.46 7.73 22C8 22.54 8.34 23.02 8.75 23.45C9.15 23.88 9.57 24.22 10.01 24.49C10.45 24.76 10.95 24.99 11.5 25.19C12.05 25.38 12.57 25.53 13.07 25.63C13.57 25.73 14.11 25.81 14.7 25.87C13.77 26.51 13.3 27.52 13.3 28.91L13.3 31.58C12.79 31.43 12.28 31.25 11.78 31.04C10.03 30.3 8.46 29.24 7.1 27.89C5.75 26.54 4.69 24.96 3.95 23.21C3.19 21.4 2.8 19.48 2.8 17.49C2.8 15.51 3.19 13.58 3.95 11.77C4.69 10.02 5.75 8.45 7.1 7.1C8.46 5.75 10.03 4.69 11.78 3.95C13.59 3.18 15.51 2.8 17.5 2.8C19.48 2.8 21.41 3.18 23.22 3.95C24.97 4.69 26.54 5.75 27.89 7.1C29.24 8.45 30.3 10.02 31.04 11.77C31.81 13.58 32.2 15.51 32.2 17.49C32.2 19.48 31.81 21.4 31.04 23.21C30.3 24.96 29.24 26.54 27.89 27.89Z" fill="#444444" fill-opacity="1.000000" fill-rule="nonzero"/>
	</g>
</svg>
