<svg width="48.000000" height="48.000000" viewBox="0 0 48 48" fill="none" xmlns="http://www.w3.org/2000/svg" xmlns:xlink="http://www.w3.org/1999/xlink">
	<desc>
			Created with Pixso.
	</desc>
	<defs>
		<clipPath id="clip13_84">
			<rect id="microsoftoutlook" width="48.000000" height="48.000000" fill="white" fill-opacity="0"/>
		</clipPath>
	</defs>
	<g clip-path="url(#clip13_84)">
		<path id="path" d="M48 14.77L48 35.73C48 35.94 47.96 36.15 47.88 36.35C47.8 36.55 47.68 36.73 47.52 36.88C47.36 37.03 47.19 37.14 46.99 37.22C46.78 37.3 46.58 37.34 46.36 37.34L29.27 37.34L29.27 23.42L32.47 25.88C32.69 26.06 32.94 26.14 33.22 26.13C33.51 26.14 33.77 26.05 34 25.88L48 14.77ZM29.27 10.73L46.36 10.73C46.78 10.73 47.15 10.85 47.45 11.11C47.75 11.37 47.91 11.71 47.94 12.13L33.2 23.88L29.27 20.79L29.27 10.73ZM26.8 1.72L26.8 46.27L0 41.63L0 6.48L26.8 1.72ZM18.7 24.08C18.67 21.82 18.08 19.94 16.95 18.46C15.84 16.98 14.4 16.19 12.69 16.13C11.04 16.19 9.63 16.97 8.48 18.46C7.35 19.94 6.78 21.82 6.75 24.08C6.78 26.32 7.38 28.18 8.51 29.67C9.66 31.15 11.06 31.93 12.72 32.02C14.43 31.95 15.87 31.17 17.01 29.68C18.15 28.18 18.75 26.32 18.78 24.08L18.7 24.08ZM12.47 19.12C13.33 19.16 14.05 19.63 14.63 20.55C15.2 21.48 15.5 22.64 15.5 24.06C15.5 25.5 15.2 26.67 14.63 27.6C14.03 28.53 13.31 29.01 12.44 29.01C11.57 29.01 10.85 28.56 10.25 27.63C9.65 26.7 9.38 25.53 9.38 24.12C9.38 22.71 9.65 21.54 10.25 20.64C10.82 19.74 11.54 19.26 12.41 19.2L12.47 19.12Z" fill="#444444" fill-opacity="1.000000" fill-rule="nonzero"/>
	</g>
</svg>
