<svg xmlns="http://www.w3.org/2000/svg" viewBox="0 0 376.56 333.31"><defs><style>.cls-1{fill:#fff;}.cls-1,.cls-2,.cls-3,.cls-4{stroke:#333;stroke-miterlimit:10;stroke-width:5px;}.cls-2{fill:#f2f2f2;}.cls-3{fill:#fafafa;}.cls-4{fill:#f5f5f5;}</style></defs><g id="图层_2" data-name="图层 2"><g id="透视版"><path class="cls-1" d="M187.35,238.24l-2.22,12.38c-.63,3.55-2.87,6.31-5.06,6.15l-158-11.26c-11.91-.85-21-8.85-19.42-17.81l5.58-31.23c1.61-8.95,12.93-13.3,24.4-10l10.61,3.08-.21-.61a10.25,10.25,0,0,1,6.44-13l.37-.13a10.26,10.26,0,0,1,13,6.44l4.06,12a9.85,9.85,0,0,1,.5,2.36l117.28,34.1C186.84,231.32,188,234.68,187.35,238.24Z"/><g id="身体"><path class="cls-2" d="M311.33,303.57l-16,20.26c-.7.89-1.65.29-2.11-1.37l-28.58-101.9c-1-3.51-.86-7.17.3-8.09l25.64-20.38c1-.78,2.26,1.42,2.88,4.85L311.9,299.07C312.21,300.78,312,302.78,311.33,303.57Z"/><path class="cls-3" d="M291.74,326.16l-85.88,4.65c-2.94.16-6.49-2.78-8-6.6l-48-124.4c-2.16-5.61-1.18-10.79,2.26-11.49l102.55-21c4.24-.87,8.88,3.75,10.32,10.23l31.31,140.63C297.29,322.43,295.21,326,291.74,326.16Z"/></g><path class="cls-4" d="M362.76,273.37l-75.45-30.92c-5.83-2.39-9.2-7.75-7.32-11.87l4-8.71c1.88-4.13,8.13-5.09,13.76-2.25l72.79,36.73a6.16,6.16,0,0,1,3,8l-2.78,6.11A6.18,6.18,0,0,1,362.76,273.37Z"/><g id="头"><path class="cls-1" d="M290.74,91.08,103.79,109.32c-4.1.4-4.91-1.7-1.86-4.68L144,63.73a21.77,21.77,0,0,1,11.41-5.19l173-15.94c1.78-.16,2.54.67,1.7,1.86L301.39,85.29C299.43,88.1,294.65,90.7,290.74,91.08Z"/><path id="前脸" class="cls-1" d="M273.3,229.19,135.38,225c-6.82-.21-13.43-4.89-14.85-10.58L96.85,119.68c-2.09-8.35,2.89-15.73,11.27-16.27L282.54,92.28c11-.7,19.15,7,18.16,16.87L289.77,218.23C289.13,224.6,281.72,229.44,273.3,229.19Z"/><path class="cls-2" d="M317.84,176.58l-31.31,48.49c-.43.66-.73.69-.68.06L297,93.43a5.86,5.86,0,0,1,.89-2.37l31.81-47.35c.42-.62.72-.6.66,0L318.69,174.28A5.89,5.89,0,0,1,317.84,176.58Z"/></g><g id="右犄角"><path class="cls-1" d="M168.22,73l-30,1.61c-.73,0-.6-1.57.25-3.52l20.65-47.22c1.62-3.69,4.87-6.55,7.49-6.87l4.23-.52c2.77-.35,4.75,2,4.33,5.79l-5.13,47C169.83,71.27,169,73,168.22,73Z"/><path class="cls-2" d="M181.49,61,170.75,72.17c-.09.1-.13-.28-.08-.84L175.22,18c0-.09,0-.13.07-.11L179.88,22a.44.44,0,0,1,.05.18l1.61,38.22A1.74,1.74,0,0,1,181.49,61Z"/></g><g id="左犄角"><path class="cls-1" d="M291.2,9.37,280.08,6.72c-.09,0-.05-.12.09-.22l4.7-3.4a1,1,0,0,1,.42-.16l12.94-.44c.34,0,.5.1.36.24l-6.43,6.4A1.15,1.15,0,0,1,291.2,9.37Z"/><path class="cls-2" d="M309.4,48.4,297.21,66.08c-.13.2-.28-.66-.33-1.87l-2.44-57.1c0-.13,0-.25.07-.27l4.64-2.49s.09.06.12.17l10,42.23A4.06,4.06,0,0,1,309.4,48.4Z"/><path class="cls-1" d="M293.36,66.12l-30.28,1.4c-2.33.11-2.85-4.18-1.31-9.08l14.5-46.26c1.42-4.52,5.44-7.7,9.21-7.83l.83,0c4-.14,7.4,3,7.71,7.73l2.92,44.82C297.25,61.66,295.66,66,293.36,66.12Z"/></g></g></g></svg>