<svg xmlns="http://www.w3.org/2000/svg" viewBox="0 0 53.68 66.81"><defs><style>.cls-1{fill:#333;}</style></defs><g id="图层_2" data-name="图层 2"><g id="透视版"><g id="头"><g id="眼睛组"><g id="眼睛-眨眼"><path class="cls-1" d="M48.7,16.94,11.56,41.49a7.55,7.55,0,0,1-10-2h0a6.91,6.91,0,0,1,.88-9.75L37.54,2.52C42.21-1.11,48.78-.81,52,3.35h0C55.23,7.52,53.64,13.66,48.7,16.94Z"/><path class="cls-1" d="M43.47,58.34,14.37,34c-4.41-3.7-10.3-4.45-12.8-1.39h0C-.93,35.63,1.21,41,6,44.24L37.38,65.79a5.27,5.27,0,0,0,7-.69h0A4.84,4.84,0,0,0,43.47,58.34Z"/></g></g></g></g></g></svg>