<svg width="99.570831" height="99.570831" viewBox="0 0 99.5708 99.5708" fill="none" xmlns="http://www.w3.org/2000/svg" xmlns:xlink="http://www.w3.org/1999/xlink">
	<desc>
			Created with Pixso.
	</desc>
	<defs>
		<clipPath id="clip4_12">
			<rect id="sharpicons_cross" width="70.568085" height="70.568085" transform="translate(99.570831 46.417938) rotate(131.130402)" fill="white" fill-opacity="0"/>
		</clipPath>
	</defs>
	<g clip-path="url(#clip4_12)">
		<path id="path" d="M43.62 76.93L57.05 64.61L70.35 73.58C70.46 73.65 70.58 73.72 70.7 73.77C70.82 73.82 70.95 73.86 71.08 73.9C71.21 73.93 71.34 73.94 71.47 73.95C71.6 73.96 71.74 73.95 71.87 73.94C72 73.92 72.13 73.89 72.26 73.85C72.39 73.81 72.51 73.76 72.62 73.69C72.74 73.63 72.85 73.56 72.96 73.47C73.06 73.39 73.16 73.3 73.25 73.2L76.15 69.88C76.23 69.78 76.31 69.67 76.38 69.56C76.45 69.44 76.51 69.32 76.55 69.2C76.6 69.07 76.63 68.94 76.66 68.81C76.68 68.68 76.69 68.55 76.69 68.42C76.69 68.28 76.68 68.15 76.65 68.02C76.63 67.89 76.59 67.76 76.54 67.64C76.5 67.51 76.44 67.39 76.37 67.28C76.3 67.17 76.22 67.06 76.13 66.96L65.45 54.99L75.85 40.02C75.93 39.91 76 39.79 76.05 39.67C76.11 39.55 76.15 39.42 76.18 39.29C76.21 39.16 76.24 39.03 76.24 38.89C76.25 38.76 76.25 38.63 76.23 38.49C76.21 38.36 76.19 38.23 76.15 38.1C76.1 37.97 76.05 37.85 75.99 37.73C75.93 37.61 75.85 37.5 75.77 37.39C75.69 37.29 75.59 37.19 75.49 37.1L72.17 34.2C72.07 34.11 71.96 34.03 71.84 33.96C71.73 33.9 71.61 33.84 71.48 33.79C71.36 33.74 71.23 33.71 71.09 33.69C70.96 33.66 70.83 33.65 70.69 33.66C70.56 33.66 70.42 33.67 70.29 33.7C70.16 33.72 70.03 33.76 69.91 33.81C69.78 33.86 69.66 33.92 69.55 33.99C69.43 34.06 69.33 34.15 69.23 34.24L55.88 46.48L29.32 26.06C29.21 25.98 29.09 25.9 28.97 25.84C28.84 25.78 28.72 25.73 28.58 25.69C28.45 25.65 28.31 25.63 28.17 25.62C28.04 25.6 27.9 25.6 27.76 25.62C27.62 25.63 27.48 25.66 27.35 25.7C27.22 25.74 27.09 25.79 26.97 25.85C26.84 25.92 26.73 25.99 26.62 26.08C26.51 26.16 26.41 26.26 26.32 26.36L23.41 29.68C23.32 29.79 23.24 29.9 23.17 30.02C23.1 30.14 23.04 30.27 23 30.4C22.95 30.53 22.92 30.66 22.9 30.8C22.87 30.94 22.87 31.08 22.87 31.21C22.88 31.35 22.9 31.49 22.93 31.63C22.96 31.76 23 31.89 23.06 32.02C23.11 32.15 23.18 32.27 23.26 32.38C23.34 32.5 23.43 32.6 23.52 32.7L47.33 56.27L37 71.14C36.92 71.25 36.85 71.37 36.8 71.49C36.74 71.62 36.7 71.74 36.67 71.87C36.63 72 36.61 72.14 36.61 72.27C36.6 72.41 36.6 72.54 36.62 72.67C36.64 72.81 36.66 72.94 36.7 73.07C36.74 73.19 36.8 73.32 36.86 73.44C36.92 73.56 37 73.67 37.08 73.77C37.16 73.88 37.26 73.98 37.36 74.06L40.68 76.97C40.78 77.05 40.89 77.13 41 77.2C41.12 77.27 41.24 77.33 41.37 77.37C41.49 77.42 41.62 77.46 41.76 77.48C41.89 77.5 42.02 77.51 42.16 77.51C42.29 77.51 42.42 77.49 42.56 77.47C42.69 77.44 42.82 77.4 42.94 77.35C43.07 77.3 43.19 77.24 43.3 77.17C43.42 77.1 43.52 77.02 43.62 76.93ZM41.74 72.04L52.01 57.26C52.09 57.16 52.15 57.05 52.2 56.93C52.26 56.81 52.3 56.69 52.33 56.57C52.37 56.44 52.39 56.32 52.4 56.19C52.41 56.06 52.41 55.93 52.4 55.8C52.39 55.67 52.36 55.55 52.33 55.42C52.3 55.3 52.25 55.18 52.2 55.06C52.14 54.95 52.08 54.84 52 54.73C51.93 54.63 51.85 54.53 51.75 54.44L28.1 31.02L28.28 30.82L54.66 51.11C54.76 51.19 54.87 51.26 54.99 51.31C55.1 51.37 55.22 51.42 55.34 51.46C55.46 51.5 55.59 51.53 55.72 51.54C55.84 51.56 55.97 51.57 56.1 51.56C56.23 51.56 56.36 51.54 56.48 51.51C56.61 51.48 56.73 51.44 56.85 51.39C56.97 51.35 57.08 51.29 57.19 51.22C57.3 51.15 57.4 51.07 57.49 50.98L70.76 38.82L71.11 39.13L60.84 53.9C60.7 54.11 60.59 54.33 60.53 54.57C60.46 54.81 60.43 55.05 60.45 55.3C60.46 55.54 60.52 55.78 60.61 56.01C60.71 56.24 60.84 56.45 61 56.63L71.55 68.44L71.2 68.83L58.08 59.98C57.87 59.84 57.65 59.74 57.41 59.67C57.17 59.61 56.93 59.59 56.68 59.61C56.43 59.62 56.2 59.68 55.97 59.78C55.74 59.88 55.54 60.01 55.35 60.18L42.09 72.35L41.74 72.04Z" fill="#F9ED69" fill-opacity="1.000000" fill-rule="nonzero"/>
		<path id="path" d="M76.23 54.24C76.22 54.1 76.18 53.96 76.11 53.83C76.05 53.7 75.96 53.58 75.85 53.49C75.74 53.39 75.62 53.32 75.48 53.27C75.34 53.23 75.2 53.21 75.05 53.22L68.45 53.66C68.31 53.67 68.17 53.71 68.04 53.78C67.91 53.84 67.79 53.93 67.7 54.04C67.6 54.15 67.53 54.27 67.48 54.41C67.43 54.55 67.42 54.69 67.43 54.84C67.44 54.98 67.47 55.12 67.54 55.25C67.6 55.38 67.69 55.5 67.8 55.59C67.91 55.69 68.04 55.76 68.17 55.81C68.31 55.86 68.46 55.87 68.6 55.86L75.2 55.42C75.34 55.41 75.48 55.37 75.61 55.31C75.75 55.24 75.86 55.15 75.96 55.04C76.05 54.93 76.12 54.81 76.17 54.67C76.22 54.53 76.24 54.39 76.23 54.24ZM44.4 57.5C44.47 57.5 44.54 57.49 44.61 57.47C44.68 57.45 44.75 57.43 44.82 57.39C44.88 57.36 44.95 57.32 45 57.28C45.06 57.24 45.12 57.19 45.17 57.13C45.21 57.08 45.26 57.02 45.29 56.96C45.33 56.89 45.36 56.83 45.38 56.76C45.41 56.69 45.42 56.62 45.43 56.54C45.44 56.47 45.45 56.4 45.44 56.33C45.44 56.25 45.42 56.18 45.4 56.11C45.39 56.04 45.36 55.97 45.33 55.91C45.29 55.84 45.26 55.78 45.21 55.72C45.17 55.66 45.11 55.61 45.06 55.56C45 55.52 44.94 55.47 44.88 55.44C44.82 55.4 44.75 55.37 44.68 55.35C44.61 55.33 44.54 55.31 44.47 55.3C44.39 55.3 44.32 55.3 44.25 55.3L37.65 55.75C37.5 55.76 37.37 55.79 37.23 55.86C37.1 55.92 36.99 56.01 36.89 56.12C36.8 56.23 36.72 56.36 36.68 56.5C36.63 56.63 36.61 56.78 36.62 56.92C36.63 57.07 36.67 57.21 36.74 57.34C36.8 57.47 36.89 57.58 37 57.68C37.11 57.77 37.23 57.85 37.37 57.89C37.51 57.94 37.65 57.96 37.8 57.95L44.4 57.5ZM58.79 74.21L58.34 67.61C58.34 67.54 58.33 67.47 58.31 67.39C58.29 67.32 58.27 67.26 58.24 67.19C58.2 67.12 58.17 67.06 58.12 67C58.08 66.94 58.03 66.89 57.97 66.84C57.92 66.79 57.86 66.75 57.8 66.71C57.73 66.68 57.67 66.65 57.6 66.62C57.53 66.6 57.46 66.58 57.39 66.57C57.31 66.56 57.24 66.56 57.17 66.57C57.09 66.57 57.02 66.58 56.95 66.6C56.88 66.62 56.81 66.65 56.75 66.68C56.68 66.71 56.62 66.75 56.56 66.8C56.51 66.84 56.45 66.89 56.41 66.95C56.36 67 56.32 67.06 56.28 67.13C56.24 67.19 56.21 67.26 56.19 67.33C56.17 67.4 56.15 67.47 56.15 67.54C56.14 67.61 56.14 67.69 56.14 67.76L56.59 74.36C56.59 74.43 56.6 74.5 56.62 74.57C56.64 74.64 56.66 74.71 56.7 74.78C56.73 74.84 56.77 74.91 56.81 74.96C56.85 75.02 56.9 75.08 56.96 75.13C57.01 75.17 57.07 75.22 57.13 75.25C57.2 75.29 57.26 75.32 57.33 75.35C57.4 75.37 57.47 75.39 57.55 75.4C57.62 75.41 57.69 75.41 57.76 75.4C57.84 75.4 57.91 75.39 57.98 75.37C58.05 75.35 58.12 75.32 58.18 75.29C58.25 75.26 58.31 75.22 58.37 75.17C58.43 75.13 58.48 75.08 58.53 75.02C58.57 74.97 58.62 74.91 58.65 74.84C58.69 74.78 58.72 74.71 58.74 74.64C58.76 74.57 58.78 74.5 58.79 74.43C58.79 74.36 58.8 74.28 58.79 74.21ZM56.71 43.41L56.26 36.81C56.26 36.74 56.25 36.66 56.23 36.59C56.21 36.52 56.18 36.45 56.15 36.39C56.12 36.32 56.08 36.26 56.04 36.2C56 36.14 55.95 36.09 55.89 36.04C55.84 35.99 55.78 35.95 55.72 35.91C55.65 35.87 55.59 35.84 55.52 35.82C55.45 35.8 55.38 35.78 55.3 35.77C55.23 35.76 55.16 35.76 55.09 35.76C55.01 35.77 54.94 35.78 54.87 35.8C54.8 35.82 54.73 35.84 54.67 35.88C54.6 35.91 54.54 35.95 54.48 35.99C54.42 36.04 54.37 36.09 54.32 36.14C54.27 36.2 54.23 36.26 54.2 36.32C54.16 36.39 54.13 36.45 54.11 36.52C54.09 36.59 54.07 36.66 54.06 36.74C54.05 36.81 54.05 36.88 54.06 36.95L54.51 43.55C54.51 43.63 54.52 43.7 54.54 43.77C54.56 43.84 54.58 43.91 54.61 43.98C54.64 44.04 54.68 44.1 54.73 44.16C54.77 44.22 54.82 44.27 54.87 44.32C54.93 44.37 54.99 44.41 55.05 44.45C55.11 44.49 55.18 44.52 55.25 44.54C55.32 44.57 55.39 44.58 55.46 44.59C55.54 44.6 55.61 44.6 55.68 44.6C55.75 44.59 55.83 44.58 55.9 44.56C55.97 44.54 56.04 44.52 56.1 44.49C56.17 44.45 56.23 44.41 56.29 44.37C56.34 44.32 56.4 44.27 56.44 44.22C56.49 44.16 56.53 44.1 56.57 44.04C56.6 43.97 56.63 43.91 56.66 43.84C56.68 43.77 56.69 43.7 56.7 43.62C56.71 43.55 56.71 43.48 56.71 43.41Z" fill="#F9ED69" fill-opacity="1.000000" fill-rule="nonzero"/>
	</g>
</svg>
