<svg width="67.000000" height="66.000000" viewBox="0 0 67 66" fill="none" xmlns="http://www.w3.org/2000/svg" xmlns:xlink="http://www.w3.org/1999/xlink">
	<desc>
			Created with Pixso.
	</desc>
	<defs>
		<clipPath id="clip23_85">
			<rect id="gmail" width="67.000000" height="66.000000" fill="white" fill-opacity="0"/>
		</clipPath>
	</defs>
	<g clip-path="url(#clip23_85)">
		<path id="path" d="M55.83 49.5L50.25 49.5L50.25 25.43L33.5 35.75L16.75 25.43L16.75 49.5L11.16 49.5L11.16 16.5L14.51 16.5L33.5 28.18L52.48 16.5L55.83 16.5L55.83 49.5ZM55.83 11L11.16 11C8.06 11 5.58 13.44 5.58 16.5L5.58 49.5C5.58 52.52 8.09 55 11.16 55L55.83 55C58.9 55 61.41 52.52 61.41 49.5L61.41 16.5C61.41 13.44 58.9 11 55.83 11Z" fill="#E04C4C" fill-opacity="1.000000" fill-rule="nonzero"/>
	</g>
</svg>
