<svg width="53.000000" height="53.000000" viewBox="0 0 53 53" fill="none" xmlns="http://www.w3.org/2000/svg" xmlns:xlink="http://www.w3.org/1999/xlink">
	<desc>
			Created with Pixso.
	</desc>
	<defs>
		<clipPath id="clip23_91">
			<rect id="microsoftoutlook" width="53.000000" height="53.000000" fill="white" fill-opacity="0"/>
		</clipPath>
	</defs>
	<g clip-path="url(#clip23_91)">
		<path id="path" d="M53 16.31L53 39.45C53 39.69 52.96 39.92 52.87 40.14C52.78 40.36 52.64 40.55 52.47 40.72C52.3 40.89 52.1 41.01 51.88 41.1C51.66 41.19 51.43 41.23 51.19 41.23L32.31 41.23L32.31 25.86L35.85 28.57C36.09 28.77 36.37 28.86 36.68 28.85C37 28.86 37.29 28.76 37.54 28.57L53 16.31ZM32.31 11.84L51.19 11.84C51.65 11.84 52.06 11.98 52.39 12.27C52.72 12.55 52.9 12.93 52.94 13.4L36.66 26.37L32.31 22.95L32.31 11.84ZM29.6 1.9L29.6 51.08L0 45.97L0 7.16L29.6 1.9ZM20.65 26.59C20.61 24.09 19.96 22.02 18.71 20.38C17.49 18.74 15.9 17.88 14.01 17.81C12.19 17.88 10.63 18.74 9.37 20.38C8.11 22.02 7.48 24.09 7.45 26.59C7.48 29.06 8.14 31.11 9.4 32.76C10.66 34.39 12.22 35.26 14.04 35.35C15.93 35.28 17.52 34.42 18.78 32.77C20.04 31.12 20.7 29.06 20.73 26.59L20.65 26.59ZM13.76 21.11C14.72 21.16 15.52 21.68 16.16 22.69C16.78 23.71 17.12 25 17.12 26.56C17.12 28.16 16.79 29.45 16.16 30.47C15.49 31.5 14.7 32.03 13.74 32.03C12.77 32.03 11.98 31.53 11.32 30.51C10.65 29.48 10.36 28.19 10.36 26.63C10.36 25.08 10.65 23.78 11.32 22.79C11.94 21.8 12.74 21.27 13.7 21.2L13.76 21.11Z" fill="#40AEF0" fill-opacity="1.000000" fill-rule="nonzero"/>
	</g>
</svg>
